<?xml version="1.0" encoding="UTF-8" standalone="no"?>
<!-- Created with Inkscape (http://www.inkscape.org/) -->

<svg
   xmlns:dc="http://purl.org/dc/elements/1.1/"
   xmlns:cc="http://creativecommons.org/ns#"
   xmlns:rdf="http://www.w3.org/1999/02/22-rdf-syntax-ns#"
   xmlns:svg="http://www.w3.org/2000/svg"
   xmlns="http://www.w3.org/2000/svg"
   xmlns:sodipodi="http://sodipodi.sourceforge.net/DTD/sodipodi-0.dtd"
   xmlns:inkscape="http://www.inkscape.org/namespaces/inkscape"
   width="210mm"
   height="297mm"
   viewBox="0 0 744.09448819 1052.3622047"
   id="svg2"
   version="1.1"
   inkscape:version="0.91 r13725"
   sodipodi:docname="drawing 2'16.svg">
  <defs
     id="defs4" />
  <sodipodi:namedview
     id="base"
     pagecolor="#ffffff"
     bordercolor="#666666"
     borderopacity="1.0"
     inkscape:pageopacity="0.0"
     inkscape:pageshadow="2"
     inkscape:zoom="0.12374369"
     inkscape:cx="-345.57504"
     inkscape:cy="1112.695"
     inkscape:document-units="px"
     inkscape:current-layer="layer1"
     showgrid="false"
     showborder="true"
     inkscape:object-nodes="true"
     inkscape:window-width="1375"
     inkscape:window-height="876"
     inkscape:window-x="65"
     inkscape:window-y="24"
     inkscape:window-maximized="1">
    <inkscape:grid
       type="axonomgrid"
       id="grid4136"
       units="mm"
       empspacing="5"
       spacingy="70.866143" />
  </sodipodi:namedview>
  <metadata
     id="metadata7">
    <rdf:RDF>
      <cc:Work
         rdf:about="">
        <dc:format>image/svg+xml</dc:format>
        <dc:type
           rdf:resource="http://purl.org/dc/dcmitype/StillImage" />
        <dc:title></dc:title>
      </cc:Work>
    </rdf:RDF>
  </metadata>
  <g
     inkscape:label="Layer 1"
     inkscape:groupmode="layer"
     id="layer1">
    <g
       id="g4151"
       transform="matrix(0.3134023,0,0,0.3134023,96.974641,373.3649)">
      <path
         inkscape:connector-curvature="0"
         id="path4174"
         d="M 0,343.70079 1166.0657,-329.52755 1718.4126,-10.629918 552.34691,662.59843 Z"
         style="fill:#ff5555;fill-rule:evenodd;stroke:none;stroke-width:1px;stroke-linecap:butt;stroke-linejoin:miter;stroke-opacity:1" />
      <path
         inkscape:connector-curvature="0"
         id="path4138"
         d="M 724.22824,78.527065 540.113,184.82589 846.97237,361.99191 1031.0876,255.69112 724.22824,78.527065 Z m 0,70.865235 184.11718,106.29882 -61.37305,35.4336 -184.11523,-106.29883 61.3711,-35.43359 z"
         style="fill:#ececec;fill-rule:evenodd;stroke:none;stroke-width:1px;stroke-linecap:butt;stroke-linejoin:miter;stroke-opacity:1" />
      <path
         inkscape:connector-curvature="0"
         id="path4142"
         d="M 785.6009,397.42407 601.48526,503.72328 417.36962,397.42407 540.11338,326.55793 478.7415,291.12486 355.99775,361.991 294.62587,326.55793 478.7415,220.25872 662.85714,326.55793 540.11338,397.42407 601.48526,432.85714 724.22902,361.991 Z"
         style="fill:#ececec;fill-rule:evenodd;stroke:none;stroke-width:1px;stroke-linecap:butt;stroke-linejoin:miter;stroke-opacity:1" />
      <path
         inkscape:connector-curvature="0"
         id="path4144"
         d="M 1092.4603,220.25872 785.6009,43.093367 846.97278,7.6602959 1153.8322,184.82565 Z"
         style="fill:#ececec;fill-rule:evenodd;stroke:none;stroke-width:1px;stroke-linecap:butt;stroke-linejoin:miter;stroke-opacity:1" />
      <path
         inkscape:connector-curvature="0"
         id="path4146"
         d="M 1092.4607,-134.07255 908.34542,-27.773716 1215.2048,149.3923 1399.32,43.093471 1215.2048,-63.205357 1092.4607,7.6598769 l -61.3731,-35.4335929 122.7442,-70.865235 -61.3711,-35.433599 z m 122.7441,141.7324269 61.3711,35.4335941 -61.3711,35.433594 -61.373,-35.433594 61.373,-35.4335941 z"
         style="fill:#ececec;fill-rule:evenodd;stroke:none;stroke-width:1px;stroke-linecap:butt;stroke-linejoin:miter;stroke-opacity:1" />
      <path
         inkscape:connector-curvature="0"
         id="path4152"
         d="m 478.7415,220.25872 0,70.86614 61.37188,35.43307 0,70.86614 122.74376,-70.86614 z"
         style="fill:#b3b3b3;fill-rule:evenodd;stroke:none;stroke-width:1px;stroke-linecap:butt;stroke-linejoin:miter;stroke-opacity:1" />
      <path
         inkscape:connector-curvature="0"
         id="path4154"
         d="m 540.11338,397.42407 0,70.86614 61.37188,35.43307 0,-70.86614 z"
         style="fill:#b3b3b3;fill-rule:evenodd;stroke:none;stroke-width:1px;stroke-linecap:butt;stroke-linejoin:miter;stroke-opacity:1" />
      <path
         inkscape:connector-curvature="0"
         id="path4156"
         d="m 724.22902,361.991 0,70.86614 61.37188,-35.43307 z"
         style="fill:#b3b3b3;fill-rule:evenodd;stroke:none;stroke-width:1px;stroke-linecap:butt;stroke-linejoin:miter;stroke-opacity:1" />
      <path
         inkscape:connector-curvature="0"
         id="path4158"
         d="m 662.85714,184.82565 0,70.86614 184.11564,106.29921 0,-70.86614 z"
         style="fill:#b3b3b3;fill-rule:evenodd;stroke:none;stroke-width:1px;stroke-linecap:butt;stroke-linejoin:miter;stroke-opacity:1" />
      <path
         inkscape:connector-curvature="0"
         id="path4160"
         d="m 724.22902,78.526437 0,70.866143 184.11564,106.29921 0,70.86614 122.74374,-70.86614 z"
         style="fill:#b3b3b3;fill-rule:evenodd;stroke:none;stroke-width:1px;stroke-linecap:butt;stroke-linejoin:miter;stroke-opacity:1" />
      <path
         inkscape:connector-curvature="0"
         id="path4162"
         d="m 846.97278,7.6602959 0,70.8661411 245.48752,141.732283 61.3719,-35.43307 z"
         style="fill:#b3b3b3;fill-rule:evenodd;stroke:none;stroke-width:1px;stroke-linecap:butt;stroke-linejoin:miter;stroke-opacity:1" />
      <path
         inkscape:connector-curvature="0"
         id="path4164"
         d="m 1092.4603,-134.07199 0,70.866144 61.3719,-35.43307 z"
         style="fill:#b3b3b3;fill-rule:evenodd;stroke:none;stroke-width:1px;stroke-linecap:butt;stroke-linejoin:miter;stroke-opacity:1" />
      <path
         inkscape:connector-curvature="0"
         id="path4166"
         d="m 1031.0884,-27.772775 0,70.866142 61.3719,35.43307 0,-70.8661411 z"
         style="fill:#b3b3b3;fill-rule:evenodd;stroke:none;stroke-width:1px;stroke-linecap:butt;stroke-linejoin:miter;stroke-opacity:1" />
      <path
         inkscape:connector-curvature="0"
         id="path4168"
         d="m 1153.8322,43.093367 0,70.866143 61.3719,35.43307 0,-70.866143 z"
         style="fill:#b3b3b3;fill-rule:evenodd;stroke:none;stroke-width:1px;stroke-linecap:butt;stroke-linejoin:miter;stroke-opacity:1" />
      <path
         inkscape:connector-curvature="0"
         id="path4170"
         d="m 1215.2041,-63.205846 0,70.8661419 61.3718,35.4330711 0,70.866143 122.7438,-70.866143 z"
         style="fill:#b3b3b3;fill-rule:evenodd;stroke:none;stroke-width:1px;stroke-linecap:butt;stroke-linejoin:miter;stroke-opacity:1" />
      <path
         inkscape:connector-curvature="0"
         id="path4176"
         d="m 0,343.70079 0,354.33071 552.34691,318.8976 0,-354.33067 z"
         style="fill:#ff2a2a;fill-rule:evenodd;stroke:none;stroke-width:1px;stroke-linecap:butt;stroke-linejoin:miter;stroke-opacity:1" />
      <path
         inkscape:connector-curvature="0"
         id="path4180"
         d="m 552.34691,1016.9291 1166.06569,-673.22831 0,-354.330708 L 552.34691,662.59843 Z"
         style="fill:#ffaaaa;fill-rule:evenodd;stroke:none;stroke-width:1px;stroke-linecap:butt;stroke-linejoin:miter;stroke-opacity:1" />
    </g>
  </g>
</svg>
