<?xml version="1.0" encoding="UTF-8" standalone="no"?>
<!-- Created with Inkscape (http://www.inkscape.org/) -->

<svg
   xmlns:dc="http://purl.org/dc/elements/1.1/"
   xmlns:cc="http://creativecommons.org/ns#"
   xmlns:rdf="http://www.w3.org/1999/02/22-rdf-syntax-ns#"
   xmlns:svg="http://www.w3.org/2000/svg"
   xmlns="http://www.w3.org/2000/svg"
   xmlns:xlink="http://www.w3.org/1999/xlink"
   xmlns:sodipodi="http://sodipodi.sourceforge.net/DTD/sodipodi-0.dtd"
   xmlns:inkscape="http://www.inkscape.org/namespaces/inkscape"
   width="210mm"
   height="297mm"
   viewBox="0 0 744.09448819 1052.3622047"
   id="svg2"
   version="1.1"
   inkscape:version="0.91 r13725"
   sodipodi:docname="drawing pigeon.svg">
  <defs
     id="defs4">
    <linearGradient
       inkscape:collect="always"
       id="linearGradient4247">
      <stop
         style="stop-color:#ff7f2a;stop-opacity:1;"
         offset="0"
         id="stop4249" />
      <stop
         style="stop-color:#a14000;stop-opacity:1"
         offset="1"
         id="stop4251" />
    </linearGradient>
    <linearGradient
       inkscape:collect="always"
       id="linearGradient4219">
      <stop
         style="stop-color:#4141be;stop-opacity:1;"
         offset="0"
         id="stop4221" />
      <stop
         style="stop-color:#4141be;stop-opacity:0;"
         offset="1"
         id="stop4223" />
    </linearGradient>
    <linearGradient
       inkscape:collect="always"
       id="linearGradient4209">
      <stop
         style="stop-color:#ffff00;stop-opacity:1;"
         offset="0"
         id="stop4211" />
      <stop
         style="stop-color:#ffff00;stop-opacity:0;"
         offset="1"
         id="stop4213" />
    </linearGradient>
    <linearGradient
       inkscape:collect="always"
       id="linearGradient4199">
      <stop
         style="stop-color:#00775c;stop-opacity:1;"
         offset="0"
         id="stop4201" />
      <stop
         style="stop-color:#00775c;stop-opacity:0;"
         offset="1"
         id="stop4203" />
    </linearGradient>
    <linearGradient
       inkscape:collect="always"
       xlink:href="#linearGradient4199"
       id="linearGradient4205"
       x1="177.09264"
       y1="151.6974"
       x2="273.21011"
       y2="214.55455"
       gradientUnits="userSpaceOnUse" />
    <linearGradient
       inkscape:collect="always"
       xlink:href="#linearGradient4209"
       id="linearGradient4215"
       x1="164.94977"
       y1="234.55455"
       x2="208.21011"
       y2="192.4117"
       gradientUnits="userSpaceOnUse" />
    <linearGradient
       inkscape:collect="always"
       xlink:href="#linearGradient4219"
       id="linearGradient4225"
       x1="268.52121"
       y1="243.84027"
       x2="209.63867"
       y2="175.98312"
       gradientUnits="userSpaceOnUse" />
    <radialGradient
       inkscape:collect="always"
       xlink:href="#linearGradient4247"
       id="radialGradient4253"
       cx="110.53571"
       cy="162.89792"
       fx="110.53571"
       fy="162.89792"
       r="5.5771842"
       gradientUnits="userSpaceOnUse"
       gradientTransform="translate(74.246212,-4.0406102)" />
  </defs>
  <sodipodi:namedview
     id="base"
     pagecolor="#ffffff"
     bordercolor="#666666"
     borderopacity="1.0"
     inkscape:pageopacity="0.0"
     inkscape:pageshadow="2"
     inkscape:zoom="0.49497475"
     inkscape:cx="269.02294"
     inkscape:cy="505.85154"
     inkscape:document-units="px"
     inkscape:current-layer="layer1"
     showgrid="false"
     inkscape:object-paths="false"
     inkscape:object-nodes="false"
     showguides="false"
     inkscape:window-width="1375"
     inkscape:window-height="876"
     inkscape:window-x="65"
     inkscape:window-y="24"
     inkscape:window-maximized="1" />
  <metadata
     id="metadata7">
    <rdf:RDF>
      <cc:Work
         rdf:about="">
        <dc:format>image/svg+xml</dc:format>
        <dc:type
           rdf:resource="http://purl.org/dc/dcmitype/StillImage" />
        <dc:title></dc:title>
      </cc:Work>
    </rdf:RDF>
  </metadata>
  <g
     inkscape:label="Layer 1"
     inkscape:groupmode="layer"
     id="layer1">
    <rect
       style="opacity:1;fill:#decd87;fill-opacity:0.99215686;stroke:none;stroke-width:4.5999999;stroke-linecap:round;stroke-linejoin:round;stroke-miterlimit:4;stroke-dasharray:none;stroke-opacity:1"
       id="rect4434"
       width="480"
       height="480"
       x="105.86858"
       y="114.4492"
       ry="16.183249" />
    <path
       style="color:#000000;font-style:normal;font-variant:normal;font-weight:normal;font-stretch:normal;font-size:medium;line-height:normal;font-family:sans-serif;text-indent:0;text-align:start;text-decoration:none;text-decoration-line:none;text-decoration-style:solid;text-decoration-color:#000000;letter-spacing:normal;word-spacing:normal;text-transform:none;direction:ltr;block-progression:tb;writing-mode:lr-tb;baseline-shift:baseline;text-anchor:start;white-space:normal;clip-rule:nonzero;display:inline;overflow:visible;visibility:visible;opacity:0.284;isolation:auto;mix-blend-mode:normal;color-interpolation:sRGB;color-interpolation-filters:linearRGB;solid-color:#000000;solid-opacity:1;fill:#666666;fill-opacity:1;fill-rule:evenodd;stroke:none;stroke-width:4.5999999;stroke-linecap:round;stroke-linejoin:round;stroke-miterlimit:4;stroke-dasharray:none;stroke-dashoffset:0;stroke-opacity:1;color-rendering:auto;image-rendering:auto;shape-rendering:auto;text-rendering:auto;enable-background:accumulate"
       d="m 343.61222,444.04102 c 0.34762,0.0816 0.7415,0.12466 1.14258,0.125 0.23032,2.8e-4 0.45944,-0.0135 0.67969,-0.041 l 0.70703,-0.084 z m 0.61244,-6.42857 6.19029,8.13756 c -6.09361,3.29664 -17.35472,10.99903 -24.52929,16.71875 -7.39976,0.48091 -14.99231,1.195 -22.76367,2.19336 -23.73261,3.04884 -63.6858,12.0671 -76.12891,16.90234 -3.80567,1.38101 -7.18819,2.93867 -10.07617,4.64062 -0.25052,0.13886 -0.5011,0.27862 -0.74414,0.41797 -0.0956,0.0556 -0.19066,0.11012 -0.28516,0.16602 -11.24357,6.53528 -14.33053,13.58495 -10.70312,19.75781 l -0.002,0 c -0.27274,4.2431 -0.66639,8.28905 -1.27734,11.98047 -0.24276,1.46682 -0.52418,2.86935 -0.84375,4.21094 -0.0413,0.17329 -0.0784,0.35245 -0.1211,0.52344 -0.0896,0.35896 -0.1872,0.70616 -0.2832,1.05468 -0.0677,0.24532 -0.13603,0.48858 -0.20703,0.72852 -0.0944,0.31973 -0.19054,0.63737 -0.29102,0.94726 -0.11411,0.35142 -0.23523,0.69301 -0.35742,1.03125 -0.1302,0.36094 -0.26452,0.71327 -0.40429,1.0586 -0.12392,0.30567 -0.24914,0.60744 -0.38086,0.90039 -0.0973,0.21671 -0.19715,0.42912 -0.29883,0.63867 -0.16362,0.33669 -0.33442,0.66291 -0.50977,0.98047 -0.27355,0.49618 -0.55776,0.97466 -0.86133,1.42187 -0.021,0.0309 -0.0414,0.0632 -0.0625,0.0937 -0.4291,0.62282 -0.88819,1.19373 -1.38086,1.71289 -0.0442,0.0466 -0.09,0.093 -0.13476,0.13868 -0.20962,0.2142 -0.4269,0.41656 -0.64844,0.61132 -0.0433,0.0381 -0.0851,0.0799 -0.1289,0.11719 -0.25685,0.21895 -0.5218,0.42479 -0.79493,0.61719 -0.0448,0.0316 -0.0914,0.059 -0.13671,0.0898 -0.23115,0.15749 -0.46795,0.30521 -0.71094,0.44336 -0.10029,0.057 -0.2004,0.11437 -0.30274,0.16797 -0.0589,0.0309 -0.11813,0.062 -0.17773,0.0918 -0.20843,0.10408 -0.41978,0.20277 -0.63672,0.29297 -0.0992,0.0762 -0.21031,0.15021 -0.31641,0.22461 -0.20631,0.14477 -0.42649,0.28679 -0.66015,0.42578 -0.0729,0.0433 -0.14345,0.0883 -0.21875,0.13086 -0.3039,0.17193 -0.62845,0.33876 -0.97266,0.5 -0.042,0.0196 -0.0884,0.0391 -0.13086,0.0586 -0.30701,0.14068 -0.62887,0.27685 -0.96484,0.4082 -0.10446,0.0408 -0.20943,0.0813 -0.31641,0.1211 -0.77553,0.28861 -1.61866,0.55135 -2.51953,0.78515 -0.13358,0.0346 -0.26835,0.0682 -0.4043,0.10157 -0.38047,0.0931 -0.77005,0.18108 -1.16796,0.26367 -0.0878,0.0182 -0.17312,0.0389 -0.26172,0.0566 -0.47776,0.0951 -0.9665,0.18237 -1.46485,0.26172 -0.13606,0.0218 -0.27456,0.0419 -0.41211,0.0625 -0.40856,0.0614 -0.82288,0.11741 -1.24218,0.16797 -0.1258,0.0152 -0.25015,0.0307 -0.37696,0.0449 -0.5275,0.0595 -1.06188,0.11031 -1.60156,0.15234 -0.10343,0.008 -0.20855,0.0125 -0.3125,0.0195 -0.45425,0.0323 -0.9116,0.0584 -1.37109,0.0781 -0.14154,0.006 -0.28352,0.0106 -0.42579,0.0156 -0.56086,0.0205 -1.12393,0.0315 -1.6875,0.0332 -0.22783,-4e-4 -0.45414,-0.008 -0.68164,-0.0117 -0.17402,-0.004 -0.34786,-0.01 -0.52148,-0.0156 -0.006,-0.0128 -0.006,-0.0279 -0.0176,-0.0391 -0.20088,-0.20027 -1.37556,-0.0677 -6.20117,-0.76953 -4.82561,-0.70178 -13.30199,-2.23748 -13.62695,-2.06641 -0.32497,0.17106 1.75817,2.66757 4.67578,4.36719 1.33812,0.77951 2.90816,1.42594 4.27734,1.9082 -0.35416,0.0934 -0.47822,0.20022 -0.28515,0.36524 0.29703,0.25389 1.45958,0.72205 2.95312,0.93554 -0.43458,0.68838 -0.67083,1.39792 -0.67383,2.1211 7.4e-4,5.80008 14.24703,10.50204 31.82032,10.50195 8.41051,-0.004 16.44956,-1.10629 22.38281,-3.05273 0.39555,-0.12976 0.78189,-0.2632 1.1582,-0.40039 l 0.0215,0.01 c 1.38658,-0.53491 2.96953,-1.16475 4.63085,-1.83594 0.47032,-0.19 0.9655,-0.3923 1.45508,-0.59179 0.93182,-0.37974 1.93245,-0.79423 2.92774,-1.20508 2.27348,-0.93841 4.66205,-1.93235 7.19531,-2.99609 0.3842,-0.16135 0.74395,-0.31106 1.13281,-0.47461 6.95348,-2.92424 14.60907,-6.17739 22.01172,-9.26563 0.21296,-0.0888 0.42424,-0.17712 0.63672,-0.26562 2.08284,-0.86788 4.13499,-1.71654 6.14844,-2.54297 0.29475,-0.12099 0.594,-0.24345 0.88672,-0.36328 2.25931,-0.92474 4.46409,-1.81992 6.5664,-2.65625 4.02522,-1.6013 7.665,-2.98867 10.77149,-4.08789 2.05618,-0.72757 3.88432,-1.3322 5.39062,-1.76368 0.0505,-0.0143 0.10655,-0.031 0.15625,-0.0449 0.49361,-0.13954 0.95323,-0.26147 1.36914,-0.35937 6.76054,-0.93455 13.11703,-1.16583 20.2793,-2.08594 1.61377,-0.20732 3.23439,-0.42403 4.85742,-0.65039 0.47805,-0.0667 0.95881,-0.13873 1.4375,-0.20703 1.12367,-0.16027 2.2465,-0.32132 3.37305,-0.49024 0.69791,-0.10465 1.39697,-0.21438 2.0957,-0.32226 0.91326,-0.14101 1.82601,-0.28133 2.74024,-0.42774 0.72976,-0.11687 1.45936,-0.23914 2.18945,-0.35937 0.91895,-0.15133 1.83685,-0.30247 2.75586,-0.45899 0.68972,-0.11747 1.37886,-0.23905 2.06836,-0.35937 0.93133,-0.16251 1.86248,-0.32461 2.79297,-0.49219 0.70434,-0.12686 1.40772,-0.25704 2.11132,-0.38672 0.92481,-0.17045 1.84842,-0.34238 2.77149,-0.51758 0.71548,-0.13579 1.42842,-0.27352 2.14258,-0.41211 0.89371,-0.1734 1.78651,-0.34776 2.67773,-0.52539 0.73166,-0.14584 1.46172,-0.29476 2.19141,-0.44335 0.88721,-0.18068 1.77238,-0.36225 2.65625,-0.54688 0.72003,-0.1504 1.43872,-0.30214 2.15625,-0.45508 0.85325,-0.18187 1.7034,-0.36542 2.55273,-0.55078 0.75621,-0.16503 1.51089,-0.33034 2.26367,-0.49805 0.86373,-0.19242 1.72324,-0.38818 2.58203,-0.58398 0.68753,-0.15676 1.3745,-0.31184 2.0586,-0.4707 0.87828,-0.20394 1.75086,-0.41188 2.62304,-0.61914 0.70313,-0.16709 1.40659,-0.33279 2.10547,-0.50196 0.82282,-0.19917 1.63854,-0.40158 2.45508,-0.60351 0.71661,-0.17722 1.43502,-0.35199 2.14649,-0.53125 0.82733,-0.20845 1.64488,-0.42173 2.46484,-0.63282 0.69309,-0.17843 1.38865,-0.35493 2.07617,-0.53515 0.75054,-0.19674 1.4908,-0.39692 2.23438,-0.5957 0.74773,-0.1999 1.4999,-0.39775 2.24023,-0.59961 0.64039,-0.17461 1.2697,-0.35135 1.9043,-0.52735 0.067,-0.0186 0.13417,-0.038 0.20117,-0.0566 0.29161,-0.0808 0.58271,-0.16109 0.87305,-0.24219 l 0.002,-0.002 c 0.42377,-0.11867 0.85438,-0.23621 1.27539,-0.35547 1.44565,-0.4095 2.87578,-0.82045 4.28711,-1.23633 0.36669,-0.0356 0.77062,-0.084 1.19727,-0.14062 0.0758,-0.0101 0.15667,-0.0225 0.23437,-0.0332 0.37788,-0.0521 0.77697,-0.11074 1.19727,-0.17774 0.0578,-0.009 0.11327,-0.0203 0.17187,-0.0293 0.27977,-0.0453 0.58748,-0.10074 0.88477,-0.15234 0.52931,-0.0919 1.08552,-0.19184 1.66797,-0.30273 0.23117,-0.044 0.45024,-0.084 0.68945,-0.13086 0.76516,-0.15002 1.57459,-0.31576 2.41797,-0.49414 0.36426,-0.077 0.745,-0.16019 1.12304,-0.24219 0.24931,-0.0541 0.48513,-0.10386 0.74024,-0.16016 0.1391,-0.0307 0.30062,-0.0703 0.44141,-0.10156 1.13722,-0.25268 2.32531,-0.52495 3.5664,-0.81641 0.16548,-0.0389 0.32108,-0.0737 0.48828,-0.11328 0.10482,-0.0248 0.20506,-0.0473 0.31055,-0.0723 3.25476,-0.77212 6.82765,-1.66547 10.61133,-2.64649 0.019,-0.005 0.0357,-0.0106 0.0547,-0.0156 19.83773,-5.14516 45.45836,-12.70775 61.94532,-18.16992 l 45.83984,-5.65625 c 0.76349,-0.0942 1.4666,-0.22716 2.12305,-0.38672 0.007,-0.002 0.0145,-0.004 0.0215,-0.006 0.24869,-0.0608 0.48893,-0.12592 0.72266,-0.19531 0.005,-10e-4 0.01,-0.003 0.0137,-0.004 0.23318,-0.0694 0.45923,-0.1431 0.67774,-0.2207 0.004,-0.002 0.008,-0.003 0.0117,-0.004 2.36292,-0.84112 3.86246,-2.14382 4.67579,-3.625 0.0689,-0.12515 0.13045,-0.25138 0.18945,-0.37891 0.0748,-0.16213 0.14578,-0.32488 0.20508,-0.49023 0.047,-0.13084 0.0855,-0.26206 0.12304,-0.39453 0.0474,-0.16805 0.0926,-0.33583 0.125,-0.50586 0.0257,-0.13451 0.042,-0.26895 0.0586,-0.4043 0.0203,-0.16646 0.0399,-0.33287 0.0469,-0.5 0.006,-0.14566 10e-5,-0.28985 -0.004,-0.43555 -0.005,-0.16234 -0.008,-0.32449 -0.0254,-0.48632 -0.0148,-0.14306 -0.0423,-0.28357 -0.0664,-0.42578 -0.0272,-0.16043 -0.0511,-0.32168 -0.0898,-0.48047 -0.0374,-0.15392 -0.0888,-0.30322 -0.13672,-0.45508 -0.0452,-0.1428 -0.0845,-0.28723 -0.13868,-0.42774 -0.0633,-0.16434 -0.14159,-0.32189 -0.21679,-0.48242 -0.0587,-0.12515 -0.10813,-0.25255 -0.17383,-0.375 -0.098,-0.18252 -0.21303,-0.35763 -0.32617,-0.5332 -0.0595,-0.0922 -0.11033,-0.1892 -0.17383,-0.2793 -0.18553,-0.26318 -0.38874,-0.51773 -0.60742,-0.75976 -3.57864,-3.96086 -15.48416,-8.64362 -25.00586,-6.98633 l -7.52539,1.31054 -57.05078,9.92969 c -9.61788,-0.78547 -19.74826,-1.52034 -29.6875,-2.15429 -5.97753,-1.21113 -12.4401,-2.30171 -19.31641,-3.21875 -7.67846,-5.16219 -17.3063,-11.96625 -21.7793,-15.625 l -15.16907,-28.41574 -4.9375,0 16.14759,29.43917 c -1.2499,0.865 -2.75659,2.04486 -4.4043,3.42383 -3.11087,-3.01915 -5.97938,-5.90347 -7.86328,-8.00586 -0.0317,-0.0675 -0.0795,-0.13355 -0.14258,-0.19726 l -0.34765,-0.36329 c -0.17291,-0.19882 -0.38063,-0.42491 -0.53125,-0.60546 -0.0291,-0.0348 -4.67662,-6.5067 -4.67662,-6.5067 l -0.125,-0.13086 z"
       id="path4442"
       inkscape:connector-curvature="0"
       sodipodi:nodetypes="ccccccccsccccccsccccccccccccccccccccccccsccscccccccccccccccccscscccccscccccccccccsscccsscsssssccsccccssssscsssssscsccccscccccccsccccccccccccccccccccccccccccccccccsccccccccccccccccc" />
    <g
       id="g4402">
      <g
         transform="translate(1.0101525,-4.5203051)"
         id="g4335">
        <path
           inkscape:connector-curvature="0"
           id="path4302"
           d="m 370.71428,395.93363 -11.42857,29.28571 -32.14286,2.14286"
           style="fill:none;fill-rule:evenodd;stroke:#2b1100;stroke-width:4.5999999;stroke-linecap:round;stroke-linejoin:round;stroke-miterlimit:4;stroke-dasharray:none;stroke-opacity:1" />
        <path
           inkscape:connector-curvature="0"
           id="path4304"
           d="m 336.42857,435.21934 22.85714,-10 L 375,427.3622"
           style="fill:none;fill-rule:evenodd;stroke:#2b1100;stroke-width:4.5999999;stroke-linecap:round;stroke-linejoin:round;stroke-miterlimit:4;stroke-dasharray:none;stroke-opacity:1" />
        <path
           inkscape:connector-curvature="0"
           id="path4306"
           d="m 359.28571,425.21934 -17.14286,-5"
           style="fill:none;fill-rule:evenodd;stroke:#2b1100;stroke-width:4.5999999;stroke-linecap:round;stroke-linejoin:round;stroke-miterlimit:4;stroke-dasharray:none;stroke-opacity:1" />
      </g>
      <g
         transform="translate(52.857143,-25.714286)"
         id="g4327">
        <path
           style="fill:none;fill-rule:evenodd;stroke:#803300;stroke-width:5.19999981;stroke-linecap:round;stroke-linejoin:round;stroke-miterlimit:4;stroke-dasharray:none;stroke-opacity:1"
           d="M 298.57143,435.57649 287.14286,464.8622 255,467.00506"
           id="path4288"
           inkscape:connector-curvature="0" />
        <path
           style="fill:none;fill-rule:evenodd;stroke:#803300;stroke-width:5.19999981;stroke-linecap:round;stroke-linejoin:round;stroke-miterlimit:4;stroke-dasharray:none;stroke-opacity:1"
           d="m 264.28572,474.8622 22.85714,-10 15.71429,2.14286"
           id="path4290"
           inkscape:connector-curvature="0" />
        <path
           style="fill:none;fill-rule:evenodd;stroke:#803300;stroke-width:5.19999981;stroke-linecap:round;stroke-linejoin:round;stroke-miterlimit:4;stroke-dasharray:none;stroke-opacity:1"
           d="M 287.14286,464.8622 270,459.8622"
           id="path4292"
           inkscape:connector-curvature="0" />
      </g>
      <path
         style="opacity:1;fill:#494949;fill-opacity:0.99215686;stroke:none;stroke-width:17.60000038;stroke-miterlimit:4.80000019;stroke-dasharray:none;stroke-opacity:1"
         inkscape:transform-center-x="-2.3693223"
         inkscape:transform-center-y="5.5866866"
         d="m 369.65318,402.71736 c -2.20677,4.54657 -30.47428,-61.33568 -27.29896,-65.2235 3.17534,-3.8878 57.98744,15.51161 59.96099,10.85333 4.30154,-10.15317 -24.79593,38.16382 -32.66203,54.37017 z"
         id="path4284"
         inkscape:connector-curvature="0"
         sodipodi:nodetypes="ssss" />
      <path
         sodipodi:nodetypes="ssss"
         inkscape:connector-curvature="0"
         id="path4286"
         d="m 352.97186,413.18698 c -1.62731,4.78467 -37.8287,-57.0941 -35.15878,-61.34491 2.66994,-4.25079 59.46104,8.21813 60.8431,3.35147 3.01232,-10.60735 -19.88373,40.9384 -25.68432,57.99344 z"
         inkscape:transform-center-y="7.1104085"
         inkscape:transform-center-x="0.32808306"
         style="opacity:1;fill:#6f6f6f;fill-opacity:0.99215686;stroke:none;stroke-width:17.60000038;stroke-miterlimit:4.80000019;stroke-dasharray:none;stroke-opacity:1" />
      <path
         sodipodi:nodetypes="cccccccccccscssccscccc"
         inkscape:connector-curvature="0"
         id="path3336"
         d="m 197.48438,135.14453 c -17.57328,-2.3e-4 -31.81958,11.53183 -31.82032,25.75781 0.01,6.33097 2.89166,12.2492 7.7793,16.82032 0.76984,-0.0944 1.54543,-0.14532 2.32226,-0.15235 7.17851,0.006 13.71904,3.73356 16.82813,9.5918 7.77107,7.92552 10.02585,37.91406 10.95117,73.22266 l 0.002,0 c -3.6274,15.14032 -0.54045,32.43169 10.70312,48.46093 0.0945,0.13708 0.18956,0.27381 0.28516,0.41016 0.24304,0.3418 0.49362,0.68285 0.74414,1.02344 2.88798,4.17441 6.2705,7.99556 10.07617,11.38281 12.44311,11.85949 52.39505,33.97864 76.12766,41.45659 53.76539,16.94104 99.297,1.46631 127.46804,-18.16948 l 76.62891,32.71289 c 9.5217,4.06487 21.42722,-7.42183 25.00586,-17.13672 3.57865,-9.71489 2.87391,-27.05729 -7.03516,-30.05664 L 435.60156,303.8457 c -18.49168,-31.37667 -73.27937,-69.6882 -122.99609,-85.35351 -7.16227,-2.25677 -13.51876,-2.82303 -20.2793,-5.11524 -11.77881,-6.8005 -53.67343,-53.12857 -71.27929,-69.78711 l -0.0215,0.0254 c -6.02107,-5.38377 -14.56979,-8.45983 -23.54101,-8.4707 z"
         style="opacity:1;fill:#666666;fill-opacity:0.99215686;stroke:none;stroke-width:17.60000038;stroke-miterlimit:4.80000019;stroke-dasharray:none;stroke-opacity:1" />
      <path
         sodipodi:nodetypes="sssssss"
         inkscape:connector-curvature="0"
         id="path4154"
         d="m 493.76415,333.64715 c -1.11608,9.90815 -142.44802,35.72972 -148.04077,23.75525 -2.68485,-5.74847 12.10171,-46.29018 12.10171,-46.29018 9.99028,-10.93441 24.10921,3.55155 36.08,7.98342 12.44876,4.60882 16.01773,6.31126 32.44699,10.4724 16.24554,4.1146 36.84668,1.86587 47.63173,1.47295 12.81546,-0.46689 19.96305,0.98421 19.78034,2.60616 z"
         inkscape:transform-center-y="-3.0455449"
         inkscape:transform-center-x="-3.6117405"
         style="opacity:1;fill:#1a1a1a;fill-opacity:0.99215686;stroke:none;stroke-width:17.60000038;stroke-miterlimit:4.80000019;stroke-dasharray:none;stroke-opacity:1" />
      <path
         style="opacity:1;fill:#1a1a1a;fill-opacity:0.99215686;stroke:none;stroke-width:17.60000038;stroke-miterlimit:4.80000019;stroke-dasharray:none;stroke-opacity:1"
         inkscape:transform-center-x="-0.099521281"
         inkscape:transform-center-y="-4.1623249"
         d="m 494.12297,333.10579 c 4.31742,-4.44659 -95.29785,-77.21078 -106.21719,-75.04943 -5.24194,1.03758 -21.73177,29.82362 -21.73177,29.82362 -0.30979,0.92858 7.46633,1.04351 19.82931,3.48711 10.70612,2.11612 28.49373,8.43131 44.38811,14.03437 15.89438,5.60305 31.30619,12.6107 42.87768,18.0953 10.70931,5.07595 20.1471,10.33693 20.85386,9.60903 z"
         id="path4157"
         inkscape:connector-curvature="0"
         sodipodi:nodetypes="sssssss" />
      <path
         id="path4186"
         d="m 285.41016,208.06055 c 4.3731,13.26834 14.07607,27.60995 31.17187,42.24804 0,0 28.38095,17.87353 44.6543,21.58594 16.27334,3.71241 30.77789,7.58645 47.07617,8.47266 6.32174,0.34373 13.00994,0.11819 19.55273,-0.39844 -16.71501,-11.26783 -31.69063,-20.26308 -37.89257,-21.74219 -23.07985,-16.68159 -50.93999,-31.40739 -77.36719,-39.73437 -7.16227,-2.25677 -13.51876,-2.82303 -20.2793,-5.11524 -1.70848,-0.98639 -4.10635,-2.87795 -6.91601,-5.3164 z"
         style="opacity:1;fill:#c0c0c0;fill-opacity:1;stroke:none;stroke-width:17.60000038;stroke-miterlimit:4.80000019;stroke-dasharray:none;stroke-opacity:1"
         inkscape:connector-curvature="0" />
      <path
         id="path4271"
         d="m 400.29297,262.79297 a 72.14286,53.92857 0 0 1 -27.9707,11.67187 c 0.93252,0.21565 1.84668,0.41013 2.77343,0.6211 a 71.071426,41.42857 0 0 0 34.32813,-7.00977 c -3.31537,-2.01625 -6.38946,-3.80004 -9.13086,-5.2832 z"
         style="opacity:1;fill:#1a1a1a;fill-opacity:1;stroke:none;stroke-width:17.60000038;stroke-miterlimit:4.80000019;stroke-dasharray:none;stroke-opacity:1"
         inkscape:connector-curvature="0" />
      <path
         sodipodi:nodetypes="ssssssss"
         inkscape:connector-curvature="0"
         id="path4161"
         d="m 409.64368,328.43021 c -2.03375,26.55023 -59.87846,39.72803 -113.14591,27.51011 -53.61732,-12.29818 -93.30101,-53.86962 -91.26726,-80.41986 2.03376,-26.55025 23.43811,-53.09383 78.40583,-50.94618 0,0 32.96725,6.17394 47.42856,14.50907 14.46131,8.33512 27.73325,15.34899 40.29229,25.77443 12.55904,10.42545 24.40519,25.27262 31.97431,35.1322 7.56912,9.85959 6.82062,21.80267 6.31218,28.44023 z"
         style="opacity:1;fill:#d5d5d5;fill-opacity:0.99215686;stroke:none;stroke-width:17.60000038;stroke-miterlimit:4.80000019;stroke-dasharray:none;stroke-opacity:1" />
      <path
         id="path4194"
         d="m 197.48438,135.14453 c -17.57328,-2.3e-4 -31.81958,11.53183 -31.82032,25.75781 0.01,6.33097 2.89166,12.2492 7.7793,16.82032 a 18.687822,16.920055 0 0 1 2.32226,-0.15235 18.687822,16.920055 0 0 1 16.82813,9.5918 c 5.48057,5.58949 8.212,22.17598 9.67383,43.83984 a 86.368042,79.296974 0 0 0 2.28906,0.10547 86.368042,79.296974 0 0 0 70.08203,-33.07422 c -17.4338,-17.01077 -41.36319,-42.87274 -53.59179,-54.44336 l -0.0215,0.0254 c -6.02107,-5.38377 -14.56979,-8.45983 -23.54101,-8.4707 z"
         style="opacity:0.40500004;fill:url(#linearGradient4205);fill-opacity:1;stroke:none;stroke-width:17.60000038;stroke-miterlimit:4.80000019;stroke-dasharray:none;stroke-opacity:1"
         inkscape:connector-curvature="0" />
      <path
         style="opacity:0.40500004;fill:url(#linearGradient4215);fill-opacity:1;stroke:none;stroke-width:17.60000038;stroke-miterlimit:4.80000019;stroke-dasharray:none;stroke-opacity:1"
         d="m 197.48438,135.14453 c -17.57328,-2.3e-4 -31.81958,11.53183 -31.82032,25.75781 0.01,6.33097 2.89166,12.2492 7.7793,16.82032 a 18.687822,16.920055 0 0 1 2.32226,-0.15235 18.687822,16.920055 0 0 1 16.82813,9.5918 c 5.48057,5.58949 8.212,22.17598 9.67383,43.83984 a 86.368042,79.296974 0 0 0 2.28906,0.10547 86.368042,79.296974 0 0 0 70.08203,-33.07422 c -17.4338,-17.01077 -41.36319,-42.87274 -53.59179,-54.44336 l -0.0215,0.0254 c -6.02107,-5.38377 -14.56979,-8.45983 -23.54101,-8.4707 z"
         id="path4207"
         inkscape:connector-curvature="0" />
      <path
         sodipodi:nodetypes="ssssss"
         inkscape:connector-curvature="0"
         id="path4171"
         d="m 166.9018,167.03172 c 1.0517,-0.14326 8.04427,9.71852 7.64251,10.70096 -0.20088,0.49121 -1.3754,0.16575 -6.20101,1.88704 -4.82561,1.72127 -13.30234,5.48931 -13.6273,5.06973 -0.32497,-0.41958 1.75764,-6.54565 4.67525,-10.71436 2.9176,-4.16871 6.9847,-6.87173 7.51055,-6.94337 z"
         inkscape:transform-center-y="-0.8212689"
         inkscape:transform-center-x="-0.75975148"
         style="opacity:1;fill:#1a1a1a;fill-opacity:1;stroke:none;stroke-width:17.60000038;stroke-miterlimit:4.80000019;stroke-dasharray:none;stroke-opacity:1" />
      <path
         id="path4217"
         d="m 197.48438,135.14453 c -17.57328,-2.3e-4 -31.81958,11.53183 -31.82032,25.75781 0.01,6.33097 2.89166,12.2492 7.7793,16.82032 a 18.687822,16.920055 0 0 1 2.32226,-0.15235 18.687822,16.920055 0 0 1 16.82813,9.5918 c 5.48057,5.58949 8.212,22.17598 9.67383,43.83984 a 86.368042,79.296974 0 0 0 2.28906,0.10547 86.368042,79.296974 0 0 0 70.08203,-33.07422 c -17.4338,-17.01077 -41.36319,-42.87274 -53.59179,-54.44336 l -0.0215,0.0254 c -6.02107,-5.38377 -14.56979,-8.45983 -23.54101,-8.4707 z"
         style="opacity:0.40500004;fill:url(#linearGradient4225);fill-opacity:1;stroke:none;stroke-width:17.60000038;stroke-miterlimit:4.80000019;stroke-dasharray:none;stroke-opacity:1"
         inkscape:connector-curvature="0" />
      <path
         style="opacity:1;fill:#383838;fill-opacity:1;stroke:none;stroke-width:17.60000038;stroke-miterlimit:4.80000019;stroke-dasharray:none;stroke-opacity:1"
         inkscape:transform-center-x="0.024971299"
         inkscape:transform-center-y="-1.1233532"
         d="m 171.29568,173.56648 c 0.88589,-0.58463 3.65039,3.18376 3.24863,4.1662 -0.20088,0.49121 -1.3754,0.16575 -6.20101,1.88704 -4.82561,1.72127 -13.83618,5.36997 -13.44112,5.01561 0,0 0.35921,-0.57227 0.76362,-0.95016 0.57468,-0.53699 1.4539,-1.40892 2.35168,-2.09684 2.29265,-1.75674 2.12903,-1.61509 3.29263,-2.42835 1.1636,-0.81326 2.30577,-1.54584 3.37874,-2.22915 4.74933,-3.02453 6.60683,-3.36435 6.60683,-3.36435 z"
         id="path4176"
         inkscape:connector-curvature="0"
         sodipodi:nodetypes="sssssssss" />
      <path
         sodipodi:nodetypes="sssss"
         inkscape:connector-curvature="0"
         id="path4178"
         d="m 173.57651,174.86525 c -0.5859,1.22832 -1.14779,-2.43751 -4.91181,-3.84945 -3.76402,-1.41194 -5.86727,-1.3883 -5.28137,-2.61663 0.5859,-1.22831 4.53415,-4.5125 7.76311,-0.98151 2.71294,2.96671 3.01596,6.21926 2.43007,7.44759 z"
         style="opacity:1;fill:#e6e6e6;fill-opacity:1;stroke:none;stroke-width:17.60000038;stroke-miterlimit:4.80000019;stroke-dasharray:none;stroke-opacity:1" />
      <path
         id="path4181"
         d="m 524.91211,331.00781 a 24.748737,31.819805 28.752561 0 0 -22.8457,18 24.748737,31.819805 28.752561 0 0 -4.01172,25.44141 l 7.52539,3.21289 c 9.5217,4.06487 21.42722,-7.42183 25.00586,-17.13672 3.40643,-9.24737 2.92595,-25.39694 -5.67383,-29.51758 z"
         style="opacity:1;fill:#1a1a1a;fill-opacity:1;stroke:none;stroke-width:17.60000038;stroke-miterlimit:4.80000019;stroke-dasharray:none;stroke-opacity:1"
         inkscape:connector-curvature="0" />
      <path
         id="path4261"
         d="m 377.91797,249.98828 a 67.85714,60 0 0 1 -31.92774,11.15234 67.85714,60 0 0 0 19.72461,2.6504 67.85714,60 0 0 0 26.51172,-4.83985 c -0.83567,-0.31457 -1.60325,-0.56943 -2.2539,-0.72461 -3.88922,-2.81103 -7.92373,-5.55958 -12.05469,-8.23828 z"
         style="opacity:1;fill:#1a1a1a;fill-opacity:1;stroke:none;stroke-width:17.60000038;stroke-miterlimit:4.80000019;stroke-dasharray:none;stroke-opacity:1"
         inkscape:connector-curvature="0" />
      <path
         id="path4227"
         d="m 345.49805,247.36328 a 115,113.57143 0 0 1 -68.50586,99.5918 142.85715,146.42857 0 0 0 92.84179,-83.32422 c -7.79437,-6.27459 -15.87164,-11.3354 -24.33593,-16.26758 z"
         style="opacity:1;fill:#1a1a1a;fill-opacity:0.99215686;stroke:none;stroke-width:17.60000038;stroke-miterlimit:4.80000019;stroke-dasharray:none;stroke-opacity:1"
         inkscape:connector-curvature="0" />
      <path
         sodipodi:nodetypes="cccc"
         inkscape:connector-curvature="0"
         id="path4234"
         d="m 391.79883,285.6543 c -17.37229,32.36788 -45.89488,57.62108 -80.47656,71.25195 54.46978,-16.42479 71.96155,-30.10778 86.22265,-64.28516 -1.80263,-2.24347 -3.71799,-4.58038 -5.74609,-6.96679 z"
         style="opacity:1;fill:#1a1a1a;fill-opacity:0.99215686;stroke:none;stroke-width:17.60000038;stroke-miterlimit:4.80000019;stroke-dasharray:none;stroke-opacity:1" />
      <circle
         r="5.8928571"
         cy="158.85732"
         cx="184.78192"
         id="path4243"
         style="opacity:1;fill:#000000;fill-opacity:1;stroke:none;stroke-width:17.60000038;stroke-miterlimit:4.80000019;stroke-dasharray:none;stroke-opacity:1" />
      <circle
         style="opacity:1;fill:url(#radialGradient4253);fill-opacity:1;stroke:none;stroke-width:17.60000038;stroke-miterlimit:4.80000019;stroke-dasharray:none;stroke-opacity:1"
         id="circle4245"
         cx="184.78192"
         cy="158.85732"
         r="5.5771842" />
      <circle
         style="opacity:1;fill:#000000;fill-opacity:1;stroke:none;stroke-width:17.60000038;stroke-miterlimit:4.80000019;stroke-dasharray:none;stroke-opacity:1"
         id="circle4255"
         cx="184.78192"
         cy="158.85732"
         r="2.925534" />
      <circle
         r="0.90522891"
         cy="157.72089"
         cx="187.30731"
         id="circle4257"
         style="opacity:1;fill:#f9f9f9;fill-opacity:1;stroke:none;stroke-width:17.60000038;stroke-miterlimit:4.80000019;stroke-dasharray:none;stroke-opacity:1" />
    </g>
  </g>
</svg>
