<?xml version="1.0" encoding="utf-8"?>
<!-- Generator: Adobe Illustrator 21.0.0, SVG Export Plug-In . SVG Version: 6.00 Build 0)  -->
<svg version="1.1" id="Layer_1" xmlns="http://www.w3.org/2000/svg" xmlns:xlink="http://www.w3.org/1999/xlink" x="0px" y="0px"
	 viewBox="0 0 595.3 841.9" style="enable-background:new 0 0 595.3 841.9;" xml:space="preserve">
<style type="text/css">
	.st0{fill:#FFFFFF;}
	.st1{fill:#290F0F;}
	.st2{fill:#501918;}
	.st3{fill:#F37F81;}
	.st4{fill:#B4B4B4;}
	.st5{fill:#1A1A1A;}
	.st6{fill:#010101;}
	.st7{fill:#DEAB88;}
	.st8{fill:url(#path23856_1_);}
	.st9{fill:url(#path23860_1_);}
	.st10{fill:url(#path23864_1_);}
	.st11{fill:url(#path23866_1_);}
	.st12{fill:url(#path23868_1_);}
	.st13{fill:url(#path23872_1_);}
	.st14{fill:url(#path23874_1_);}
	.st15{fill:url(#circle23878_1_);}
	.st16{fill:url(#circle23880_1_);}
	.st17{fill:url(#path23884_1_);}
	.st18{fill:url(#path23886_1_);}
	.st19{fill:url(#circle23890_1_);}
	.st20{fill:url(#circle23892_1_);}
	.st21{fill:url(#path23894_1_);}
	.st22{fill:url(#path23896_1_);}
	.st23{fill:url(#circle23900_1_);}
	.st24{fill:url(#circle23902_1_);}
	.st25{fill:url(#path23904_1_);}
	.st26{fill:url(#path23908_1_);}
	.st27{fill:url(#path23912_1_);}
	.st28{fill:url(#path23914_1_);}
	.st29{fill:url(#path23916_1_);}
	.st30{fill:url(#path23920_1_);}
	.st31{fill:url(#path23922_1_);}
	.st32{fill:url(#circle23926_1_);}
	.st33{fill:url(#circle23928_1_);}
	.st34{fill:url(#path23932_1_);}
	.st35{fill:url(#path23934_1_);}
	.st36{fill:url(#circle23938_1_);}
	.st37{fill:url(#circle23940_1_);}
	.st38{fill:url(#path23942_1_);}
	.st39{fill:url(#path23944_1_);}
	.st40{fill:url(#circle23948_1_);}
	.st41{fill:url(#circle23950_1_);}
	.st42{fill:url(#path23952_1_);}
	.st43{fill:url(#path23956_1_);}
	.st44{fill:url(#path23960_1_);}
	.st45{fill:url(#path23962_1_);}
	.st46{fill:url(#path23964_1_);}
	.st47{fill:url(#path23968_1_);}
	.st48{fill:url(#path23970_1_);}
	.st49{fill:url(#circle23974_1_);}
	.st50{fill:url(#circle23976_1_);}
	.st51{fill:url(#path23980_1_);}
	.st52{fill:url(#path23982_1_);}
	.st53{fill:url(#circle23986_1_);}
	.st54{fill:url(#circle23988_1_);}
	.st55{fill:url(#path23990_1_);}
	.st56{fill:url(#path23992_1_);}
	.st57{fill:url(#circle23996_1_);}
	.st58{fill:url(#circle23998_1_);}
	.st59{fill:url(#path24000_1_);}
	.st60{fill:url(#path24004_1_);}
	.st61{fill:url(#path24008_1_);}
	.st62{fill:url(#path24010_1_);}
	.st63{fill:url(#path24012_1_);}
	.st64{fill:url(#path24016_1_);}
	.st65{fill:url(#path24018_1_);}
	.st66{fill:url(#circle24022_1_);}
	.st67{fill:url(#circle24024_1_);}
	.st68{fill:url(#path24028_1_);}
	.st69{fill:url(#path24030_1_);}
	.st70{fill:url(#circle24034_1_);}
	.st71{fill:url(#circle24036_1_);}
	.st72{fill:url(#path24038_1_);}
	.st73{fill:url(#path24040_1_);}
	.st74{fill:url(#circle24044_1_);}
	.st75{fill:url(#circle24046_1_);}
	.st76{fill:url(#path24048_1_);}
</style>
<path id="path23812" inkscape:connector-curvature="0" class="st0" d="M194,205.5c-8.4,0.4-17.8,2.9-22.7,10.2
	c-4.1,7.1,0.2,15.7,5.3,21c7.9,6.9,20.5,3.8,27.4-3.1c2-1.9,3.7-4.4,4.9-6.8c8.1,6.4,9.5,17.5,10.9,27.1
	c0.2,10.1-4.9,19.7-13.1,25.3c-7.2,5.2-16,7.5-22.7,13.5c-7.6,5.8-13.1,13.7-16.6,22.5c-6.6,16.2-2.6,35.6,9,48.5
	c13.5,15.7,34.8,23,55.1,22.1c8.3,0.2,16.6-0.5,24.9-0.3c5,1.2,9.9,2.8,15.2,2.8c9.3,0.3,18.3,2.9,27.1,5.9c9.9,3.3,20.5,3.8,30.8,3
	c11.5,0.1,23.2-1.8,33.4-7.5c7.7-3.5,14-10.2,22.5-11.8c4.2-0.8,8.6-2.7,12.6-0.5c12.2,3.7,24.2,8.1,36.8,10.1c2,0.5,3-1.9,1.5-3.2
	c-1.9-2.8-5.3-5.3-7.4-7.1c1.7,0,2.4,3.4,4.2,1.8c0.1-2.6-2.6-4.6-3.7-6.9c-10.8-15.8-21.7-32-35.8-45.2
	c-16.4-14-34.7-25.9-54.4-34.8c-13.7-6.4-30.1-8.5-44.3-2.5c-20.8,8.5-35.6,27.6-44.1,47.8c-3.6,9-6.6,18.7-5,28.5
	c-8,4.1-17.2,6.2-26.1,4.5c-16.8-2.1-33.4-13.6-37.6-30.6c-3.7-14.2,3.6-29.3,15.3-37.4c6.7-4.8,15-7.1,21.4-12.6
	c7.3-5.5,13.1-13,16.2-21.6c3.5-11.9,1.9-24.9-2.3-36.4c-4.4-12-15.4-20.4-27.5-23.7C201.7,206,197.8,205.5,194,205.5L194,205.5z"/>
<g id="g23814" transform="translate(-203.04069,317.18789)">
	<path id="path23816" inkscape:connector-curvature="0" class="st1" d="M543.9,71.8c-0.1,0,0.6,1.2,2.2,3.8c0.1,0.1,0-0.2,0-0.3
		l0.3-0.3C545,73,544,71.8,543.9,71.8z M546.5,75.1c7.3,9.7,29,40.2,50,69.7c-0.2,1.1-0.2,2.8-0.2,5.1c0,2.3-0.7,4.4-1.1,5.9
		c-17.1,8.6-52.9,25.7-78.1,38c-0.2-0.1-0.4-0.2-0.5-0.2c-2.6,0-4.7,7.2-4.7,16.2s2.1,16.2,4.7,16.2c-4.4-33.1,8.4,3.8,4.7-16.2
		c-0.8-4.3-1.4-9.4-2.4-12.8c27.1-13.2,57-26.3,81.2-39.5c2.9-1,6.1-3,6.1-6c0-3.9-3.4-7-6-8c-16.7-23.4-32.2-46.8-51.1-70.1
		c-0.1-0.1-0.2-0.1-0.3,0C548.9,73.4,546.5,75.1,546.5,75.1z"/>
	<path id="path23818" inkscape:connector-curvature="0" class="st2" d="M528.4,77.2l-3.3,0.2c-0.1,0-0.2,0.1-0.2,0.2
		c-1.3,5.1,3.1,57.6,5.1,89.9c-1.3,2.7-2.2,7.6-2.2,11.3c0,3.1,0.7,4.5,1.6,5.2c-2.6,27.1-3.9,57.5-5.8,86.2
		c-9.7-3.6-31.9-10-34.5-9.3c-0.8,0.2,13.1,5.9,12.5,7.9c-0.6,2-15.7,0.2-15.9,2.8c-0.2,2.6,19,0.1,19.2,2.1
		c0.2,2-18.6,8.5-17.8,8.7c3.1,0.9,40.8-8.2,41-10c0-0.5-0.8-1.4-0.8-2c2-28.7,4.8-58.1,6.2-86.2c1.3-0.7,2.3-2.5,2.3-6.4
		c0-3.7-0.8-8.2-2.1-10.6c-1.7-30.1-3.4-61.4-5.1-89.9C528.6,77.2,528.5,77.1,528.4,77.2L528.4,77.2z"/>
	<path id="path23820" inkscape:connector-curvature="0" class="st3" d="M396.8-111.7c-8.4,0.4-17.8,2.9-22.7,10.2
		c-2.1,3.7-2,7.7-0.7,11.6c2.7-2,5.1-3.1,8.6-4c2.4-0.7,3.3-1.2,4-2.4c0.5-0.8,1.5-1.7,2.3-1.9c3.4-0.9,5.9,4.1,3.4,6.7
		c-0.9,0.9-1.4,2.5-2.1,6.4c-0.8,4.2-1.2,5.9-3,8.2c7.1,1.5,15.2-1.5,20.3-6.7c2-1.9,3.7-4.4,4.9-6.8c8.1,6.4,9.5,17.5,10.9,27.1
		c0.2,10.1-4.9,19.7-13.1,25.3c-7.2,5.2-16,7.5-22.7,13.5C379.1-18.8,373.6-10.8,370-2c-6.6,16.2-2.6,35.6,9,48.5
		c13.5,15.7,34.8,23,55.1,22.1c8.3,0.2,16.6-0.5,24.9-0.3c5,1.2,9.9,2.8,15.2,2.8c9.3,0.3,18.3,2.9,27.1,5.9
		c9.9,3.3,20.5,3.8,30.8,3c11.5,0.1,23.2-1.8,33.4-7.5c7.7-3.5,14-10.2,22.5-11.8c4.2-0.8,8.6-2.7,12.6-0.5
		c12.2,3.7,24.2,8.1,36.8,10.1c2,0.5,3-1.9,1.5-3.2c-1.9-2.8-5.3-5.3-7.4-7.1c1.7,0,2.4,3.4,4.2,1.8c0.1-2.6-2.6-4.6-3.7-6.9
		c-10.8-15.8-21.7-32-35.8-45.2c-16.4-14-34.7-25.9-54.4-34.8c-13.7-6.4-30.1-8.5-44.3-2.5c-20.8,8.5-35.6,27.6-44.1,47.8
		c-3.6,9-6.6,18.7-5,28.5c-8,4.1-17.2,6.2-26.1,4.5C405.6,51,389,39.6,384.8,22.5c-3.7-14.2,3.6-29.3,15.3-37.4
		c6.7-4.8,15-7.1,21.4-12.6c7.3-5.5,13.1-13,16.2-21.6c3.5-11.9,1.9-24.9-2.3-36.4c-4.4-12-15.4-20.4-27.5-23.7
		C404.6-111.2,400.6-111.7,396.8-111.7L396.8-111.7z"/>
	<g id="g23822" transform="matrix(0.25375442,0,0,0.25375442,-1388.1804,-221.9886)">
		<path id="path23824" inkscape:connector-curvature="0" class="st4" d="M6997.3,507.9c-8.1,0-39.3,10.6-52,17.2l-5.2,5.1
			l-40.7,40.2c-2.3,0.9-3.9,2-4.2,3.3c-2.8,9.3,29.4,116.8,35,116.8c4.3,0,24.7-64.7,32.3-98l23.1-22.9l4.6-4.5
			c5.1-14.1,12-54,8.8-56.8C6998.8,508.1,6998.2,507.9,6997.3,507.9z"/>
		<path id="path23826" inkscape:connector-curvature="0" class="st5" d="M6926.6,598.9c-9,0-17.8,1.1-26.2,3.2
			c8.8,34.8,26,88.3,29.9,88.3c3.9,0,20.5-51.5,29.4-86.3C6949.3,600.7,6938,599,6926.6,598.9z"/>
	</g>
	<g id="g23828" transform="matrix(0.40789472,0,0,0.40789472,-1411.7511,-261.74271)">
		<circle id="circle23830" class="st6" cx="4413.7" cy="411.3" r="5"/>
		<circle id="circle23832" class="st0" cx="4414.5" cy="408.9" r="1.8"/>
	</g>
	<g id="g23834" transform="matrix(0.25375442,0,0,0.25375442,-1388.1804,-221.9886)">
		<path id="path23836" inkscape:connector-curvature="0" class="st4" d="M6997.3,507.9c-8.1,0-39.3,10.6-52,17.2l-5.2,5.1
			l-40.7,40.2c-2.3,0.9-3.9,2-4.2,3.3c-2.8,9.3,29.4,116.8,35,116.8c4.3,0,24.7-64.7,32.3-98l23.1-22.9l4.6-4.5
			c5.1-14.1,12-54,8.8-56.8C6998.8,508.1,6998.2,507.9,6997.3,507.9z"/>
		<path id="path23838" inkscape:connector-curvature="0" class="st5" d="M6926.6,598.9c-9,0-17.8,1.1-26.2,3.2
			c8.8,34.8,26,88.3,29.9,88.3c3.9,0,20.5-51.5,29.4-86.3C6949.3,600.7,6938,599,6926.6,598.9z"/>
	</g>
	<g id="g23840" transform="matrix(0.40789472,0,0,0.40789472,-1411.7511,-261.74271)">
		<circle id="circle23842" class="st6" cx="4413.7" cy="411.3" r="5"/>
		<circle id="circle23844" class="st0" cx="4414.5" cy="408.9" r="1.8"/>
	</g>
	<path id="path23846" inkscape:connector-curvature="0" class="st7" d="M387.4-93.1c-2.1,0-10,2.7-13.2,4.4l-1.3,1.3l-10.3,10.2
		c-0.6,0.2-1,0.5-1.1,0.8c-0.7,2.4,7.5,29.6,8.9,29.6c1.1,0,6.3-16.4,8.2-24.9l5.9-5.8l1.2-1.2c1.3-3.6,3-13.7,2.2-14.4
		C387.8-93.1,387.6-93.1,387.4-93.1L387.4-93.1z"/>
	<path id="path23848" inkscape:connector-curvature="0" class="st5" d="M378.3-82.3c-0.1,0-0.2,0-0.2,0.1c-2,2.3-4.2,4.6-6.7,6.4
		c-0.1,0.1-0.1,0.1-0.1,0.2c-0.1,0.8-0.1,1.6-0.3,2.5c-1.6,1-5.6,3.9-8.1,3.9c2.2,8.8,6.6,22.4,7.6,22.4c1,0,5.2-13.1,7.5-21.9
		c-5-0.1-5.3-3.6-6.3-4.5c0-0.5,0.3-1.5,0.4-2.2c2.5-1.9,4.6-4.1,6.6-6.4C378.8-82,378.7-82.3,378.3-82.3L378.3-82.3z"/>
	<g id="g23850" transform="matrix(0.40789472,0,0,0.40789472,-1411.7511,-261.74271)">
		<circle id="circle23852" class="st6" cx="4413.7" cy="411.3" r="5"/>
		<circle id="circle23854" class="st0" cx="4414.5" cy="408.9" r="1.8"/>
	</g>
	
		<linearGradient id="path23856_1_" gradientUnits="userSpaceOnUse" x1="835.2049" y1="1299.7319" x2="-1487.2671" y2="3365.4365" gradientTransform="matrix(9.729777e-02 0 0 -9.729777e-02 476.1598 216.9409)">
		<stop  offset="0" style="stop-color:#F15858"/>
		<stop  offset="1" style="stop-color:#B4B4B4;stop-opacity:0"/>
	</linearGradient>
	<path id="path23856" inkscape:connector-curvature="0" class="st8" d="M396.8-111.7c-8.4,0.4-17.8,2.9-22.7,10.2
		c-2.1,3.7-2,7.7-0.7,11.6c2.7-2,5.1-3.1,8.6-4c2.4-0.7,3.3-1.2,4-2.4c0.5-0.8,1.5-1.7,2.3-1.9c3.4-0.9,5.9,4.1,3.4,6.7
		c-0.9,0.9-1.4,2.5-2.1,6.4c-0.8,4.2-1.2,5.9-3,8.2c7.1,1.5,15.2-1.5,20.3-6.7c2-1.9,3.7-4.4,4.9-6.8c8.1,6.4,9.5,17.5,10.9,27.1
		c0.2,10.1-4.9,19.7-13.1,25.3c-7.2,5.2-16,7.5-22.7,13.5C379.1-18.8,373.6-10.8,370-2c-6.6,16.2-2.6,35.6,9,48.5
		c13.5,15.7,34.8,23,55.1,22.1c8.3,0.2,16.6-0.5,24.9-0.3c5,1.2,9.9,2.8,15.2,2.8c9.3,0.3,18.3,2.9,27.1,5.9
		c9.9,3.3,20.5,3.8,30.8,3c11.5,0.1,23.2-1.8,33.4-7.5c7.7-3.5,14-10.2,22.5-11.8c4.2-0.8,8.6-2.7,12.6-0.5
		c12.2,3.7,24.2,8.1,36.8,10.1c2,0.5,3-1.9,1.5-3.2c-1.9-2.8-5.3-5.3-7.4-7.1c1.7,0,2.4,3.4,4.2,1.8c0.1-2.6-2.6-4.6-3.7-6.9
		c-10.8-15.8-21.7-32-35.8-45.2c-16.4-14-34.7-25.9-54.4-34.8c-13.7-6.4-30.1-8.5-44.3-2.5c-20.8,8.5-35.6,27.6-44.1,47.8
		c-3.6,9-6.6,18.7-5,28.5c-8,4.1-17.2,6.2-26.1,4.5C405.6,51,389,39.6,384.8,22.5c-3.7-14.2,3.6-29.3,15.3-37.4
		c6.7-4.8,15-7.1,21.4-12.6c7.3-5.5,13.1-13,16.2-21.6c3.5-11.9,1.9-24.9-2.3-36.4c-4.4-12-15.4-20.4-27.5-23.7
		C404.6-111.2,400.6-111.7,396.8-111.7L396.8-111.7z"/>
</g>
<linearGradient id="path23860_1_" gradientUnits="userSpaceOnUse" x1="-4263.3765" y1="1357.3445" x2="-2278.7781" y2="2448.0703" gradientTransform="matrix(9.729777e-02 0 0 -9.729777e-02 463.2034 572.6567)">
	<stop  offset="0" style="stop-color:#A9CF38"/>
	<stop  offset="1" style="stop-color:#A9CF38;stop-opacity:0"/>
</linearGradient>
<path id="path23860" inkscape:connector-curvature="0" class="st9" d="M194,205.5c-8.4,0.4-17.8,2.9-22.7,10.2
	c-4.1,7.1,0.2,15.7,5.3,21c7.9,6.9,20.5,3.8,27.4-3.1c2-1.9,3.7-4.4,4.9-6.8c8.1,6.4,9.5,17.5,10.9,27.1
	c0.2,10.1-4.9,19.7-13.1,25.3c-7.2,5.2-16,7.5-22.7,13.5c-7.6,5.8-13.1,13.7-16.6,22.5c-6.6,16.2-2.6,35.6,9,48.5
	c13.5,15.7,34.8,23,55.1,22.1c8.3,0.2,16.6-0.5,24.9-0.3c5,1.2,9.9,2.8,15.2,2.8c9.3,0.3,18.3,2.9,27.1,5.9c9.9,3.3,20.5,3.8,30.8,3
	c11.5,0.1,23.2-1.8,33.4-7.5c7.7-3.5,14-10.2,22.5-11.8c4.2-0.8,8.6-2.7,12.6-0.5c12.2,3.7,24.2,8.1,36.8,10.1c2,0.5,3-1.9,1.5-3.2
	c-1.9-2.8-5.3-5.3-7.4-7.1c1.7,0,2.4,3.4,4.2,1.8c0.1-2.6-2.6-4.6-3.7-6.9c-10.8-15.8-21.7-32-35.8-45.2
	c-16.4-14-34.7-25.9-54.4-34.8c-13.7-6.4-30.1-8.5-44.3-2.5c-20.8,8.5-35.6,27.6-44.1,47.8c-3.6,9-6.6,18.7-5,28.5
	c-8,4.1-17.2,6.2-26.1,4.5c-16.8-2.1-33.4-13.6-37.6-30.6c-3.7-14.2,3.6-29.3,15.3-37.4c6.7-4.8,15-7.1,21.4-12.6
	c7.3-5.5,13.1-13,16.2-21.6c3.5-11.9,1.9-24.9-2.3-36.4c-4.4-12-15.4-20.4-27.5-23.7C201.7,206,197.8,205.5,194,205.5L194,205.5z"/>
<g id="g23862" transform="translate(-203.04069,317.18789)">
	
		<linearGradient id="path23864_1_" gradientUnits="userSpaceOnUse" x1="-4633.2129" y1="-906.5345" x2="-2648.6143" y2="184.1914" gradientTransform="matrix(9.729777e-02 0 0 -9.729777e-02 626.7333 255.4688)">
		<stop  offset="0" style="stop-color:#A9CF38"/>
		<stop  offset="1" style="stop-color:#A9CF38;stop-opacity:0"/>
	</linearGradient>
	<path id="path23864" inkscape:connector-curvature="0" class="st10" d="M543.9,71.8c-0.1,0,0.6,1.2,2.2,3.8c0.1,0.1,0-0.2,0-0.3
		l0.3-0.3C545,73,544,71.8,543.9,71.8z M546.5,75.1c7.3,9.7,29,40.2,50,69.7c-0.2,1.1-0.2,2.8-0.2,5.1c0,2.3-0.7,4.4-1.1,5.9
		c-17.1,8.6-52.9,25.7-78.1,38c-0.2-0.1-0.4-0.2-0.5-0.2c-2.6,0-4.7,7.2-4.7,16.2s2.1,16.2,4.7,16.2c-4.4-33.1,8.4,3.8,4.7-16.2
		c-0.8-4.3-1.4-9.4-2.4-12.8c27.1-13.2,57-26.3,81.2-39.5c2.9-1,6.1-3,6.1-6c0-3.9-3.4-7-6-8c-16.7-23.4-32.2-46.8-51.1-70.1
		c-0.1-0.1-0.2-0.1-0.3,0C548.9,73.4,546.5,75.1,546.5,75.1z"/>
	
		<linearGradient id="path23866_1_" gradientUnits="userSpaceOnUse" x1="-4529.0093" y1="-1096.1348" x2="-2544.4109" y2="-5.409" gradientTransform="matrix(9.729777e-02 0 0 -9.729777e-02 626.7333 255.4688)">
		<stop  offset="0" style="stop-color:#A9CF38"/>
		<stop  offset="1" style="stop-color:#A9CF38;stop-opacity:0"/>
	</linearGradient>
	<path id="path23866" inkscape:connector-curvature="0" class="st11" d="M528.4,77.2l-3.3,0.2c-0.1,0-0.2,0.1-0.2,0.2
		c-1.3,5.1,3.1,57.6,5.1,89.9c-1.3,2.7-2.2,7.6-2.2,11.3c0,3.1,0.7,4.5,1.6,5.2c-2.6,27.1-3.9,57.5-5.8,86.2
		c-9.7-3.6-31.9-10-34.5-9.3c-0.8,0.2,13.1,5.9,12.5,7.9c-0.6,2-15.7,0.2-15.9,2.8c-0.2,2.6,19,0.1,19.2,2.1
		c0.2,2-18.6,8.5-17.8,8.7c3.1,0.9,40.8-8.2,41-10c0-0.5-0.8-1.4-0.8-2c2-28.7,4.8-58.1,6.2-86.2c1.3-0.7,2.3-2.5,2.3-6.4
		c0-3.7-0.8-8.2-2.1-10.6c-1.7-30.1-3.4-61.4-5.1-89.9C528.6,77.2,528.5,77.1,528.4,77.2L528.4,77.2z"/>
	
		<linearGradient id="path23868_1_" gradientUnits="userSpaceOnUse" x1="-5409.2734" y1="505.524" x2="-3424.6748" y2="1596.2499" gradientTransform="matrix(9.729777e-02 0 0 -9.729777e-02 626.7333 255.4688)">
		<stop  offset="0" style="stop-color:#A9CF38"/>
		<stop  offset="1" style="stop-color:#A9CF38;stop-opacity:0"/>
	</linearGradient>
	<path id="path23868" inkscape:connector-curvature="0" class="st12" d="M396.8-111.7c-8.4,0.4-17.8,2.9-22.7,10.2
		c-2.1,3.7-2,7.7-0.7,11.6c2.7-2,5.1-3.1,8.6-4c2.4-0.7,3.3-1.2,4-2.4c0.5-0.8,1.5-1.7,2.3-1.9c3.4-0.9,5.9,4.1,3.4,6.7
		c-0.9,0.9-1.4,2.5-2.1,6.4c-0.8,4.2-1.2,5.9-3,8.2c7.1,1.5,15.2-1.5,20.3-6.7c2-1.9,3.7-4.4,4.9-6.8c8.1,6.4,9.5,17.5,10.9,27.1
		c0.2,10.1-4.9,19.7-13.1,25.3c-7.2,5.2-16,7.5-22.7,13.5C379.1-18.8,373.6-10.8,370-2c-6.6,16.2-2.6,35.6,9,48.5
		c13.5,15.7,34.8,23,55.1,22.1c8.3,0.2,16.6-0.5,24.9-0.3c5,1.2,9.9,2.8,15.2,2.8c9.3,0.3,18.3,2.9,27.1,5.9
		c9.9,3.3,20.5,3.8,30.8,3c11.5,0.1,23.2-1.8,33.4-7.5c7.7-3.5,14-10.2,22.5-11.8c4.2-0.8,8.6-2.7,12.6-0.5
		c12.2,3.7,24.2,8.1,36.8,10.1c2,0.5,3-1.9,1.5-3.2c-1.9-2.8-5.3-5.3-7.4-7.1c1.7,0,2.4,3.4,4.2,1.8c0.1-2.6-2.6-4.6-3.7-6.9
		c-10.8-15.8-21.7-32-35.8-45.2c-16.4-14-34.7-25.9-54.4-34.8c-13.7-6.4-30.1-8.5-44.3-2.5c-20.8,8.5-35.6,27.6-44.1,47.8
		c-3.6,9-6.6,18.7-5,28.5c-8,4.1-17.2,6.2-26.1,4.5C405.6,51,389,39.6,384.8,22.5c-3.7-14.2,3.6-29.3,15.3-37.4
		c6.7-4.8,15-7.1,21.4-12.6c7.3-5.5,13.1-13,16.2-21.6c3.5-11.9,1.9-24.9-2.3-36.4c-4.4-12-15.4-20.4-27.5-23.7
		C404.6-111.2,400.6-111.7,396.8-111.7L396.8-111.7z"/>
	<g id="g23870" transform="matrix(0.25375442,0,0,0.25375442,-1388.1804,-221.9886)">
		
			<linearGradient id="path23872_1_" gradientUnits="userSpaceOnUse" x1="-44305.5859" y1="27347.2559" x2="-42320.9883" y2="28437.9824" gradientTransform="matrix(2.468974e-02 0 0 -2.468974e-02 7331.4629 1667.8898)">
			<stop  offset="0" style="stop-color:#A9CF38"/>
			<stop  offset="1" style="stop-color:#A9CF38;stop-opacity:0"/>
		</linearGradient>
		<path id="path23872" inkscape:connector-curvature="0" class="st13" d="M6997.3,507.9c-8.1,0-39.3,10.6-52,17.2l-5.2,5.1
			l-40.7,40.2c-2.3,0.9-3.9,2-4.2,3.3c-2.8,9.3,29.4,116.8,35,116.8c4.3,0,24.7-64.7,32.3-98l23.1-22.9l4.6-4.5
			c5.1-14.1,12-54,8.8-56.8C6998.8,508.1,6998.2,507.9,6997.3,507.9z"/>
		
			<linearGradient id="path23874_1_" gradientUnits="userSpaceOnUse" x1="-43858.5156" y1="26533.8066" x2="-41873.918" y2="27624.5332" gradientTransform="matrix(2.468974e-02 0 0 -2.468974e-02 7331.4629 1667.8898)">
			<stop  offset="0" style="stop-color:#A9CF38"/>
			<stop  offset="1" style="stop-color:#A9CF38;stop-opacity:0"/>
		</linearGradient>
		<path id="path23874" inkscape:connector-curvature="0" class="st14" d="M6926.6,598.9c-9,0-17.8,1.1-26.2,3.2
			c8.8,34.8,26,88.3,29.9,88.3c3.9,0,20.5-51.5,29.4-86.3C6949.3,600.7,6938,599,6926.6,598.9z"/>
	</g>
	<g id="g23876" transform="matrix(0.40789472,0,0,0.40789472,-1411.7511,-261.74271)">
		
			<linearGradient id="circle23878_1_" gradientUnits="userSpaceOnUse" x1="-24301.75" y1="7349.8979" x2="-22317.1523" y2="8440.624" gradientTransform="matrix(3.968725e-02 0 0 -3.968725e-02 4552.2759 1156.9098)">
			<stop  offset="0" style="stop-color:#A9CF38"/>
			<stop  offset="1" style="stop-color:#A9CF38;stop-opacity:0"/>
		</linearGradient>
		<circle id="circle23878" class="st15" cx="4413.7" cy="411.3" r="5"/>
		
			<linearGradient id="circle23880_1_" gradientUnits="userSpaceOnUse" x1="-24321.9355" y1="7386.623" x2="-22337.3359" y2="8477.3486" gradientTransform="matrix(3.968725e-02 0 0 -3.968725e-02 4552.2759 1156.9098)">
			<stop  offset="0" style="stop-color:#A9CF38"/>
			<stop  offset="1" style="stop-color:#A9CF38;stop-opacity:0"/>
		</linearGradient>
		<circle id="circle23880" class="st16" cx="4414.5" cy="408.9" r="1.8"/>
	</g>
	<g id="g23882" transform="matrix(0.25375442,0,0,0.25375442,-1388.1804,-221.9886)">
		
			<linearGradient id="path23884_1_" gradientUnits="userSpaceOnUse" x1="-44305.5859" y1="27347.2559" x2="-42320.9883" y2="28437.9824" gradientTransform="matrix(2.468974e-02 0 0 -2.468974e-02 7331.4629 1667.8898)">
			<stop  offset="0" style="stop-color:#A9CF38"/>
			<stop  offset="1" style="stop-color:#A9CF38;stop-opacity:0"/>
		</linearGradient>
		<path id="path23884" inkscape:connector-curvature="0" class="st17" d="M6997.3,507.9c-8.1,0-39.3,10.6-52,17.2l-5.2,5.1
			l-40.7,40.2c-2.3,0.9-3.9,2-4.2,3.3c-2.8,9.3,29.4,116.8,35,116.8c4.3,0,24.7-64.7,32.3-98l23.1-22.9l4.6-4.5
			c5.1-14.1,12-54,8.8-56.8C6998.8,508.1,6998.2,507.9,6997.3,507.9z"/>
		
			<linearGradient id="path23886_1_" gradientUnits="userSpaceOnUse" x1="-43858.5156" y1="26533.8066" x2="-41873.918" y2="27624.5332" gradientTransform="matrix(2.468974e-02 0 0 -2.468974e-02 7331.4629 1667.8898)">
			<stop  offset="0" style="stop-color:#A9CF38"/>
			<stop  offset="1" style="stop-color:#A9CF38;stop-opacity:0"/>
		</linearGradient>
		<path id="path23886" inkscape:connector-curvature="0" class="st18" d="M6926.6,598.9c-9,0-17.8,1.1-26.2,3.2
			c8.8,34.8,26,88.3,29.9,88.3c3.9,0,20.5-51.5,29.4-86.3C6949.3,600.7,6938,599,6926.6,598.9z"/>
	</g>
	<g id="g23888" transform="matrix(0.40789472,0,0,0.40789472,-1411.7511,-261.74271)">
		
			<linearGradient id="circle23890_1_" gradientUnits="userSpaceOnUse" x1="-24301.75" y1="7349.8979" x2="-22317.1523" y2="8440.624" gradientTransform="matrix(3.968725e-02 0 0 -3.968725e-02 4552.2759 1156.9098)">
			<stop  offset="0" style="stop-color:#A9CF38"/>
			<stop  offset="1" style="stop-color:#A9CF38;stop-opacity:0"/>
		</linearGradient>
		<circle id="circle23890" class="st19" cx="4413.7" cy="411.3" r="5"/>
		
			<linearGradient id="circle23892_1_" gradientUnits="userSpaceOnUse" x1="-24321.9355" y1="7386.623" x2="-22337.3359" y2="8477.3486" gradientTransform="matrix(3.968725e-02 0 0 -3.968725e-02 4552.2759 1156.9098)">
			<stop  offset="0" style="stop-color:#A9CF38"/>
			<stop  offset="1" style="stop-color:#A9CF38;stop-opacity:0"/>
		</linearGradient>
		<circle id="circle23892" class="st20" cx="4414.5" cy="408.9" r="1.8"/>
	</g>
	
		<linearGradient id="path23894_1_" gradientUnits="userSpaceOnUse" x1="-5949.8003" y1="1489.024" x2="-3965.2019" y2="2579.75" gradientTransform="matrix(9.729777e-02 0 0 -9.729777e-02 626.7333 255.4688)">
		<stop  offset="0" style="stop-color:#A9CF38"/>
		<stop  offset="1" style="stop-color:#A9CF38;stop-opacity:0"/>
	</linearGradient>
	<path id="path23894" inkscape:connector-curvature="0" class="st21" d="M387.4-93.1c-2.1,0-10,2.7-13.2,4.4l-1.3,1.3l-10.3,10.2
		c-0.6,0.2-1,0.5-1.1,0.8c-0.7,2.4,7.5,29.6,8.9,29.6c1.1,0,6.3-16.4,8.2-24.9l5.9-5.8l1.2-1.2c1.3-3.6,3-13.7,2.2-14.4
		C387.8-93.1,387.6-93.1,387.4-93.1L387.4-93.1z"/>
	
		<linearGradient id="path23896_1_" gradientUnits="userSpaceOnUse" x1="-5931.1128" y1="1455.022" x2="-3946.5144" y2="2545.7478" gradientTransform="matrix(9.729777e-02 0 0 -9.729777e-02 626.7333 255.4688)">
		<stop  offset="0" style="stop-color:#A9CF38"/>
		<stop  offset="1" style="stop-color:#A9CF38;stop-opacity:0"/>
	</linearGradient>
	<path id="path23896" inkscape:connector-curvature="0" class="st22" d="M378.3-82.3c-0.1,0-0.2,0-0.2,0.1c-2,2.3-4.2,4.6-6.7,6.4
		c-0.1,0.1-0.1,0.1-0.1,0.2c-0.1,0.8-0.1,1.6-0.3,2.5c-1.6,1-5.6,3.9-8.1,3.9c2.2,8.8,6.6,22.4,7.6,22.4c1,0,5.2-13.1,7.5-21.9
		c-5-0.1-5.3-3.6-6.3-4.5c0-0.5,0.3-1.5,0.4-2.2c2.5-1.9,4.6-4.1,6.6-6.4C378.8-82,378.7-82.3,378.3-82.3L378.3-82.3z"/>
	<g id="g23898" transform="matrix(0.40789472,0,0,0.40789472,-1411.7511,-261.74271)">
		
			<linearGradient id="circle23900_1_" gradientUnits="userSpaceOnUse" x1="-24301.75" y1="7349.8979" x2="-22317.1523" y2="8440.624" gradientTransform="matrix(3.968725e-02 0 0 -3.968725e-02 4552.2759 1156.9098)">
			<stop  offset="0" style="stop-color:#A9CF38"/>
			<stop  offset="1" style="stop-color:#A9CF38;stop-opacity:0"/>
		</linearGradient>
		<circle id="circle23900" class="st23" cx="4413.7" cy="411.3" r="5"/>
		
			<linearGradient id="circle23902_1_" gradientUnits="userSpaceOnUse" x1="-24321.9355" y1="7386.623" x2="-22337.3359" y2="8477.3486" gradientTransform="matrix(3.968725e-02 0 0 -3.968725e-02 4552.2759 1156.9098)">
			<stop  offset="0" style="stop-color:#A9CF38"/>
			<stop  offset="1" style="stop-color:#A9CF38;stop-opacity:0"/>
		</linearGradient>
		<circle id="circle23902" class="st24" cx="4414.5" cy="408.9" r="1.8"/>
	</g>
	
		<linearGradient id="path23904_1_" gradientUnits="userSpaceOnUse" x1="-2562.261" y1="332.012" x2="-1765.9644" y2="1804.157" gradientTransform="matrix(9.729777e-02 0 0 -9.729777e-02 626.7333 255.4688)">
		<stop  offset="0" style="stop-color:#A9CF38"/>
		<stop  offset="1" style="stop-color:#A9CF38;stop-opacity:0"/>
	</linearGradient>
	<path id="path23904" inkscape:connector-curvature="0" class="st25" d="M396.8-111.7c-8.4,0.4-17.8,2.9-22.7,10.2
		c-2.1,3.7-2,7.7-0.7,11.6c2.7-2,5.1-3.1,8.6-4c2.4-0.7,3.3-1.2,4-2.4c0.5-0.8,1.5-1.7,2.3-1.9c3.4-0.9,5.9,4.1,3.4,6.7
		c-0.9,0.9-1.4,2.5-2.1,6.4c-0.8,4.2-1.2,5.9-3,8.2c7.1,1.5,15.2-1.5,20.3-6.7c2-1.9,3.7-4.4,4.9-6.8c8.1,6.4,9.5,17.5,10.9,27.1
		c0.2,10.1-4.9,19.7-13.1,25.3c-7.2,5.2-16,7.5-22.7,13.5C379.1-18.8,373.6-10.8,370-2c-6.6,16.2-2.6,35.6,9,48.5
		c13.5,15.7,34.8,23,55.1,22.1c8.3,0.2,16.6-0.5,24.9-0.3c5,1.2,9.9,2.8,15.2,2.8c9.3,0.3,18.3,2.9,27.1,5.9
		c9.9,3.3,20.5,3.8,30.8,3c11.5,0.1,23.2-1.8,33.4-7.5c7.7-3.5,14-10.2,22.5-11.8c4.2-0.8,8.6-2.7,12.6-0.5
		c12.2,3.7,24.2,8.1,36.8,10.1c2,0.5,3-1.9,1.5-3.2c-1.9-2.8-5.3-5.3-7.4-7.1c1.7,0,2.4,3.4,4.2,1.8c0.1-2.6-2.6-4.6-3.7-6.9
		c-10.8-15.8-21.7-32-35.8-45.2c-16.4-14-34.7-25.9-54.4-34.8c-13.7-6.4-30.1-8.5-44.3-2.5c-20.8,8.5-35.6,27.6-44.1,47.8
		c-3.6,9-6.6,18.7-5,28.5c-8,4.1-17.2,6.2-26.1,4.5C405.6,51,389,39.6,384.8,22.5c-3.7-14.2,3.6-29.3,15.3-37.4
		c6.7-4.8,15-7.1,21.4-12.6c7.3-5.5,13.1-13,16.2-21.6c3.5-11.9,1.9-24.9-2.3-36.4c-4.4-12-15.4-20.4-27.5-23.7
		C404.6-111.2,400.6-111.7,396.8-111.7L396.8-111.7z"/>
</g>
<linearGradient id="path23908_1_" gradientUnits="userSpaceOnUse" x1="-4263.3765" y1="1357.3445" x2="-2278.7781" y2="2448.0703" gradientTransform="matrix(9.729777e-02 0 0 -9.729777e-02 463.2034 572.6567)">
	<stop  offset="0" style="stop-color:#A9CF38"/>
	<stop  offset="1" style="stop-color:#A9CF38;stop-opacity:0"/>
</linearGradient>
<path id="path23908" inkscape:connector-curvature="0" class="st26" d="M194,205.5c-8.4,0.4-17.8,2.9-22.7,10.2
	c-4.1,7.1,0.2,15.7,5.3,21c7.9,6.9,20.5,3.8,27.4-3.1c2-1.9,3.7-4.4,4.9-6.8c8.1,6.4,9.5,17.5,10.9,27.1
	c0.2,10.1-4.9,19.7-13.1,25.3c-7.2,5.2-16,7.5-22.7,13.5c-7.6,5.8-13.1,13.7-16.6,22.5c-6.6,16.2-2.6,35.6,9,48.5
	c13.5,15.7,34.8,23,55.1,22.1c8.3,0.2,16.6-0.5,24.9-0.3c5,1.2,9.9,2.8,15.2,2.8c9.3,0.3,18.3,2.9,27.1,5.9c9.9,3.3,20.5,3.8,30.8,3
	c11.5,0.1,23.2-1.8,33.4-7.5c7.7-3.5,14-10.2,22.5-11.8c4.2-0.8,8.6-2.7,12.6-0.5c12.2,3.7,24.2,8.1,36.8,10.1c2,0.5,3-1.9,1.5-3.2
	c-1.9-2.8-5.3-5.3-7.4-7.1c1.7,0,2.4,3.4,4.2,1.8c0.1-2.6-2.6-4.6-3.7-6.9c-10.8-15.8-21.7-32-35.8-45.2
	c-16.4-14-34.7-25.9-54.4-34.8c-13.7-6.4-30.1-8.5-44.3-2.5c-20.8,8.5-35.6,27.6-44.1,47.8c-3.6,9-6.6,18.7-5,28.5
	c-8,4.1-17.2,6.2-26.1,4.5c-16.8-2.1-33.4-13.6-37.6-30.6c-3.7-14.2,3.6-29.3,15.3-37.4c6.7-4.8,15-7.1,21.4-12.6
	c7.3-5.5,13.1-13,16.2-21.6c3.5-11.9,1.9-24.9-2.3-36.4c-4.4-12-15.4-20.4-27.5-23.7C201.7,206,197.8,205.5,194,205.5L194,205.5z"/>
<g id="g23910" transform="translate(-203.04069,317.18789)">
	
		<linearGradient id="path23912_1_" gradientUnits="userSpaceOnUse" x1="-4633.2129" y1="-906.5345" x2="-2648.6143" y2="184.1914" gradientTransform="matrix(9.729777e-02 0 0 -9.729777e-02 626.7333 255.4688)">
		<stop  offset="0" style="stop-color:#A9CF38"/>
		<stop  offset="1" style="stop-color:#A9CF38;stop-opacity:0"/>
	</linearGradient>
	<path id="path23912" inkscape:connector-curvature="0" class="st27" d="M543.9,71.8c-0.1,0,0.6,1.2,2.2,3.8c0.1,0.1,0-0.2,0-0.3
		l0.3-0.3C545,73,544,71.8,543.9,71.8z M546.5,75.1c7.3,9.7,29,40.2,50,69.7c-0.2,1.1-0.2,2.8-0.2,5.1c0,2.3-0.7,4.4-1.1,5.9
		c-17.1,8.6-52.9,25.7-78.1,38c-0.2-0.1-0.4-0.2-0.5-0.2c-2.6,0-4.7,7.2-4.7,16.2s2.1,16.2,4.7,16.2c-4.4-33.1,8.4,3.8,4.7-16.2
		c-0.8-4.3-1.4-9.4-2.4-12.8c27.1-13.2,57-26.3,81.2-39.5c2.9-1,6.1-3,6.1-6c0-3.9-3.4-7-6-8c-16.7-23.4-32.2-46.8-51.1-70.1
		c-0.1-0.1-0.2-0.1-0.3,0C548.9,73.4,546.5,75.1,546.5,75.1z"/>
	
		<linearGradient id="path23914_1_" gradientUnits="userSpaceOnUse" x1="-4529.0093" y1="-1096.1348" x2="-2544.4109" y2="-5.409" gradientTransform="matrix(9.729777e-02 0 0 -9.729777e-02 626.7333 255.4688)">
		<stop  offset="0" style="stop-color:#A9CF38"/>
		<stop  offset="1" style="stop-color:#A9CF38;stop-opacity:0"/>
	</linearGradient>
	<path id="path23914" inkscape:connector-curvature="0" class="st28" d="M528.4,77.2l-3.3,0.2c-0.1,0-0.2,0.1-0.2,0.2
		c-1.3,5.1,3.1,57.6,5.1,89.9c-1.3,2.7-2.2,7.6-2.2,11.3c0,3.1,0.7,4.5,1.6,5.2c-2.6,27.1-3.9,57.5-5.8,86.2
		c-9.7-3.6-31.9-10-34.5-9.3c-0.8,0.2,13.1,5.9,12.5,7.9c-0.6,2-15.7,0.2-15.9,2.8c-0.2,2.6,19,0.1,19.2,2.1
		c0.2,2-18.6,8.5-17.8,8.7c3.1,0.9,40.8-8.2,41-10c0-0.5-0.8-1.4-0.8-2c2-28.7,4.8-58.1,6.2-86.2c1.3-0.7,2.3-2.5,2.3-6.4
		c0-3.7-0.8-8.2-2.1-10.6c-1.7-30.1-3.4-61.4-5.1-89.9C528.6,77.2,528.5,77.1,528.4,77.2L528.4,77.2z"/>
	
		<linearGradient id="path23916_1_" gradientUnits="userSpaceOnUse" x1="-5409.2734" y1="505.524" x2="-3424.6748" y2="1596.2499" gradientTransform="matrix(9.729777e-02 0 0 -9.729777e-02 626.7333 255.4688)">
		<stop  offset="0" style="stop-color:#A9CF38"/>
		<stop  offset="1" style="stop-color:#A9CF38;stop-opacity:0"/>
	</linearGradient>
	<path id="path23916" inkscape:connector-curvature="0" class="st29" d="M396.8-111.7c-8.4,0.4-17.8,2.9-22.7,10.2
		c-2.1,3.7-2,7.7-0.7,11.6c2.7-2,5.1-3.1,8.6-4c2.4-0.7,3.3-1.2,4-2.4c0.5-0.8,1.5-1.7,2.3-1.9c3.4-0.9,5.9,4.1,3.4,6.7
		c-0.9,0.9-1.4,2.5-2.1,6.4c-0.8,4.2-1.2,5.9-3,8.2c7.1,1.5,15.2-1.5,20.3-6.7c2-1.9,3.7-4.4,4.9-6.8c8.1,6.4,9.5,17.5,10.9,27.1
		c0.2,10.1-4.9,19.7-13.1,25.3c-7.2,5.2-16,7.5-22.7,13.5C379.1-18.8,373.6-10.8,370-2c-6.6,16.2-2.6,35.6,9,48.5
		c13.5,15.7,34.8,23,55.1,22.1c8.3,0.2,16.6-0.5,24.9-0.3c5,1.2,9.9,2.8,15.2,2.8c9.3,0.3,18.3,2.9,27.1,5.9
		c9.9,3.3,20.5,3.8,30.8,3c11.5,0.1,23.2-1.8,33.4-7.5c7.7-3.5,14-10.2,22.5-11.8c4.2-0.8,8.6-2.7,12.6-0.5
		c12.2,3.7,24.2,8.1,36.8,10.1c2,0.5,3-1.9,1.5-3.2c-1.9-2.8-5.3-5.3-7.4-7.1c1.7,0,2.4,3.4,4.2,1.8c0.1-2.6-2.6-4.6-3.7-6.9
		c-10.8-15.8-21.7-32-35.8-45.2c-16.4-14-34.7-25.9-54.4-34.8c-13.7-6.4-30.1-8.5-44.3-2.5c-20.8,8.5-35.6,27.6-44.1,47.8
		c-3.6,9-6.6,18.7-5,28.5c-8,4.1-17.2,6.2-26.1,4.5C405.6,51,389,39.6,384.8,22.5c-3.7-14.2,3.6-29.3,15.3-37.4
		c6.7-4.8,15-7.1,21.4-12.6c7.3-5.5,13.1-13,16.2-21.6c3.5-11.9,1.9-24.9-2.3-36.4c-4.4-12-15.4-20.4-27.5-23.7
		C404.6-111.2,400.6-111.7,396.8-111.7L396.8-111.7z"/>
	<g id="g23918" transform="matrix(0.25375442,0,0,0.25375442,-1388.1804,-221.9886)">
		
			<linearGradient id="path23920_1_" gradientUnits="userSpaceOnUse" x1="-44305.5859" y1="27347.2559" x2="-42320.9883" y2="28437.9824" gradientTransform="matrix(2.468974e-02 0 0 -2.468974e-02 7331.4629 1667.8898)">
			<stop  offset="0" style="stop-color:#A9CF38"/>
			<stop  offset="1" style="stop-color:#A9CF38;stop-opacity:0"/>
		</linearGradient>
		<path id="path23920" inkscape:connector-curvature="0" class="st30" d="M6997.3,507.9c-8.1,0-39.3,10.6-52,17.2l-5.2,5.1
			l-40.7,40.2c-2.3,0.9-3.9,2-4.2,3.3c-2.8,9.3,29.4,116.8,35,116.8c4.3,0,24.7-64.7,32.3-98l23.1-22.9l4.6-4.5
			c5.1-14.1,12-54,8.8-56.8C6998.8,508.1,6998.2,507.9,6997.3,507.9z"/>
		
			<linearGradient id="path23922_1_" gradientUnits="userSpaceOnUse" x1="-43858.5156" y1="26533.8066" x2="-41873.918" y2="27624.5332" gradientTransform="matrix(2.468974e-02 0 0 -2.468974e-02 7331.4629 1667.8898)">
			<stop  offset="0" style="stop-color:#A9CF38"/>
			<stop  offset="1" style="stop-color:#A9CF38;stop-opacity:0"/>
		</linearGradient>
		<path id="path23922" inkscape:connector-curvature="0" class="st31" d="M6926.6,598.9c-9,0-17.8,1.1-26.2,3.2
			c8.8,34.8,26,88.3,29.9,88.3c3.9,0,20.5-51.5,29.4-86.3C6949.3,600.7,6938,599,6926.6,598.9z"/>
	</g>
	<g id="g23924" transform="matrix(0.40789472,0,0,0.40789472,-1411.7511,-261.74271)">
		
			<linearGradient id="circle23926_1_" gradientUnits="userSpaceOnUse" x1="-24301.75" y1="7349.8979" x2="-22317.1523" y2="8440.624" gradientTransform="matrix(3.968725e-02 0 0 -3.968725e-02 4552.2759 1156.9098)">
			<stop  offset="0" style="stop-color:#A9CF38"/>
			<stop  offset="1" style="stop-color:#A9CF38;stop-opacity:0"/>
		</linearGradient>
		<circle id="circle23926" class="st32" cx="4413.7" cy="411.3" r="5"/>
		
			<linearGradient id="circle23928_1_" gradientUnits="userSpaceOnUse" x1="-24321.9355" y1="7386.623" x2="-22337.3359" y2="8477.3486" gradientTransform="matrix(3.968725e-02 0 0 -3.968725e-02 4552.2759 1156.9098)">
			<stop  offset="0" style="stop-color:#A9CF38"/>
			<stop  offset="1" style="stop-color:#A9CF38;stop-opacity:0"/>
		</linearGradient>
		<circle id="circle23928" class="st33" cx="4414.5" cy="408.9" r="1.8"/>
	</g>
	<g id="g23930" transform="matrix(0.25375442,0,0,0.25375442,-1388.1804,-221.9886)">
		
			<linearGradient id="path23932_1_" gradientUnits="userSpaceOnUse" x1="-44305.5859" y1="27347.2559" x2="-42320.9883" y2="28437.9824" gradientTransform="matrix(2.468974e-02 0 0 -2.468974e-02 7331.4629 1667.8898)">
			<stop  offset="0" style="stop-color:#A9CF38"/>
			<stop  offset="1" style="stop-color:#A9CF38;stop-opacity:0"/>
		</linearGradient>
		<path id="path23932" inkscape:connector-curvature="0" class="st34" d="M6997.3,507.9c-8.1,0-39.3,10.6-52,17.2l-5.2,5.1
			l-40.7,40.2c-2.3,0.9-3.9,2-4.2,3.3c-2.8,9.3,29.4,116.8,35,116.8c4.3,0,24.7-64.7,32.3-98l23.1-22.9l4.6-4.5
			c5.1-14.1,12-54,8.8-56.8C6998.8,508.1,6998.2,507.9,6997.3,507.9z"/>
		
			<linearGradient id="path23934_1_" gradientUnits="userSpaceOnUse" x1="-43858.5156" y1="26533.8066" x2="-41873.918" y2="27624.5332" gradientTransform="matrix(2.468974e-02 0 0 -2.468974e-02 7331.4629 1667.8898)">
			<stop  offset="0" style="stop-color:#A9CF38"/>
			<stop  offset="1" style="stop-color:#A9CF38;stop-opacity:0"/>
		</linearGradient>
		<path id="path23934" inkscape:connector-curvature="0" class="st35" d="M6926.6,598.9c-9,0-17.8,1.1-26.2,3.2
			c8.8,34.8,26,88.3,29.9,88.3c3.9,0,20.5-51.5,29.4-86.3C6949.3,600.7,6938,599,6926.6,598.9z"/>
	</g>
	<g id="g23936" transform="matrix(0.40789472,0,0,0.40789472,-1411.7511,-261.74271)">
		
			<linearGradient id="circle23938_1_" gradientUnits="userSpaceOnUse" x1="-24301.75" y1="7349.8979" x2="-22317.1523" y2="8440.624" gradientTransform="matrix(3.968725e-02 0 0 -3.968725e-02 4552.2759 1156.9098)">
			<stop  offset="0" style="stop-color:#A9CF38"/>
			<stop  offset="1" style="stop-color:#A9CF38;stop-opacity:0"/>
		</linearGradient>
		<circle id="circle23938" class="st36" cx="4413.7" cy="411.3" r="5"/>
		
			<linearGradient id="circle23940_1_" gradientUnits="userSpaceOnUse" x1="-24321.9355" y1="7386.623" x2="-22337.3359" y2="8477.3486" gradientTransform="matrix(3.968725e-02 0 0 -3.968725e-02 4552.2759 1156.9098)">
			<stop  offset="0" style="stop-color:#A9CF38"/>
			<stop  offset="1" style="stop-color:#A9CF38;stop-opacity:0"/>
		</linearGradient>
		<circle id="circle23940" class="st37" cx="4414.5" cy="408.9" r="1.8"/>
	</g>
	
		<linearGradient id="path23942_1_" gradientUnits="userSpaceOnUse" x1="-5949.8003" y1="1489.024" x2="-3965.2019" y2="2579.75" gradientTransform="matrix(9.729777e-02 0 0 -9.729777e-02 626.7333 255.4688)">
		<stop  offset="0" style="stop-color:#A9CF38"/>
		<stop  offset="1" style="stop-color:#A9CF38;stop-opacity:0"/>
	</linearGradient>
	<path id="path23942" inkscape:connector-curvature="0" class="st38" d="M387.4-93.1c-2.1,0-10,2.7-13.2,4.4l-1.3,1.3l-10.3,10.2
		c-0.6,0.2-1,0.5-1.1,0.8c-0.7,2.4,7.5,29.6,8.9,29.6c1.1,0,6.3-16.4,8.2-24.9l5.9-5.8l1.2-1.2c1.3-3.6,3-13.7,2.2-14.4
		C387.8-93.1,387.6-93.1,387.4-93.1L387.4-93.1z"/>
	
		<linearGradient id="path23944_1_" gradientUnits="userSpaceOnUse" x1="-5931.1128" y1="1455.022" x2="-3946.5144" y2="2545.7478" gradientTransform="matrix(9.729777e-02 0 0 -9.729777e-02 626.7333 255.4688)">
		<stop  offset="0" style="stop-color:#A9CF38"/>
		<stop  offset="1" style="stop-color:#A9CF38;stop-opacity:0"/>
	</linearGradient>
	<path id="path23944" inkscape:connector-curvature="0" class="st39" d="M378.3-82.3c-0.1,0-0.2,0-0.2,0.1c-2,2.3-4.2,4.6-6.7,6.4
		c-0.1,0.1-0.1,0.1-0.1,0.2c-0.1,0.8-0.1,1.6-0.3,2.5c-1.6,1-5.6,3.9-8.1,3.9c2.2,8.8,6.6,22.4,7.6,22.4c1,0,5.2-13.1,7.5-21.9
		c-5-0.1-5.3-3.6-6.3-4.5c0-0.5,0.3-1.5,0.4-2.2c2.5-1.9,4.6-4.1,6.6-6.4C378.8-82,378.7-82.3,378.3-82.3L378.3-82.3z"/>
	<g id="g23946" transform="matrix(0.40789472,0,0,0.40789472,-1411.7511,-261.74271)">
		
			<linearGradient id="circle23948_1_" gradientUnits="userSpaceOnUse" x1="-24301.75" y1="7349.8979" x2="-22317.1523" y2="8440.624" gradientTransform="matrix(3.968725e-02 0 0 -3.968725e-02 4552.2759 1156.9098)">
			<stop  offset="0" style="stop-color:#A9CF38"/>
			<stop  offset="1" style="stop-color:#A9CF38;stop-opacity:0"/>
		</linearGradient>
		<circle id="circle23948" class="st40" cx="4413.7" cy="411.3" r="5"/>
		
			<linearGradient id="circle23950_1_" gradientUnits="userSpaceOnUse" x1="-24321.9355" y1="7386.623" x2="-22337.3359" y2="8477.3486" gradientTransform="matrix(3.968725e-02 0 0 -3.968725e-02 4552.2759 1156.9098)">
			<stop  offset="0" style="stop-color:#A9CF38"/>
			<stop  offset="1" style="stop-color:#A9CF38;stop-opacity:0"/>
		</linearGradient>
		<circle id="circle23950" class="st41" cx="4414.5" cy="408.9" r="1.8"/>
	</g>
	
		<linearGradient id="path23952_1_" gradientUnits="userSpaceOnUse" x1="-2562.261" y1="332.012" x2="-1765.9644" y2="1804.157" gradientTransform="matrix(9.729777e-02 0 0 -9.729777e-02 626.7333 255.4688)">
		<stop  offset="0" style="stop-color:#A9CF38"/>
		<stop  offset="1" style="stop-color:#A9CF38;stop-opacity:0"/>
	</linearGradient>
	<path id="path23952" inkscape:connector-curvature="0" class="st42" d="M396.8-111.7c-8.4,0.4-17.8,2.9-22.7,10.2
		c-2.1,3.7-2,7.7-0.7,11.6c2.7-2,5.1-3.1,8.6-4c2.4-0.7,3.3-1.2,4-2.4c0.5-0.8,1.5-1.7,2.3-1.9c3.4-0.9,5.9,4.1,3.4,6.7
		c-0.9,0.9-1.4,2.5-2.1,6.4c-0.8,4.2-1.2,5.9-3,8.2c7.1,1.5,15.2-1.5,20.3-6.7c2-1.9,3.7-4.4,4.9-6.8c8.1,6.4,9.5,17.5,10.9,27.1
		c0.2,10.1-4.9,19.7-13.1,25.3c-7.2,5.2-16,7.5-22.7,13.5C379.1-18.8,373.6-10.8,370-2c-6.6,16.2-2.6,35.6,9,48.5
		c13.5,15.7,34.8,23,55.1,22.1c8.3,0.2,16.6-0.5,24.9-0.3c5,1.2,9.9,2.8,15.2,2.8c9.3,0.3,18.3,2.9,27.1,5.9
		c9.9,3.3,20.5,3.8,30.8,3c11.5,0.1,23.2-1.8,33.4-7.5c7.7-3.5,14-10.2,22.5-11.8c4.2-0.8,8.6-2.7,12.6-0.5
		c12.2,3.7,24.2,8.1,36.8,10.1c2,0.5,3-1.9,1.5-3.2c-1.9-2.8-5.3-5.3-7.4-7.1c1.7,0,2.4,3.4,4.2,1.8c0.1-2.6-2.6-4.6-3.7-6.9
		c-10.8-15.8-21.7-32-35.8-45.2c-16.4-14-34.7-25.9-54.4-34.8c-13.7-6.4-30.1-8.5-44.3-2.5c-20.8,8.5-35.6,27.6-44.1,47.8
		c-3.6,9-6.6,18.7-5,28.5c-8,4.1-17.2,6.2-26.1,4.5C405.6,51,389,39.6,384.8,22.5c-3.7-14.2,3.6-29.3,15.3-37.4
		c6.7-4.8,15-7.1,21.4-12.6c7.3-5.5,13.1-13,16.2-21.6c3.5-11.9,1.9-24.9-2.3-36.4c-4.4-12-15.4-20.4-27.5-23.7
		C404.6-111.2,400.6-111.7,396.8-111.7L396.8-111.7z"/>
</g>
<linearGradient id="path23956_1_" gradientUnits="userSpaceOnUse" x1="-4263.3765" y1="1357.3445" x2="-2278.7781" y2="2448.0703" gradientTransform="matrix(9.729777e-02 0 0 -9.729777e-02 463.2034 572.6567)">
	<stop  offset="0" style="stop-color:#A9CF38"/>
	<stop  offset="1" style="stop-color:#A9CF38;stop-opacity:0"/>
</linearGradient>
<path id="path23956" inkscape:connector-curvature="0" class="st43" d="M194,205.5c-8.4,0.4-17.8,2.9-22.7,10.2
	c-4.1,7.1,0.2,15.7,5.3,21c7.9,6.9,20.5,3.8,27.4-3.1c2-1.9,3.7-4.4,4.9-6.8c8.1,6.4,9.5,17.5,10.9,27.1
	c0.2,10.1-4.9,19.7-13.1,25.3c-7.2,5.2-16,7.5-22.7,13.5c-7.6,5.8-13.1,13.7-16.6,22.5c-6.6,16.2-2.6,35.6,9,48.5
	c13.5,15.7,34.8,23,55.1,22.1c8.3,0.2,16.6-0.5,24.9-0.3c5,1.2,9.9,2.8,15.2,2.8c9.3,0.3,18.3,2.9,27.1,5.9c9.9,3.3,20.5,3.8,30.8,3
	c11.5,0.1,23.2-1.8,33.4-7.5c7.7-3.5,14-10.2,22.5-11.8c4.2-0.8,8.6-2.7,12.6-0.5c12.2,3.7,24.2,8.1,36.8,10.1c2,0.5,3-1.9,1.5-3.2
	c-1.9-2.8-5.3-5.3-7.4-7.1c1.7,0,2.4,3.4,4.2,1.8c0.1-2.6-2.6-4.6-3.7-6.9c-10.8-15.8-21.7-32-35.8-45.2
	c-16.4-14-34.7-25.9-54.4-34.8c-13.7-6.4-30.1-8.5-44.3-2.5c-20.8,8.5-35.6,27.6-44.1,47.8c-3.6,9-6.6,18.7-5,28.5
	c-8,4.1-17.2,6.2-26.1,4.5c-16.8-2.1-33.4-13.6-37.6-30.6c-3.7-14.2,3.6-29.3,15.3-37.4c6.7-4.8,15-7.1,21.4-12.6
	c7.3-5.5,13.1-13,16.2-21.6c3.5-11.9,1.9-24.9-2.3-36.4c-4.4-12-15.4-20.4-27.5-23.7C201.7,206,197.8,205.5,194,205.5L194,205.5z"/>
<g id="g23958" transform="translate(-203.04069,317.18789)">
	
		<linearGradient id="path23960_1_" gradientUnits="userSpaceOnUse" x1="-4633.2129" y1="-906.5345" x2="-2648.6143" y2="184.1914" gradientTransform="matrix(9.729777e-02 0 0 -9.729777e-02 626.7333 255.4688)">
		<stop  offset="0" style="stop-color:#A9CF38"/>
		<stop  offset="1" style="stop-color:#A9CF38;stop-opacity:0"/>
	</linearGradient>
	<path id="path23960" inkscape:connector-curvature="0" class="st44" d="M543.9,71.8c-0.1,0,0.6,1.2,2.2,3.8c0.1,0.1,0-0.2,0-0.3
		l0.3-0.3C545,73,544,71.8,543.9,71.8z M546.5,75.1c7.3,9.7,29,40.2,50,69.7c-0.2,1.1-0.2,2.8-0.2,5.1c0,2.3-0.7,4.4-1.1,5.9
		c-17.1,8.6-52.9,25.7-78.1,38c-0.2-0.1-0.4-0.2-0.5-0.2c-2.6,0-4.7,7.2-4.7,16.2s2.1,16.2,4.7,16.2c-4.4-33.1,8.4,3.8,4.7-16.2
		c-0.8-4.3-1.4-9.4-2.4-12.8c27.1-13.2,57-26.3,81.2-39.5c2.9-1,6.1-3,6.1-6c0-3.9-3.4-7-6-8c-16.7-23.4-32.2-46.8-51.1-70.1
		c-0.1-0.1-0.2-0.1-0.3,0C548.9,73.4,546.5,75.1,546.5,75.1z"/>
	
		<linearGradient id="path23962_1_" gradientUnits="userSpaceOnUse" x1="-4529.0093" y1="-1096.1348" x2="-2544.4109" y2="-5.409" gradientTransform="matrix(9.729777e-02 0 0 -9.729777e-02 626.7333 255.4688)">
		<stop  offset="0" style="stop-color:#A9CF38"/>
		<stop  offset="1" style="stop-color:#A9CF38;stop-opacity:0"/>
	</linearGradient>
	<path id="path23962" inkscape:connector-curvature="0" class="st45" d="M528.4,77.2l-3.3,0.2c-0.1,0-0.2,0.1-0.2,0.2
		c-1.3,5.1,3.1,57.6,5.1,89.9c-1.3,2.7-2.2,7.6-2.2,11.3c0,3.1,0.7,4.5,1.6,5.2c-2.6,27.1-3.9,57.5-5.8,86.2
		c-9.7-3.6-31.9-10-34.5-9.3c-0.8,0.2,13.1,5.9,12.5,7.9c-0.6,2-15.7,0.2-15.9,2.8c-0.2,2.6,19,0.1,19.2,2.1
		c0.2,2-18.6,8.5-17.8,8.7c3.1,0.9,40.8-8.2,41-10c0-0.5-0.8-1.4-0.8-2c2-28.7,4.8-58.1,6.2-86.2c1.3-0.7,2.3-2.5,2.3-6.4
		c0-3.7-0.8-8.2-2.1-10.6c-1.7-30.1-3.4-61.4-5.1-89.9C528.6,77.2,528.5,77.1,528.4,77.2L528.4,77.2z"/>
	
		<linearGradient id="path23964_1_" gradientUnits="userSpaceOnUse" x1="-5409.2734" y1="505.524" x2="-3424.6748" y2="1596.2499" gradientTransform="matrix(9.729777e-02 0 0 -9.729777e-02 626.7333 255.4688)">
		<stop  offset="0" style="stop-color:#A9CF38"/>
		<stop  offset="1" style="stop-color:#A9CF38;stop-opacity:0"/>
	</linearGradient>
	<path id="path23964" inkscape:connector-curvature="0" class="st46" d="M396.8-111.7c-8.4,0.4-17.8,2.9-22.7,10.2
		c-2.1,3.7-2,7.7-0.7,11.6c2.7-2,5.1-3.1,8.6-4c2.4-0.7,3.3-1.2,4-2.4c0.5-0.8,1.5-1.7,2.3-1.9c3.4-0.9,5.9,4.1,3.4,6.7
		c-0.9,0.9-1.4,2.5-2.1,6.4c-0.8,4.2-1.2,5.9-3,8.2c7.1,1.5,15.2-1.5,20.3-6.7c2-1.9,3.7-4.4,4.9-6.8c8.1,6.4,9.5,17.5,10.9,27.1
		c0.2,10.1-4.9,19.7-13.1,25.3c-7.2,5.2-16,7.5-22.7,13.5C379.1-18.8,373.6-10.8,370-2c-6.6,16.2-2.6,35.6,9,48.5
		c13.5,15.7,34.8,23,55.1,22.1c8.3,0.2,16.6-0.5,24.9-0.3c5,1.2,9.9,2.8,15.2,2.8c9.3,0.3,18.3,2.9,27.1,5.9
		c9.9,3.3,20.5,3.8,30.8,3c11.5,0.1,23.2-1.8,33.4-7.5c7.7-3.5,14-10.2,22.5-11.8c4.2-0.8,8.6-2.7,12.6-0.5
		c12.2,3.7,24.2,8.1,36.8,10.1c2,0.5,3-1.9,1.5-3.2c-1.9-2.8-5.3-5.3-7.4-7.1c1.7,0,2.4,3.4,4.2,1.8c0.1-2.6-2.6-4.6-3.7-6.9
		c-10.8-15.8-21.7-32-35.8-45.2c-16.4-14-34.7-25.9-54.4-34.8c-13.7-6.4-30.1-8.5-44.3-2.5c-20.8,8.5-35.6,27.6-44.1,47.8
		c-3.6,9-6.6,18.7-5,28.5c-8,4.1-17.2,6.2-26.1,4.5C405.6,51,389,39.6,384.8,22.5c-3.7-14.2,3.6-29.3,15.3-37.4
		c6.7-4.8,15-7.1,21.4-12.6c7.3-5.5,13.1-13,16.2-21.6c3.5-11.9,1.9-24.9-2.3-36.4c-4.4-12-15.4-20.4-27.5-23.7
		C404.6-111.2,400.6-111.7,396.8-111.7L396.8-111.7z"/>
	<g id="g23966" transform="matrix(0.25375442,0,0,0.25375442,-1388.1804,-221.9886)">
		
			<linearGradient id="path23968_1_" gradientUnits="userSpaceOnUse" x1="-44305.5859" y1="27347.2559" x2="-42320.9883" y2="28437.9824" gradientTransform="matrix(2.468974e-02 0 0 -2.468974e-02 7331.4629 1667.8898)">
			<stop  offset="0" style="stop-color:#A9CF38"/>
			<stop  offset="1" style="stop-color:#A9CF38;stop-opacity:0"/>
		</linearGradient>
		<path id="path23968" inkscape:connector-curvature="0" class="st47" d="M6997.3,507.9c-8.1,0-39.3,10.6-52,17.2l-5.2,5.1
			l-40.7,40.2c-2.3,0.9-3.9,2-4.2,3.3c-2.8,9.3,29.4,116.8,35,116.8c4.3,0,24.7-64.7,32.3-98l23.1-22.9l4.6-4.5
			c5.1-14.1,12-54,8.8-56.8C6998.8,508.1,6998.2,507.9,6997.3,507.9z"/>
		
			<linearGradient id="path23970_1_" gradientUnits="userSpaceOnUse" x1="-43858.5156" y1="26533.8066" x2="-41873.918" y2="27624.5332" gradientTransform="matrix(2.468974e-02 0 0 -2.468974e-02 7331.4629 1667.8898)">
			<stop  offset="0" style="stop-color:#A9CF38"/>
			<stop  offset="1" style="stop-color:#A9CF38;stop-opacity:0"/>
		</linearGradient>
		<path id="path23970" inkscape:connector-curvature="0" class="st48" d="M6926.6,598.9c-9,0-17.8,1.1-26.2,3.2
			c8.8,34.8,26,88.3,29.9,88.3c3.9,0,20.5-51.5,29.4-86.3C6949.3,600.7,6938,599,6926.6,598.9z"/>
	</g>
	<g id="g23972" transform="matrix(0.40789472,0,0,0.40789472,-1411.7511,-261.74271)">
		
			<linearGradient id="circle23974_1_" gradientUnits="userSpaceOnUse" x1="-24301.75" y1="7349.8979" x2="-22317.1523" y2="8440.624" gradientTransform="matrix(3.968725e-02 0 0 -3.968725e-02 4552.2759 1156.9098)">
			<stop  offset="0" style="stop-color:#A9CF38"/>
			<stop  offset="1" style="stop-color:#A9CF38;stop-opacity:0"/>
		</linearGradient>
		<circle id="circle23974" class="st49" cx="4413.7" cy="411.3" r="5"/>
		
			<linearGradient id="circle23976_1_" gradientUnits="userSpaceOnUse" x1="-24321.9355" y1="7386.623" x2="-22337.3359" y2="8477.3486" gradientTransform="matrix(3.968725e-02 0 0 -3.968725e-02 4552.2759 1156.9098)">
			<stop  offset="0" style="stop-color:#A9CF38"/>
			<stop  offset="1" style="stop-color:#A9CF38;stop-opacity:0"/>
		</linearGradient>
		<circle id="circle23976" class="st50" cx="4414.5" cy="408.9" r="1.8"/>
	</g>
	<g id="g23978" transform="matrix(0.25375442,0,0,0.25375442,-1388.1804,-221.9886)">
		
			<linearGradient id="path23980_1_" gradientUnits="userSpaceOnUse" x1="-44305.5859" y1="27347.2559" x2="-42320.9883" y2="28437.9824" gradientTransform="matrix(2.468974e-02 0 0 -2.468974e-02 7331.4629 1667.8898)">
			<stop  offset="0" style="stop-color:#A9CF38"/>
			<stop  offset="1" style="stop-color:#A9CF38;stop-opacity:0"/>
		</linearGradient>
		<path id="path23980" inkscape:connector-curvature="0" class="st51" d="M6997.3,507.9c-8.1,0-39.3,10.6-52,17.2l-5.2,5.1
			l-40.7,40.2c-2.3,0.9-3.9,2-4.2,3.3c-2.8,9.3,29.4,116.8,35,116.8c4.3,0,24.7-64.7,32.3-98l23.1-22.9l4.6-4.5
			c5.1-14.1,12-54,8.8-56.8C6998.8,508.1,6998.2,507.9,6997.3,507.9z"/>
		
			<linearGradient id="path23982_1_" gradientUnits="userSpaceOnUse" x1="-43858.5156" y1="26533.8066" x2="-41873.918" y2="27624.5332" gradientTransform="matrix(2.468974e-02 0 0 -2.468974e-02 7331.4629 1667.8898)">
			<stop  offset="0" style="stop-color:#A9CF38"/>
			<stop  offset="1" style="stop-color:#A9CF38;stop-opacity:0"/>
		</linearGradient>
		<path id="path23982" inkscape:connector-curvature="0" class="st52" d="M6926.6,598.9c-9,0-17.8,1.1-26.2,3.2
			c8.8,34.8,26,88.3,29.9,88.3c3.9,0,20.5-51.5,29.4-86.3C6949.3,600.7,6938,599,6926.6,598.9z"/>
	</g>
	<g id="g23984" transform="matrix(0.40789472,0,0,0.40789472,-1411.7511,-261.74271)">
		
			<linearGradient id="circle23986_1_" gradientUnits="userSpaceOnUse" x1="-24301.75" y1="7349.8979" x2="-22317.1523" y2="8440.624" gradientTransform="matrix(3.968725e-02 0 0 -3.968725e-02 4552.2759 1156.9098)">
			<stop  offset="0" style="stop-color:#A9CF38"/>
			<stop  offset="1" style="stop-color:#A9CF38;stop-opacity:0"/>
		</linearGradient>
		<circle id="circle23986" class="st53" cx="4413.7" cy="411.3" r="5"/>
		
			<linearGradient id="circle23988_1_" gradientUnits="userSpaceOnUse" x1="-24321.9355" y1="7386.623" x2="-22337.3359" y2="8477.3486" gradientTransform="matrix(3.968725e-02 0 0 -3.968725e-02 4552.2759 1156.9098)">
			<stop  offset="0" style="stop-color:#A9CF38"/>
			<stop  offset="1" style="stop-color:#A9CF38;stop-opacity:0"/>
		</linearGradient>
		<circle id="circle23988" class="st54" cx="4414.5" cy="408.9" r="1.8"/>
	</g>
	
		<linearGradient id="path23990_1_" gradientUnits="userSpaceOnUse" x1="-5949.8003" y1="1489.024" x2="-3965.2019" y2="2579.75" gradientTransform="matrix(9.729777e-02 0 0 -9.729777e-02 626.7333 255.4688)">
		<stop  offset="0" style="stop-color:#A9CF38"/>
		<stop  offset="1" style="stop-color:#A9CF38;stop-opacity:0"/>
	</linearGradient>
	<path id="path23990" inkscape:connector-curvature="0" class="st55" d="M387.4-93.1c-2.1,0-10,2.7-13.2,4.4l-1.3,1.3l-10.3,10.2
		c-0.6,0.2-1,0.5-1.1,0.8c-0.7,2.4,7.5,29.6,8.9,29.6c1.1,0,6.3-16.4,8.2-24.9l5.9-5.8l1.2-1.2c1.3-3.6,3-13.7,2.2-14.4
		C387.8-93.1,387.6-93.1,387.4-93.1L387.4-93.1z"/>
	
		<linearGradient id="path23992_1_" gradientUnits="userSpaceOnUse" x1="-5931.1128" y1="1455.022" x2="-3946.5144" y2="2545.7478" gradientTransform="matrix(9.729777e-02 0 0 -9.729777e-02 626.7333 255.4688)">
		<stop  offset="0" style="stop-color:#A9CF38"/>
		<stop  offset="1" style="stop-color:#A9CF38;stop-opacity:0"/>
	</linearGradient>
	<path id="path23992" inkscape:connector-curvature="0" class="st56" d="M378.3-82.3c-0.1,0-0.2,0-0.2,0.1c-2,2.3-4.2,4.6-6.7,6.4
		c-0.1,0.1-0.1,0.1-0.1,0.2c-0.1,0.8-0.1,1.6-0.3,2.5c-1.6,1-5.6,3.9-8.1,3.9c2.2,8.8,6.6,22.4,7.6,22.4c1,0,5.2-13.1,7.5-21.9
		c-5-0.1-5.3-3.6-6.3-4.5c0-0.5,0.3-1.5,0.4-2.2c2.5-1.9,4.6-4.1,6.6-6.4C378.8-82,378.7-82.3,378.3-82.3L378.3-82.3z"/>
	<g id="g23994" transform="matrix(0.40789472,0,0,0.40789472,-1411.7511,-261.74271)">
		
			<linearGradient id="circle23996_1_" gradientUnits="userSpaceOnUse" x1="-24301.75" y1="7349.8979" x2="-22317.1523" y2="8440.624" gradientTransform="matrix(3.968725e-02 0 0 -3.968725e-02 4552.2759 1156.9098)">
			<stop  offset="0" style="stop-color:#A9CF38"/>
			<stop  offset="1" style="stop-color:#A9CF38;stop-opacity:0"/>
		</linearGradient>
		<circle id="circle23996" class="st57" cx="4413.7" cy="411.3" r="5"/>
		
			<linearGradient id="circle23998_1_" gradientUnits="userSpaceOnUse" x1="-24321.9355" y1="7386.623" x2="-22337.3359" y2="8477.3486" gradientTransform="matrix(3.968725e-02 0 0 -3.968725e-02 4552.2759 1156.9098)">
			<stop  offset="0" style="stop-color:#A9CF38"/>
			<stop  offset="1" style="stop-color:#A9CF38;stop-opacity:0"/>
		</linearGradient>
		<circle id="circle23998" class="st58" cx="4414.5" cy="408.9" r="1.8"/>
	</g>
	
		<linearGradient id="path24000_1_" gradientUnits="userSpaceOnUse" x1="-2562.261" y1="332.012" x2="-1765.9644" y2="1804.157" gradientTransform="matrix(9.729777e-02 0 0 -9.729777e-02 626.7333 255.4688)">
		<stop  offset="0" style="stop-color:#A9CF38"/>
		<stop  offset="1" style="stop-color:#A9CF38;stop-opacity:0"/>
	</linearGradient>
	<path id="path24000" inkscape:connector-curvature="0" class="st59" d="M396.8-111.7c-8.4,0.4-17.8,2.9-22.7,10.2
		c-2.1,3.7-2,7.7-0.7,11.6c2.7-2,5.1-3.1,8.6-4c2.4-0.7,3.3-1.2,4-2.4c0.5-0.8,1.5-1.7,2.3-1.9c3.4-0.9,5.9,4.1,3.4,6.7
		c-0.9,0.9-1.4,2.5-2.1,6.4c-0.8,4.2-1.2,5.9-3,8.2c7.1,1.5,15.2-1.5,20.3-6.7c2-1.9,3.7-4.4,4.9-6.8c8.1,6.4,9.5,17.5,10.9,27.1
		c0.2,10.1-4.9,19.7-13.1,25.3c-7.2,5.2-16,7.5-22.7,13.5C379.1-18.8,373.6-10.8,370-2c-6.6,16.2-2.6,35.6,9,48.5
		c13.5,15.7,34.8,23,55.1,22.1c8.3,0.2,16.6-0.5,24.9-0.3c5,1.2,9.9,2.8,15.2,2.8c9.3,0.3,18.3,2.9,27.1,5.9
		c9.9,3.3,20.5,3.8,30.8,3c11.5,0.1,23.2-1.8,33.4-7.5c7.7-3.5,14-10.2,22.5-11.8c4.2-0.8,8.6-2.7,12.6-0.5
		c12.2,3.7,24.2,8.1,36.8,10.1c2,0.5,3-1.9,1.5-3.2c-1.9-2.8-5.3-5.3-7.4-7.1c1.7,0,2.4,3.4,4.2,1.8c0.1-2.6-2.6-4.6-3.7-6.9
		c-10.8-15.8-21.7-32-35.8-45.2c-16.4-14-34.7-25.9-54.4-34.8c-13.7-6.4-30.1-8.5-44.3-2.5c-20.8,8.5-35.6,27.6-44.1,47.8
		c-3.6,9-6.6,18.7-5,28.5c-8,4.1-17.2,6.2-26.1,4.5C405.6,51,389,39.6,384.8,22.5c-3.7-14.2,3.6-29.3,15.3-37.4
		c6.7-4.8,15-7.1,21.4-12.6c7.3-5.5,13.1-13,16.2-21.6c3.5-11.9,1.9-24.9-2.3-36.4c-4.4-12-15.4-20.4-27.5-23.7
		C404.6-111.2,400.6-111.7,396.8-111.7L396.8-111.7z"/>
</g>
<linearGradient id="path24004_1_" gradientUnits="userSpaceOnUse" x1="-4263.3765" y1="1357.3445" x2="-2278.7781" y2="2448.0703" gradientTransform="matrix(9.729777e-02 0 0 -9.729777e-02 463.2034 572.6567)">
	<stop  offset="0" style="stop-color:#A9CF38"/>
	<stop  offset="1" style="stop-color:#A9CF38;stop-opacity:0"/>
</linearGradient>
<path id="path24004" inkscape:connector-curvature="0" class="st60" d="M194,205.5c-8.4,0.4-17.8,2.9-22.7,10.2
	c-4.1,7.1,0.2,15.7,5.3,21c7.9,6.9,20.5,3.8,27.4-3.1c2-1.9,3.7-4.4,4.9-6.8c8.1,6.4,9.5,17.5,10.9,27.1
	c0.2,10.1-4.9,19.7-13.1,25.3c-7.2,5.2-16,7.5-22.7,13.5c-7.6,5.8-13.1,13.7-16.6,22.5c-6.6,16.2-2.6,35.6,9,48.5
	c13.5,15.7,34.8,23,55.1,22.1c8.3,0.2,16.6-0.5,24.9-0.3c5,1.2,9.9,2.8,15.2,2.8c9.3,0.3,18.3,2.9,27.1,5.9c9.9,3.3,20.5,3.8,30.8,3
	c11.5,0.1,23.2-1.8,33.4-7.5c7.7-3.5,14-10.2,22.5-11.8c4.2-0.8,8.6-2.7,12.6-0.5c12.2,3.7,24.2,8.1,36.8,10.1c2,0.5,3-1.9,1.5-3.2
	c-1.9-2.8-5.3-5.3-7.4-7.1c1.7,0,2.4,3.4,4.2,1.8c0.1-2.6-2.6-4.6-3.7-6.9c-10.8-15.8-21.7-32-35.8-45.2
	c-16.4-14-34.7-25.9-54.4-34.8c-13.7-6.4-30.1-8.5-44.3-2.5c-20.8,8.5-35.6,27.6-44.1,47.8c-3.6,9-6.6,18.7-5,28.5
	c-8,4.1-17.2,6.2-26.1,4.5c-16.8-2.1-33.4-13.6-37.6-30.6c-3.7-14.2,3.6-29.3,15.3-37.4c6.7-4.8,15-7.1,21.4-12.6
	c7.3-5.5,13.1-13,16.2-21.6c3.5-11.9,1.9-24.9-2.3-36.4c-4.4-12-15.4-20.4-27.5-23.7C201.7,206,197.8,205.5,194,205.5L194,205.5z"/>
<g id="g24006" transform="translate(-203.04069,317.18789)">
	
		<linearGradient id="path24008_1_" gradientUnits="userSpaceOnUse" x1="-4633.2129" y1="-906.5345" x2="-2648.6143" y2="184.1914" gradientTransform="matrix(9.729777e-02 0 0 -9.729777e-02 626.7333 255.4688)">
		<stop  offset="0" style="stop-color:#A9CF38"/>
		<stop  offset="1" style="stop-color:#A9CF38;stop-opacity:0"/>
	</linearGradient>
	<path id="path24008" inkscape:connector-curvature="0" class="st61" d="M543.9,71.8c-0.1,0,0.6,1.2,2.2,3.8c0.1,0.1,0-0.2,0-0.3
		l0.3-0.3C545,73,544,71.8,543.9,71.8z M546.5,75.1c7.3,9.7,29,40.2,50,69.7c-0.2,1.1-0.2,2.8-0.2,5.1c0,2.3-0.7,4.4-1.1,5.9
		c-17.1,8.6-52.9,25.7-78.1,38c-0.2-0.1-0.4-0.2-0.5-0.2c-2.6,0-4.7,7.2-4.7,16.2s2.1,16.2,4.7,16.2c-4.4-33.1,8.4,3.8,4.7-16.2
		c-0.8-4.3-1.4-9.4-2.4-12.8c27.1-13.2,57-26.3,81.2-39.5c2.9-1,6.1-3,6.1-6c0-3.9-3.4-7-6-8c-16.7-23.4-32.2-46.8-51.1-70.1
		c-0.1-0.1-0.2-0.1-0.3,0C548.9,73.4,546.5,75.1,546.5,75.1z"/>
	
		<linearGradient id="path24010_1_" gradientUnits="userSpaceOnUse" x1="-4529.0093" y1="-1096.1348" x2="-2544.4109" y2="-5.409" gradientTransform="matrix(9.729777e-02 0 0 -9.729777e-02 626.7333 255.4688)">
		<stop  offset="0" style="stop-color:#A9CF38"/>
		<stop  offset="1" style="stop-color:#A9CF38;stop-opacity:0"/>
	</linearGradient>
	<path id="path24010" inkscape:connector-curvature="0" class="st62" d="M528.4,77.2l-3.3,0.2c-0.1,0-0.2,0.1-0.2,0.2
		c-1.3,5.1,3.1,57.6,5.1,89.9c-1.3,2.7-2.2,7.6-2.2,11.3c0,3.1,0.7,4.5,1.6,5.2c-2.6,27.1-3.9,57.5-5.8,86.2
		c-9.7-3.6-31.9-10-34.5-9.3c-0.8,0.2,13.1,5.9,12.5,7.9c-0.6,2-15.7,0.2-15.9,2.8c-0.2,2.6,19,0.1,19.2,2.1
		c0.2,2-18.6,8.5-17.8,8.7c3.1,0.9,40.8-8.2,41-10c0-0.5-0.8-1.4-0.8-2c2-28.7,4.8-58.1,6.2-86.2c1.3-0.7,2.3-2.5,2.3-6.4
		c0-3.7-0.8-8.2-2.1-10.6c-1.7-30.1-3.4-61.4-5.1-89.9C528.6,77.2,528.5,77.1,528.4,77.2L528.4,77.2z"/>
	
		<linearGradient id="path24012_1_" gradientUnits="userSpaceOnUse" x1="-5409.2734" y1="505.524" x2="-3424.6748" y2="1596.2499" gradientTransform="matrix(9.729777e-02 0 0 -9.729777e-02 626.7333 255.4688)">
		<stop  offset="0" style="stop-color:#A9CF38"/>
		<stop  offset="1" style="stop-color:#A9CF38;stop-opacity:0"/>
	</linearGradient>
	<path id="path24012" inkscape:connector-curvature="0" class="st63" d="M396.8-111.7c-8.4,0.4-17.8,2.9-22.7,10.2
		c-2.1,3.7-2,7.7-0.7,11.6c2.7-2,5.1-3.1,8.6-4c2.4-0.7,3.3-1.2,4-2.4c0.5-0.8,1.5-1.7,2.3-1.9c3.4-0.9,5.9,4.1,3.4,6.7
		c-0.9,0.9-1.4,2.5-2.1,6.4c-0.8,4.2-1.2,5.9-3,8.2c7.1,1.5,15.2-1.5,20.3-6.7c2-1.9,3.7-4.4,4.9-6.8c8.1,6.4,9.5,17.5,10.9,27.1
		c0.2,10.1-4.9,19.7-13.1,25.3c-7.2,5.2-16,7.5-22.7,13.5C379.1-18.8,373.6-10.8,370-2c-6.6,16.2-2.6,35.6,9,48.5
		c13.5,15.7,34.8,23,55.1,22.1c8.3,0.2,16.6-0.5,24.9-0.3c5,1.2,9.9,2.8,15.2,2.8c9.3,0.3,18.3,2.9,27.1,5.9
		c9.9,3.3,20.5,3.8,30.8,3c11.5,0.1,23.2-1.8,33.4-7.5c7.7-3.5,14-10.2,22.5-11.8c4.2-0.8,8.6-2.7,12.6-0.5
		c12.2,3.7,24.2,8.1,36.8,10.1c2,0.5,3-1.9,1.5-3.2c-1.9-2.8-5.3-5.3-7.4-7.1c1.7,0,2.4,3.4,4.2,1.8c0.1-2.6-2.6-4.6-3.7-6.9
		c-10.8-15.8-21.7-32-35.8-45.2c-16.4-14-34.7-25.9-54.4-34.8c-13.7-6.4-30.1-8.5-44.3-2.5c-20.8,8.5-35.6,27.6-44.1,47.8
		c-3.6,9-6.6,18.7-5,28.5c-8,4.1-17.2,6.2-26.1,4.5C405.6,51,389,39.6,384.8,22.5c-3.7-14.2,3.6-29.3,15.3-37.4
		c6.7-4.8,15-7.1,21.4-12.6c7.3-5.5,13.1-13,16.2-21.6c3.5-11.9,1.9-24.9-2.3-36.4c-4.4-12-15.4-20.4-27.5-23.7
		C404.6-111.2,400.6-111.7,396.8-111.7L396.8-111.7z"/>
	<g id="g24014" transform="matrix(0.25375442,0,0,0.25375442,-1388.1804,-221.9886)">
		
			<linearGradient id="path24016_1_" gradientUnits="userSpaceOnUse" x1="-44305.5859" y1="27347.2559" x2="-42320.9883" y2="28437.9824" gradientTransform="matrix(2.468974e-02 0 0 -2.468974e-02 7331.4629 1667.8898)">
			<stop  offset="0" style="stop-color:#A9CF38"/>
			<stop  offset="1" style="stop-color:#A9CF38;stop-opacity:0"/>
		</linearGradient>
		<path id="path24016" inkscape:connector-curvature="0" class="st64" d="M6997.3,507.9c-8.1,0-39.3,10.6-52,17.2l-5.2,5.1
			l-40.7,40.2c-2.3,0.9-3.9,2-4.2,3.3c-2.8,9.3,29.4,116.8,35,116.8c4.3,0,24.7-64.7,32.3-98l23.1-22.9l4.6-4.5
			c5.1-14.1,12-54,8.8-56.8C6998.8,508.1,6998.2,507.9,6997.3,507.9z"/>
		
			<linearGradient id="path24018_1_" gradientUnits="userSpaceOnUse" x1="-43858.5156" y1="26533.8066" x2="-41873.918" y2="27624.5332" gradientTransform="matrix(2.468974e-02 0 0 -2.468974e-02 7331.4629 1667.8898)">
			<stop  offset="0" style="stop-color:#A9CF38"/>
			<stop  offset="1" style="stop-color:#A9CF38;stop-opacity:0"/>
		</linearGradient>
		<path id="path24018" inkscape:connector-curvature="0" class="st65" d="M6926.6,598.9c-9,0-17.8,1.1-26.2,3.2
			c8.8,34.8,26,88.3,29.9,88.3c3.9,0,20.5-51.5,29.4-86.3C6949.3,600.7,6938,599,6926.6,598.9z"/>
	</g>
	<g id="g24020" transform="matrix(0.40789472,0,0,0.40789472,-1411.7511,-261.74271)">
		
			<linearGradient id="circle24022_1_" gradientUnits="userSpaceOnUse" x1="-24301.75" y1="7349.8979" x2="-22317.1523" y2="8440.624" gradientTransform="matrix(3.968725e-02 0 0 -3.968725e-02 4552.2759 1156.9098)">
			<stop  offset="0" style="stop-color:#A9CF38"/>
			<stop  offset="1" style="stop-color:#A9CF38;stop-opacity:0"/>
		</linearGradient>
		<circle id="circle24022" class="st66" cx="4413.7" cy="411.3" r="5"/>
		
			<linearGradient id="circle24024_1_" gradientUnits="userSpaceOnUse" x1="-24321.9355" y1="7386.623" x2="-22337.3359" y2="8477.3486" gradientTransform="matrix(3.968725e-02 0 0 -3.968725e-02 4552.2759 1156.9098)">
			<stop  offset="0" style="stop-color:#A9CF38"/>
			<stop  offset="1" style="stop-color:#A9CF38;stop-opacity:0"/>
		</linearGradient>
		<circle id="circle24024" class="st67" cx="4414.5" cy="408.9" r="1.8"/>
	</g>
	<g id="g24026" transform="matrix(0.25375442,0,0,0.25375442,-1388.1804,-221.9886)">
		
			<linearGradient id="path24028_1_" gradientUnits="userSpaceOnUse" x1="-44305.5859" y1="27347.2559" x2="-42320.9883" y2="28437.9824" gradientTransform="matrix(2.468974e-02 0 0 -2.468974e-02 7331.4629 1667.8898)">
			<stop  offset="0" style="stop-color:#A9CF38"/>
			<stop  offset="1" style="stop-color:#A9CF38;stop-opacity:0"/>
		</linearGradient>
		<path id="path24028" inkscape:connector-curvature="0" class="st68" d="M6997.3,507.9c-8.1,0-39.3,10.6-52,17.2l-5.2,5.1
			l-40.7,40.2c-2.3,0.9-3.9,2-4.2,3.3c-2.8,9.3,29.4,116.8,35,116.8c4.3,0,24.7-64.7,32.3-98l23.1-22.9l4.6-4.5
			c5.1-14.1,12-54,8.8-56.8C6998.8,508.1,6998.2,507.9,6997.3,507.9z"/>
		
			<linearGradient id="path24030_1_" gradientUnits="userSpaceOnUse" x1="-43858.5156" y1="26533.8066" x2="-41873.918" y2="27624.5332" gradientTransform="matrix(2.468974e-02 0 0 -2.468974e-02 7331.4629 1667.8898)">
			<stop  offset="0" style="stop-color:#A9CF38"/>
			<stop  offset="1" style="stop-color:#A9CF38;stop-opacity:0"/>
		</linearGradient>
		<path id="path24030" inkscape:connector-curvature="0" class="st69" d="M6926.6,598.9c-9,0-17.8,1.1-26.2,3.2
			c8.8,34.8,26,88.3,29.9,88.3c3.9,0,20.5-51.5,29.4-86.3C6949.3,600.7,6938,599,6926.6,598.9z"/>
	</g>
	<g id="g24032" transform="matrix(0.40789472,0,0,0.40789472,-1411.7511,-261.74271)">
		
			<linearGradient id="circle24034_1_" gradientUnits="userSpaceOnUse" x1="-24301.75" y1="7349.8979" x2="-22317.1523" y2="8440.624" gradientTransform="matrix(3.968725e-02 0 0 -3.968725e-02 4552.2759 1156.9098)">
			<stop  offset="0" style="stop-color:#A9CF38"/>
			<stop  offset="1" style="stop-color:#A9CF38;stop-opacity:0"/>
		</linearGradient>
		<circle id="circle24034" class="st70" cx="4413.7" cy="411.3" r="5"/>
		
			<linearGradient id="circle24036_1_" gradientUnits="userSpaceOnUse" x1="-24321.9355" y1="7386.623" x2="-22337.3359" y2="8477.3486" gradientTransform="matrix(3.968725e-02 0 0 -3.968725e-02 4552.2759 1156.9098)">
			<stop  offset="0" style="stop-color:#A9CF38"/>
			<stop  offset="1" style="stop-color:#A9CF38;stop-opacity:0"/>
		</linearGradient>
		<circle id="circle24036" class="st71" cx="4414.5" cy="408.9" r="1.8"/>
	</g>
	
		<linearGradient id="path24038_1_" gradientUnits="userSpaceOnUse" x1="-5949.8003" y1="1489.024" x2="-3965.2019" y2="2579.75" gradientTransform="matrix(9.729777e-02 0 0 -9.729777e-02 626.7333 255.4688)">
		<stop  offset="0" style="stop-color:#A9CF38"/>
		<stop  offset="1" style="stop-color:#A9CF38;stop-opacity:0"/>
	</linearGradient>
	<path id="path24038" inkscape:connector-curvature="0" class="st72" d="M387.4-93.1c-2.1,0-10,2.7-13.2,4.4l-1.3,1.3l-10.3,10.2
		c-0.6,0.2-1,0.5-1.1,0.8c-0.7,2.4,7.5,29.6,8.9,29.6c1.1,0,6.3-16.4,8.2-24.9l5.9-5.8l1.2-1.2c1.3-3.6,3-13.7,2.2-14.4
		C387.8-93.1,387.6-93.1,387.4-93.1L387.4-93.1z"/>
	
		<linearGradient id="path24040_1_" gradientUnits="userSpaceOnUse" x1="-5931.1128" y1="1455.022" x2="-3946.5144" y2="2545.7478" gradientTransform="matrix(9.729777e-02 0 0 -9.729777e-02 626.7333 255.4688)">
		<stop  offset="0" style="stop-color:#A9CF38"/>
		<stop  offset="1" style="stop-color:#A9CF38;stop-opacity:0"/>
	</linearGradient>
	<path id="path24040" inkscape:connector-curvature="0" class="st73" d="M378.3-82.3c-0.1,0-0.2,0-0.2,0.1c-2,2.3-4.2,4.6-6.7,6.4
		c-0.1,0.1-0.1,0.1-0.1,0.2c-0.1,0.8-0.1,1.6-0.3,2.5c-1.6,1-5.6,3.9-8.1,3.9c2.2,8.8,6.6,22.4,7.6,22.4c1,0,5.2-13.1,7.5-21.9
		c-5-0.1-5.3-3.6-6.3-4.5c0-0.5,0.3-1.5,0.4-2.2c2.5-1.9,4.6-4.1,6.6-6.4C378.8-82,378.7-82.3,378.3-82.3L378.3-82.3z"/>
	<g id="g24042" transform="matrix(0.40789472,0,0,0.40789472,-1411.7511,-261.74271)">
		
			<linearGradient id="circle24044_1_" gradientUnits="userSpaceOnUse" x1="-24301.75" y1="7349.8979" x2="-22317.1523" y2="8440.624" gradientTransform="matrix(3.968725e-02 0 0 -3.968725e-02 4552.2759 1156.9098)">
			<stop  offset="0" style="stop-color:#A9CF38"/>
			<stop  offset="1" style="stop-color:#A9CF38;stop-opacity:0"/>
		</linearGradient>
		<circle id="circle24044" class="st74" cx="4413.7" cy="411.3" r="5"/>
		
			<linearGradient id="circle24046_1_" gradientUnits="userSpaceOnUse" x1="-24321.9355" y1="7386.623" x2="-22337.3359" y2="8477.3486" gradientTransform="matrix(3.968725e-02 0 0 -3.968725e-02 4552.2759 1156.9098)">
			<stop  offset="0" style="stop-color:#A9CF38"/>
			<stop  offset="1" style="stop-color:#A9CF38;stop-opacity:0"/>
		</linearGradient>
		<circle id="circle24046" class="st75" cx="4414.5" cy="408.9" r="1.8"/>
	</g>
	
		<linearGradient id="path24048_1_" gradientUnits="userSpaceOnUse" x1="-2562.261" y1="332.012" x2="-1765.9644" y2="1804.157" gradientTransform="matrix(9.729777e-02 0 0 -9.729777e-02 626.7333 255.4688)">
		<stop  offset="0" style="stop-color:#A9CF38"/>
		<stop  offset="1" style="stop-color:#A9CF38;stop-opacity:0"/>
	</linearGradient>
	<path id="path24048" inkscape:connector-curvature="0" class="st76" d="M396.8-111.7c-8.4,0.4-17.8,2.9-22.7,10.2
		c-2.1,3.7-2,7.7-0.7,11.6c2.7-2,5.1-3.1,8.6-4c2.4-0.7,3.3-1.2,4-2.4c0.5-0.8,1.5-1.7,2.3-1.9c3.4-0.9,5.9,4.1,3.4,6.7
		c-0.9,0.9-1.4,2.5-2.1,6.4c-0.8,4.2-1.2,5.9-3,8.2c7.1,1.5,15.2-1.5,20.3-6.7c2-1.9,3.7-4.4,4.9-6.8c8.1,6.4,9.5,17.5,10.9,27.1
		c0.2,10.1-4.9,19.7-13.1,25.3c-7.2,5.2-16,7.5-22.7,13.5C379.1-18.8,373.6-10.8,370-2c-6.6,16.2-2.6,35.6,9,48.5
		c13.5,15.7,34.8,23,55.1,22.1c8.3,0.2,16.6-0.5,24.9-0.3c5,1.2,9.9,2.8,15.2,2.8c9.3,0.3,18.3,2.9,27.1,5.9
		c9.9,3.3,20.5,3.8,30.8,3c11.5,0.1,23.2-1.8,33.4-7.5c7.7-3.5,14-10.2,22.5-11.8c4.2-0.8,8.6-2.7,12.6-0.5
		c12.2,3.7,24.2,8.1,36.8,10.1c2,0.5,3-1.9,1.5-3.2c-1.9-2.8-5.3-5.3-7.4-7.1c1.7,0,2.4,3.4,4.2,1.8c0.1-2.6-2.6-4.6-3.7-6.9
		c-10.8-15.8-21.7-32-35.8-45.2c-16.4-14-34.7-25.9-54.4-34.8c-13.7-6.4-30.1-8.5-44.3-2.5c-20.8,8.5-35.6,27.6-44.1,47.8
		c-3.6,9-6.6,18.7-5,28.5c-8,4.1-17.2,6.2-26.1,4.5C405.6,51,389,39.6,384.8,22.5c-3.7-14.2,3.6-29.3,15.3-37.4
		c6.7-4.8,15-7.1,21.4-12.6c7.3-5.5,13.1-13,16.2-21.6c3.5-11.9,1.9-24.9-2.3-36.4c-4.4-12-15.4-20.4-27.5-23.7
		C404.6-111.2,400.6-111.7,396.8-111.7L396.8-111.7z"/>
</g>
</svg>
