<?xml version="1.0" encoding="utf-8"?>
<!-- Generator: Adobe Illustrator 21.0.0, SVG Export Plug-In . SVG Version: 6.00 Build 0)  -->
<svg version="1.1" id="Layer_1" xmlns="http://www.w3.org/2000/svg" xmlns:xlink="http://www.w3.org/1999/xlink" x="0px" y="0px"
	 viewBox="0 0 595.3 841.9" style="enable-background:new 0 0 595.3 841.9;" xml:space="preserve">
<style type="text/css">
	.st0{fill:#80361A;fill-opacity:0.9098;}
	.st1{fill:#B0782B;fill-opacity:0.9922;}
	.st2{fill:#D39229;fill-opacity:0.9088;}
	.st3{fill:#282312;fill-opacity:0.9088;}
	.st4{fill:#55461B;fill-opacity:0.9088;}
	.st5{fill:#FFFFFF;fill-opacity:0.9088;}
	.st6{fill:#2B170D;fill-opacity:0.9088;}
	.st7{fill:#AA4724;fill-opacity:0.9088;}
	.st8{fill:#AD4E25;}
	.st9{fill:#D2912A;fill-opacity:0.9124;}
	.st10{fill:#CE8D2A;}
	.st11{fill:#976828;}
	.st12{fill:#1E180D;fill-opacity:0.9176;}
</style>
<path id="path6399" inkscape:connector-curvature="0" class="st0" d="M218.5,182.5C218.5,182.5,218.5,182.5,218.5,182.5
	c-0.7,0.1-1.3,1.1-1.7,2.8c6,14,14.3,35.7,22.9,57.6c0.2,0.5,0.4,1,0.6,1.5c0.5,1.2,1,2.5,1.5,3.7c0.5,1.4,1.1,2.7,1.6,4.1
	c0,0.1,0.1,0.2,0.1,0.3c0.6,1.4,1.1,2.8,1.7,4.2c0.1,0.2,0.1,0.3,0.2,0.5c0.1,0.4,0.3,0.7,0.4,1.1c0.2,0.5,0.4,1,0.6,1.5
	c0.2,0.4,0.3,0.8,0.5,1.2c0.2,0.5,0.4,1,0.6,1.4c0.2,0.4,0.3,0.8,0.5,1.2c0.2,0.6,0.5,1.1,0.7,1.7c0.1,0.3,0.2,0.5,0.3,0.8
	c0.3,0.8,0.7,1.6,1,2.5c0.1,0.3,0.3,0.7,0.4,1c0.2,0.5,0.4,1,0.6,1.5c0.1,0.4,0.3,0.7,0.4,1.1c0.2,0.5,0.4,1,0.6,1.5
	c0.1,0.3,0.3,0.7,0.4,1c0.2,0.6,0.5,1.1,0.7,1.7c0.1,0.3,0.2,0.5,0.3,0.8c0.3,0.8,0.7,1.6,1,2.4c0,0,0,0,0,0
	c0.1,0.2,0.1,0.4,0.2,0.5c0.3,0.6,0.5,1.2,0.8,1.9c0.1,0.3,0.2,0.5,0.3,0.8c0.2,0.5,0.4,1,0.7,1.6c0.1,0.3,0.2,0.6,0.4,0.8
	c0.2,0.5,0.4,1,0.6,1.5c0.1,0.3,0.2,0.6,0.4,0.9c0.2,0.5,0.5,1.1,0.7,1.6c0.1,0.2,0.2,0.4,0.3,0.6c0.3,0.6,0.5,1.2,0.7,1.7
	c0,0.1,0.1,0.2,0.1,0.3c0.2,0.6,0.5,1.1,0.7,1.6c0,0.1,0.1,0.2,0.1,0.3c0.2,0.6,0.5,1.1,0.7,1.6c0.2,0.5,0.5,1.1,0.7,1.6
	c0,0.1,0.1,0.2,0.1,0.3c0.2,0.5,0.5,1,0.7,1.5c0,0.1,0.1,0.2,0.1,0.2c0.2,0.5,0.4,0.9,0.6,1.4c0,0.1,0.1,0.1,0.1,0.2
	c0.1,0.1,0.1,0.2,0.2,0.3c0.1,0.2,0.2,0.4,0.3,0.6c0.1,0.1,0.1,0.2,0.2,0.3c0.1,0.2,0.2,0.4,0.3,0.6c0,0.1,0.1,0.2,0.1,0.3
	c0.1,0.2,0.2,0.4,0.3,0.6c0,0.1,0.1,0.2,0.1,0.3c0.1,0.3,0.3,0.6,0.4,0.9c0,0,0,0.1,0.1,0.1c0.1,0.2,0.2,0.5,0.3,0.7
	c0.1,0.1,0.1,0.2,0.2,0.3c0.1,0.2,0.2,0.4,0.3,0.5c0,0.1,0.1,0.2,0.1,0.3c0.1,0.2,0.2,0.4,0.3,0.6c0,0.1,0.1,0.2,0.1,0.2
	c0.1,0.3,0.3,0.5,0.4,0.8c0.4,0.7,0.8,1.5,1.1,2.2c2.6,5.1,5,9.7,7.3,13.9c0.3,0.6,0.6,1.2,1,1.8c5.3,9.9,9.6,17.3,13.1,23.1
	c0.8,1.4,1.6,2.6,2.3,3.8c0.4,0.6,0.7,1.2,1,1.7l12.7,3c-3.5-5.5-7.9-12.5-13.3-21.7c-0.3-0.6-0.7-1.1-1-1.7
	c-2.4-4.1-5-8.6-7.8-13.6c-0.4-0.7-0.8-1.4-1.2-2.2c-0.1-0.2-0.3-0.5-0.4-0.7c0-0.1-0.1-0.2-0.1-0.2c-0.1-0.2-0.2-0.4-0.3-0.6
	c0-0.1-0.1-0.2-0.1-0.3c-0.1-0.2-0.2-0.3-0.3-0.5c-0.1-0.1-0.1-0.2-0.2-0.3c-0.1-0.2-0.2-0.4-0.4-0.7c0,0,0-0.1-0.1-0.1
	c-0.1-0.3-0.3-0.6-0.4-0.8c0-0.1-0.1-0.2-0.1-0.3c-0.1-0.2-0.2-0.4-0.3-0.6c-0.1-0.1-0.1-0.2-0.2-0.3c-0.1-0.2-0.2-0.4-0.3-0.6
	c-0.1-0.1-0.1-0.2-0.2-0.3c-0.1-0.2-0.2-0.4-0.3-0.6c-0.1-0.1-0.1-0.2-0.2-0.3c0-0.1-0.1-0.1-0.1-0.2c-0.2-0.4-0.5-0.9-0.7-1.4
	c0-0.1-0.1-0.2-0.1-0.2c-0.2-0.5-0.5-1-0.7-1.5c-0.1-0.1-0.1-0.2-0.2-0.3c-0.3-0.5-0.5-1-0.8-1.6c-0.3-0.5-0.5-1.1-0.8-1.6
	c0-0.1-0.1-0.2-0.1-0.3c-0.3-0.5-0.5-1.1-0.8-1.6c0-0.1-0.1-0.2-0.1-0.3c-0.3-0.6-0.5-1.1-0.8-1.7c-0.1-0.2-0.2-0.4-0.3-0.6
	c-0.2-0.5-0.5-1.1-0.8-1.6c-0.1-0.3-0.3-0.6-0.4-0.9c-0.2-0.5-0.4-1-0.7-1.4c-0.1-0.3-0.3-0.5-0.4-0.8c-0.2-0.5-0.5-1-0.7-1.5
	c-0.1-0.3-0.2-0.5-0.4-0.8c-0.3-0.6-0.6-1.2-0.8-1.8c-0.1-0.2-0.2-0.3-0.2-0.5c0,0,0,0,0,0c-0.4-0.8-0.7-1.5-1.1-2.3
	c-0.1-0.2-0.2-0.5-0.3-0.7c-0.3-0.5-0.5-1.1-0.8-1.7c-0.1-0.3-0.3-0.6-0.4-1c-0.2-0.5-0.4-1-0.7-1.5c-0.2-0.3-0.3-0.7-0.5-1
	c-0.2-0.5-0.5-1-0.7-1.5c-0.1-0.3-0.3-0.6-0.4-1c-0.4-0.8-0.7-1.6-1.1-2.4c-0.1-0.3-0.2-0.5-0.4-0.8c-0.2-0.6-0.5-1.1-0.8-1.7
	c-0.2-0.4-0.3-0.8-0.5-1.2c-0.2-0.5-0.4-0.9-0.6-1.4c-0.2-0.4-0.3-0.8-0.5-1.1c-0.2-0.5-0.4-1-0.7-1.5c-0.2-0.4-0.3-0.7-0.5-1.1
	c-0.1-0.2-0.1-0.3-0.2-0.5c-0.6-1.4-1.2-2.7-1.8-4.1c0-0.1-0.1-0.2-0.1-0.3c-0.6-1.3-1.2-2.7-1.8-4c-0.5-1.2-1.1-2.4-1.6-3.7
	c-0.2-0.5-0.4-1-0.7-1.5C236.7,218.1,221.6,182.5,218.5,182.5L218.5,182.5z"/>
<path id="rect6366" inkscape:connector-curvature="0" class="st1" d="M208.6,170C208.6,170,208.6,170,208.6,170
	c-5.5,0.8-4,58,4.2,111c9.5,61.7,15.8,93.4,25.3,108.2c2.7,4.2,5.5,7.8,8.4,10.7c-1,5.3-1.6,10.6-1.6,15.5c0,28,21.9,42.8,46.9,50.5
	c23.5,7.3,46.5,10.5,68,0c23.6-11.6,46.9-22.5,46.9-50.5s-22.3-39.5-47.7-45.5l-66.3-15.7c-5.3-8.8-13.5-22.5-25.7-46.4
	C249.3,273,213.8,170.1,208.6,170L208.6,170z"/>
<path id="path6131" inkscape:connector-curvature="0" sodipodi:nodetypes="sscccssscccsssssscccccssscccccsssssscccsss" class="st2" d="
	M215.3,132.3c-2,0-4,1.3-4.8,3.4c-1.4,3.6-1.1,4.9-0.2,5.7c-0.6,7.1-1.6,12.8-7.5,14.2c-5.5-0.5-6.1-8.1-7.5-14.2
	c0.8-0.8,0.9-2.2-0.4-5.5c-1.1-2.7-4-4.1-6.4-3.1c-2.4,1-3.3,5.2-2.2,7.9c0.6,1.4,1.5,2.1,2.6,2.4c3.9,8.6,3.1,13.8,1.3,18.5
	c-3.6,1.4-6.6,3.5-8.9,5.9l-3.3-6.8c-1.4-2.9-5.6-4.6-8.8-5c-2.3-0.3-5.8-0.2-10.1,0c-3.2,0.2-4.9,2.5-2.8,5l7.6,9.1
	c2.1,2.5,5,7.8,8.2,7.5l4.9-0.4c0,0.3-0.1,0.6-0.1,0.9c0,5.6,3.6,10.8,9.8,14.4c0,0.5-0.1,1-0.1,1.5c0,8.3,2.9,15.2,8.5,19
	c-0.2,1.2,0.3,3,0.1,4.2c-1.7,11.2,3.8,16.3,8.7,16.3s10.6-5.1,9.1-16.3c-0.2-1.5,0.3-2.7,0.1-4.1c5.1-4,7.4-11.4,7.5-19.1
	c0-0.5,0-1,0-1.6c6.2-3.5,9.7-8.8,9.8-14.4c0-0.2,0-0.4,0-0.7l4.8,0.4c3.2,0.3,6.2-5,8.2-7.5l7.6-9.1c2.1-2.5,0.4-4.8-2.8-5
	c-4.3-0.2-7.8-0.3-10.1,0c-3.2,0.4-7.4,2.1-8.8,5l-3.2,6.6c-2.5-2.6-5.9-4.8-9.9-6.3c-1.4-5.5-2.5-11.2-0.2-18.2
	c1.3-0.2,2.5-0.9,3.2-2.5c1.1-2.7,0.3-6.9-2.2-7.9C216.5,132.4,215.9,132.3,215.3,132.3L215.3,132.3z"/>
<path id="path6146" inkscape:connector-curvature="0" sodipodi:nodetypes="sssss" class="st3" d="M194.5,136.2
	c2.1,5.2,0.1,5-2.1,5.9c-2.1,0.9-4.5,0.7-5.5-1.7c-1-2.4-0.2-6,1.9-6.9C191,132.6,193.6,133.8,194.5,136.2z"/>
<path id="path6148" inkscape:connector-curvature="0" sodipodi:nodetypes="sssss" class="st3" d="M211.1,136c-2,5.1-0.1,5,2.1,5.9
	c2.1,0.9,4.4,0.7,5.4-1.7c1-2.4,0.2-6-1.9-6.8C214.6,132.5,212,133.7,211.1,136z"/>
<path id="path6157" inkscape:connector-curvature="0" sodipodi:nodetypes="sssssssss" class="st4" d="M161.8,158.4
	c3.3-0.2,5.7,0.8,7.4,1c2.4,0.3,5.8,0.6,6.8,2.8l4,8.2c1.1,2.2,0.3,3.5-2.1,3.8l-6.3,0.6c-2.4,0.2-3.8-5.4-5.6-7l-6.3-5.5
	C157.9,160.5,159.4,158.5,161.8,158.4L161.8,158.4z"/>
<path id="path6161" inkscape:connector-curvature="0" sodipodi:nodetypes="sssssssss" class="st4" d="M245.6,158.5
	c-3.3-0.2-5.7,0.8-7.4,1c-2.4,0.3-5.8,0.6-6.8,2.8l-4,8.2c-1.1,2.2-0.3,3.5,2.1,3.8l6.3,0.6c2.4,0.2,3.8-5.4,5.6-7l6.3-5.5
	C249.6,160.7,248.1,158.7,245.6,158.5L245.6,158.5z"/>
<path id="path6165" inkscape:connector-curvature="0" class="st3" d="M187.3,177.2c-3.5,0.1-6.3,1.7-7.2,4.1
	c0.9-0.6,2.2-0.9,3.7-1.1l-0.2,0.9c-0.2,3.1,2.7,5.9,6.6,6.2c3.9,0.4,7.3-1.8,7.6-4.9c-1.3-2.2-3.8-4-6.9-4.8
	C189.8,177.3,188.5,177.2,187.3,177.2L187.3,177.2z"/>
<ellipse id="path6181" class="st5" cx="186.6" cy="181.7" rx="1" ry="1.1"/>
<path id="path6183" inkscape:connector-curvature="0" class="st3" d="M187.3,177.2c-3.5,0.1-6.3,1.7-7.2,4.1
	c0.9-0.6,2.2-0.9,3.7-1.1l-0.2,0.9c-0.2,3.1,2.7,5.9,6.6,6.2c3.9,0.4,7.3-1.8,7.6-4.9c-1.3-2.2-3.8-4-6.9-4.8
	C189.8,177.3,188.5,177.2,187.3,177.2L187.3,177.2z"/>
<ellipse id="ellipse6185" class="st5" cx="186.6" cy="181.7" rx="1" ry="1.1"/>
<path id="path6187" inkscape:connector-curvature="0" class="st3" d="M220.2,177.2c3.5,0.1,6.3,1.7,7.2,4.1
	c-0.9-0.5-2.2-0.9-3.7-1.1l0.2,0.9c0.2,3.1-2.7,5.9-6.6,6.2c-3.9,0.4-7.3-1.8-7.6-4.9c1.3-2.2,3.8-4,6.9-4.8
	C217.7,177.3,218.9,177.2,220.2,177.2L220.2,177.2z"/>
<ellipse id="ellipse6189" class="st5" cx="220.8" cy="181.7" rx="1" ry="1.1"/>
<path id="path6191" inkscape:connector-curvature="0" class="st3" d="M220.2,177.2c3.5,0.1,6.3,1.7,7.2,4.1
	c-0.9-0.5-2.2-0.9-3.7-1.1l0.2,0.9c0.2,3.1-2.7,5.9-6.6,6.2c-3.9,0.4-7.3-1.8-7.6-4.9c1.3-2.2,3.8-4,6.9-4.8
	C217.7,177.3,218.9,177.2,220.2,177.2L220.2,177.2z"/>
<ellipse id="ellipse6193" class="st5" cx="220.8" cy="181.7" rx="1" ry="1.1"/>
<path id="ellipse6210" inkscape:connector-curvature="0" class="st6" d="M199.3,214.5c-0.5,0-1,0.1-1.5,0.3
	c-0.5,1.6-0.2,3.3,0.8,4.3c1.1,1,2.7,1.3,4.3,0.7c0.5-1.6,0.2-3.3-0.8-4.3C201.4,214.8,200.4,214.5,199.3,214.5z M209.7,214.5
	c-1.1,0-2.1,0.3-2.8,1c-1.1,1-1.4,2.7-0.8,4.3c1.6,0.6,3.3,0.3,4.3-0.7c1.1-1,1.4-2.7,0.8-4.3C210.7,214.6,210.2,214.5,209.7,214.5z
	"/>
<path id="path6265" inkscape:connector-curvature="0" class="st7" d="M191.1,163.4c-0.1,0-0.2,0-0.2,0.1c-0.9,0.5-1.1,6.9-0.2,7.5
	c0.9,0.5,6.5-2.5,6.6-3.6C197.3,166.4,192.5,163.4,191.1,163.4L191.1,163.4z M215.7,163.4c-1.4,0-6.2,2.9-6.2,3.9
	c0,1,5.7,4.1,6.6,3.6c0.9-0.5,0.8-7-0.2-7.5C215.9,163.4,215.8,163.4,215.7,163.4L215.7,163.4z M201,170.3c-1.8-0.1-8.1,3.9-8.1,5.2
	c0,1.4,7.4,5.4,8.6,4.7c1.2-0.7,1-9.2-0.2-9.8C201.2,170.4,201.2,170.3,201,170.3L201,170.3z M205.8,170.3c-0.1,0-0.2,0-0.3,0.1
	c-1.2,0.7-1.4,9.1-0.2,9.8c1.2,0.7,8.6-3.4,8.6-4.7C213.9,174.2,207.6,170.3,205.8,170.3L205.8,170.3z M201.8,185.8
	c-1.8-0.1-8.3,4-8.3,5.3c0,1.4,7.6,5.6,8.8,4.8c1.2-0.7,1-9.4-0.2-10.1C202,185.8,201.9,185.8,201.8,185.8L201.8,185.8z
	 M206.7,185.8c-0.1,0-0.2,0-0.3,0.1c-1.2,0.7-1.4,9.3-0.2,10.1s8.8-3.4,8.8-4.8C215,189.7,208.5,185.7,206.7,185.8L206.7,185.8z
	 M196.3,197.1c-0.1,0-0.2,0-0.3,0.1c-1,0.6-1.2,7.9-0.2,8.5s7.4-2.9,7.4-4.1C203.3,200.5,197.8,197.1,196.3,197.1L196.3,197.1z
	 M212.2,197.1c-1.5-0.1-7,3.3-7,4.5c0,1.2,6.4,4.7,7.4,4.1c1-0.6,0.9-7.9-0.2-8.5C212.3,197.1,212.3,197.1,212.2,197.1L212.2,197.1z
	 M202.9,206.3c-1,0-4.7,2.7-4.7,3.6c0,1,4.3,3.8,5,3.3c0.7-0.5,0.6-6.4-0.1-6.9C203,206.3,202.9,206.3,202.9,206.3L202.9,206.3z
	 M205.6,206.3c-0.1,0-0.1,0-0.2,0c-0.7,0.5-0.8,6.4-0.1,6.9c0.7,0.5,4.9-2.3,5-3.3C210.3,209,206.6,206.2,205.6,206.3z"/>
<path id="path6403" inkscape:connector-curvature="0" class="st8" d="M242.7,231.8c-1.7,1.8-3.4,3.5-5.2,5.1c0.8,2,1.6,4,2.4,6
	c0.2,0.5,0.4,1,0.6,1.5c0.5,1.2,1,2.5,1.5,3.7c0.5,1.4,1.1,2.7,1.6,4.1c0,0.1,0.1,0.2,0.1,0.3c0.6,1.4,1.1,2.8,1.7,4.2
	c0.1,0.2,0.1,0.3,0.2,0.5c0.1,0.4,0.3,0.7,0.4,1.1c0.2,0.5,0.4,1,0.6,1.5c0.2,0.4,0.3,0.8,0.5,1.2c0.2,0.5,0.4,1,0.6,1.4
	c0.2,0.4,0.3,0.8,0.5,1.2c0.2,0.6,0.5,1.1,0.7,1.7c0.1,0.3,0.2,0.5,0.3,0.8c0.3,0.8,0.7,1.6,1,2.5c0.1,0.3,0.3,0.7,0.4,1
	c0.2,0.5,0.4,1,0.6,1.5c0.1,0.4,0.3,0.7,0.4,1.1c0.2,0.5,0.4,1,0.6,1.5c0.1,0.3,0.3,0.7,0.4,1c0.2,0.6,0.5,1.1,0.7,1.7
	c0.1,0.3,0.2,0.5,0.3,0.8c0.3,0.8,0.7,1.6,1,2.4c0,0,0,0,0,0c0.1,0.2,0.1,0.4,0.2,0.5c0.3,0.6,0.5,1.2,0.8,1.9
	c0.1,0.3,0.2,0.5,0.3,0.8c0.2,0.5,0.4,1,0.7,1.6c0.1,0.3,0.2,0.6,0.4,0.8c0.2,0.5,0.4,1,0.6,1.5c0.1,0.3,0.2,0.6,0.4,0.9
	c0.2,0.5,0.5,1.1,0.7,1.6c0.1,0.2,0.2,0.4,0.3,0.6c0.3,0.6,0.5,1.2,0.7,1.7c0,0.1,0.1,0.2,0.1,0.3c0.2,0.6,0.5,1.1,0.7,1.6
	c0,0.1,0.1,0.2,0.1,0.3c0.2,0.6,0.5,1.1,0.7,1.6c0.2,0.5,0.5,1.1,0.7,1.6c0,0.1,0.1,0.2,0.1,0.3c0.2,0.5,0.5,1,0.7,1.5
	c0,0.1,0.1,0.2,0.1,0.2c0.2,0.5,0.4,0.9,0.6,1.4c0,0.1,0.1,0.1,0.1,0.2c0.1,0.1,0.1,0.2,0.2,0.3c0.1,0.2,0.2,0.4,0.3,0.6
	c0.1,0.1,0.1,0.2,0.2,0.3c0.1,0.2,0.2,0.4,0.3,0.6c0,0.1,0.1,0.2,0.1,0.3c0.1,0.2,0.2,0.4,0.3,0.6c0,0.1,0.1,0.2,0.1,0.3
	c0.1,0.3,0.3,0.6,0.4,0.9c0,0,0,0.1,0.1,0.1c0.1,0.2,0.2,0.5,0.3,0.7c0.1,0.1,0.1,0.2,0.2,0.3c0.1,0.2,0.2,0.4,0.3,0.5
	c0,0.1,0.1,0.2,0.1,0.3c0.1,0.2,0.2,0.4,0.3,0.6c0,0.1,0.1,0.2,0.1,0.2c0.1,0.3,0.3,0.5,0.4,0.8c0.4,0.7,0.8,1.5,1.1,2.2
	c2.6,5.1,5,9.7,7.3,13.9c0.3,0.6,0.6,1.2,1,1.8c5.3,9.9,9.6,17.3,13.1,23.1c0.8,1.4,1.6,2.6,2.3,3.8c0.4,0.6,0.7,1.2,1,1.7l12.7,3
	c-3.5-5.5-7.9-12.5-13.3-21.7c-0.3-0.6-0.7-1.1-1-1.7c-2.4-4.1-5-8.6-7.8-13.6c-0.4-0.7-0.8-1.4-1.2-2.2c-0.1-0.2-0.3-0.5-0.4-0.7
	c0-0.1-0.1-0.2-0.1-0.2c-0.1-0.2-0.2-0.4-0.3-0.6c0-0.1-0.1-0.2-0.1-0.3c-0.1-0.2-0.2-0.3-0.3-0.5c-0.1-0.1-0.1-0.2-0.2-0.3
	c-0.1-0.2-0.2-0.4-0.4-0.7c0,0,0-0.1-0.1-0.1c-0.1-0.3-0.3-0.6-0.4-0.8c0-0.1-0.1-0.2-0.1-0.3c-0.1-0.2-0.2-0.4-0.3-0.6
	c-0.1-0.1-0.1-0.2-0.2-0.3c-0.1-0.2-0.2-0.4-0.3-0.6c-0.1-0.1-0.1-0.2-0.2-0.3c-0.1-0.2-0.2-0.4-0.3-0.6c-0.1-0.1-0.1-0.2-0.2-0.3
	c0-0.1-0.1-0.1-0.1-0.2c-0.2-0.4-0.5-0.9-0.7-1.4c0-0.1-0.1-0.2-0.1-0.2c-0.2-0.5-0.5-1-0.7-1.5c-0.1-0.1-0.1-0.2-0.2-0.3
	c-0.3-0.5-0.5-1-0.8-1.6c-0.3-0.5-0.5-1.1-0.8-1.6c0-0.1-0.1-0.2-0.1-0.3c-0.3-0.5-0.5-1.1-0.8-1.6c0-0.1-0.1-0.2-0.1-0.3
	c-0.3-0.6-0.5-1.1-0.8-1.7c-0.1-0.2-0.2-0.4-0.3-0.6c-0.2-0.5-0.5-1.1-0.8-1.6c-0.1-0.3-0.3-0.6-0.4-0.9c-0.2-0.5-0.4-1-0.7-1.4
	c-0.1-0.3-0.3-0.5-0.4-0.8c-0.2-0.5-0.5-1-0.7-1.5c-0.1-0.3-0.2-0.5-0.4-0.8c-0.3-0.6-0.6-1.2-0.8-1.8c-0.1-0.2-0.2-0.3-0.2-0.5
	c0,0,0,0,0,0c-0.4-0.8-0.7-1.5-1.1-2.3c-0.1-0.2-0.2-0.5-0.3-0.7c-0.3-0.5-0.5-1.1-0.8-1.7c-0.1-0.3-0.3-0.6-0.4-1
	c-0.2-0.5-0.4-1-0.7-1.5c-0.2-0.3-0.3-0.7-0.5-1c-0.2-0.5-0.5-1-0.7-1.5c-0.1-0.3-0.3-0.6-0.4-1c-0.4-0.8-0.7-1.6-1.1-2.4
	c-0.1-0.3-0.2-0.5-0.4-0.8c-0.2-0.6-0.5-1.1-0.8-1.7c-0.2-0.4-0.3-0.8-0.5-1.2c-0.2-0.5-0.4-0.9-0.6-1.4c-0.2-0.4-0.3-0.8-0.5-1.1
	c-0.2-0.5-0.4-1-0.7-1.5c-0.2-0.4-0.3-0.7-0.5-1.1c-0.1-0.2-0.1-0.3-0.2-0.5c-0.6-1.4-1.2-2.7-1.8-4.1c0-0.1-0.1-0.2-0.1-0.3
	c-0.6-1.3-1.2-2.7-1.8-4c-0.5-1.2-1.1-2.4-1.6-3.7c-0.2-0.5-0.4-1-0.7-1.5C249.1,246.6,245.8,239,242.7,231.8L242.7,231.8z"/>
<path id="path6405" inkscape:connector-curvature="0" class="st9" d="M237.4,236.9c-8.2,7.1-18,12.1-28.4,14.6
	c1.1,9.7,2.3,19.7,3.8,29.5c9.5,61.7,15.8,93.4,25.3,108.2c2.7,4.2,5.5,7.8,8.4,10.7c-1,5.3-1.6,10.6-1.6,15.5
	c0,28,21.9,42.8,46.9,50.5c23.5,7.3,46.5,10.5,68,0c23.6-11.6,46.9-22.5,46.9-50.5c0-28-22.3-39.5-47.7-45.5l-66.3-15.7
	c-5.3-8.8-13.5-22.5-25.7-46.4C259.2,292.5,248,264,237.4,236.9L237.4,236.9z"/>
<path id="path6572" inkscape:connector-curvature="0" class="st7" d="M231.5,342.7c-0.1,0-0.3,0.1-0.4,0c-1.7-0.3-5.3-10.1-4.2-11.4
	s11.4,0.5,12,2C239.4,334.9,233.6,342.1,231.5,342.7L231.5,342.7z"/>
<path id="path6574" inkscape:connector-curvature="0" class="st7" d="M269.2,329.7c-2.1,0.8-11.1-1.2-11.5-2.8
	c-0.5-1.6,6.5-9.3,8.1-9c1.7,0.4,4.8,10.3,3.7,11.5C269.4,329.6,269.3,329.7,269.2,329.7L269.2,329.7z"/>
<path id="path6576" inkscape:connector-curvature="0" class="st7" d="M243,326.9c-2.7,1-14.5-1.6-15.2-3.6
	c-0.7-2.1,8.5-12.3,10.7-11.8c2.2,0.5,6.4,13.5,4.9,15.2C243.3,326.7,243.2,326.8,243,326.9L243,326.9z"/>
<path id="path6578" inkscape:connector-curvature="0" class="st7" d="M250.3,324.3c-0.2,0.1-0.3,0.1-0.5,0.1c-2.2-0.4-7-13.2-5.5-15
	c1.4-1.7,14.9,0.6,15.7,2.7C260.8,314.1,253.1,323.5,250.3,324.3L250.3,324.3z"/>
<path id="path6580" inkscape:connector-curvature="0" class="st7" d="M236,302.8c-2.8,1.1-14.9-1.7-15.5-3.7
	c-0.7-2.2,8.7-12.6,11-12.1c2.2,0.5,6.5,13.9,5,15.6C236.3,302.6,236.2,302.7,236,302.8L236,302.8z"/>
<path id="path6582" inkscape:connector-curvature="0" class="st7" d="M243.5,300.2c-0.2,0.1-0.4,0.1-0.5,0.1
	c-2.3-0.4-7.1-13.6-5.7-15.3c1.5-1.8,15.3,0.6,16.1,2.8C254.2,289.7,246.4,299.3,243.5,300.2L243.5,300.2z"/>
<path id="path6584" inkscape:connector-curvature="0" class="st7" d="M221.6,288.3c-0.2,0-0.3,0.1-0.4,0c-1.9-0.3-6-11.4-4.8-12.9
	c1.2-1.5,12.9,0.5,13.6,2.3C230.6,279.5,224,287.6,221.6,288.3z"/>
<path id="path6586" inkscape:connector-curvature="0" class="st7" d="M245.9,279.9c-2.3,0.9-12.5-1.4-13.1-3.1
	c-0.6-1.8,7.4-10.6,9.2-10.2c1.9,0.4,5.5,11.7,4.2,13.1C246.2,279.8,246.1,279.9,245.9,279.9L245.9,279.9z"/>
<path id="path6588" inkscape:connector-curvature="0" class="st7" d="M226.8,270.8c-1.6,0.6-8.6-1.7-9.1-3.1
	c-0.5-1.5,4.5-8.1,5.9-7.7c1.3,0.4,4.3,9.5,3.5,10.6C227,270.7,226.9,270.7,226.8,270.8L226.8,270.8z"/>
<path id="path6590" inkscape:connector-curvature="0" class="st7" d="M231,269.3c-0.1,0-0.2,0-0.3,0c-1.3-0.3-4.6-9.4-3.8-10.5
	c0.8-1.1,8.8,1,9.4,2.5C236.8,262.7,232.6,268.8,231,269.3L231,269.3z"/>
<path id="path6592" inkscape:connector-curvature="0" class="st7" d="M214.8,261c-0.1,0-0.2,0-0.2,0c-1-0.2-2.9-6.4-2.2-7.2
	c0.7-0.8,7,0.7,7.3,1.7C219.9,256.5,216.1,260.7,214.8,261L214.8,261z"/>
<path id="path6594" inkscape:connector-curvature="0" class="st7" d="M238.5,254.4c-1.3,0.4-6.8-1.2-7-2.1c-0.3-1,4.4-5.5,5.4-5.2
	c1,0.3,2.6,6.5,1.8,7.2C238.6,254.4,238.5,254.4,238.5,254.4L238.5,254.4z"/>
<path id="path6596" inkscape:connector-curvature="0" class="st7" d="M222.5,251.7c-1.7,0.5-8.9-1.6-9.2-2.8c-0.3-1.3,5.7-7.2,7-6.9
	s3.4,8.6,2.4,9.5C222.7,251.6,222.6,251.6,222.5,251.7L222.5,251.7z"/>
<path id="path6598" inkscape:connector-curvature="0" class="st7" d="M227.1,250.4c-0.1,0-0.2,0-0.3,0c-1.3-0.3-3.8-8.4-2.8-9.4
	c0.9-1,9.2,0.9,9.6,2.3C233.9,244.5,228.8,250,227.1,250.4L227.1,250.4z"/>
<path id="path6607" inkscape:connector-curvature="0" class="st7" d="M225.6,306.5c-0.1,0.1-0.3,0.1-0.3,0.2c-0.9,1,1.9,8.7,3.2,8.9
	c0.1,0,0.2,0,0.3,0c1.6-0.5,6.2-6.1,5.8-7.2C234.2,307.2,227.3,305.9,225.6,306.5L225.6,306.5z"/>
<path id="path6600" inkscape:connector-curvature="0" class="st7" d="M254,296.8c-1.7,0.6-6.4,5.8-6,6.9c0.4,1.2,7.4,2.8,9,2.2
	c0.1,0,0.2-0.1,0.2-0.2c0.9-1-1.6-8.7-2.8-9C254.3,296.8,254.2,296.8,254,296.8L254,296.8z"/>
<path id="path6611" inkscape:connector-curvature="0" class="st7" d="M219.9,238.3c-1.2,0.4-6.2-1.1-6.4-2c-0.2-0.9,4-5,4.9-4.8
	c0.9,0.3,2.4,6,1.7,6.6C220,238.3,220,238.3,219.9,238.3L219.9,238.3z"/>
<path id="path6613" inkscape:connector-curvature="0" class="st7" d="M223.1,237.4c-0.1,0-0.2,0-0.2,0c-0.9-0.2-2.6-5.9-2-6.6
	c0.7-0.7,6.4,0.7,6.7,1.6C227.8,233.3,224.3,237.1,223.1,237.4L223.1,237.4z"/>
<path id="rect4681" inkscape:connector-curvature="0" sodipodi:nodetypes="ssssscccssss" class="st10" d="M245.2,414.9h63.6
	c0,0,0,0,0,0v153.7c0,0,0,0,0,0h-15.9c-4.1-49.2,5.1-145.6-16.9-130.9c-17.3-11.7-16.4,58-14.9,130.9h-15.9c0,0,0,0,0,0L245.2,414.9
	C245.1,414.9,245.2,414.9,245.2,414.9L245.2,414.9z"/>
<path id="path4685" inkscape:connector-curvature="0" sodipodi:nodetypes="ssssscccssss" class="st10" d="M342.7,416.2h63.6
	c0,0,0,0,0,0V570c0,0,0,0,0,0h-15.9c-4.1-49.2,5.1-145.6-16.9-130.9c-17.3-11.7-16.4,58-14.9,130.9h-15.9c0,0,0,0,0,0L342.7,416.2
	C342.7,416.2,342.7,416.2,342.7,416.2L342.7,416.2z"/>
<path id="path4687" inkscape:connector-curvature="0" class="st11" d="M280.1,436.3c-1.3,0-2.7,0.5-4.2,1.5
	c-6.1-4.1-9.9,1.8-12.3,14.3c7.6,5.8,16.9,10.1,26.8,13.3C289.1,448.2,286.3,436.3,280.1,436.3L280.1,436.3z"/>
<path id="path4698" inkscape:connector-curvature="0" class="st11" d="M359.5,466.1c-5.5,2.7-11.1,4.4-16.8,5.5V570c0,0,0,0,0,0
	h15.9C357.7,530.2,357.1,491.2,359.5,466.1L359.5,466.1z"/>
<path id="path4716" inkscape:connector-curvature="0" class="st11" d="M245.2,419.5v149.2c0,0,0,0,0,0h15.9
	c-1-47.3-1.8-93.3,2.6-116.5C253.4,444.3,246.3,433.7,245.2,419.5L245.2,419.5z"/>
<path id="path4718" inkscape:connector-curvature="0" class="st7" d="M260.5,433.9c-0.2,0.1-0.4,0.2-0.5,0.2
	c-2.5,0.2-11.3-13.8-10.1-16.3c1.1-2.5,16.8-3.6,18.2-1.3C269.4,418.7,263.4,432.1,260.5,433.9L260.5,433.9z"/>
<path id="path4720" inkscape:connector-curvature="0" class="st7" d="M306.7,390.1c-1.8,1.2-11,1.4-11.9,0
	c-0.9-1.5,4.1-10.6,5.8-10.6c1.7,0,7.1,8.9,6.3,10.4C306.9,389.9,306.9,390,306.7,390.1L306.7,390.1z"/>
<path id="path4722" inkscape:connector-curvature="0" class="st7" d="M278,402.6c-3.4,2.2-20.5,2.3-22,0
	c-1.6-2.5,7.7-18.3,10.8-18.3c3.2-0.1,13.2,15.3,11.7,17.9C278.4,402.3,278.3,402.4,278,402.6L278,402.6z"/>
<path id="path4724" inkscape:connector-curvature="0" class="st7" d="M287.1,389.3c-0.2,0.1-0.3,0.2-0.5,0.2
	c-2.2,0.1-9.9-11.3-8.9-13.3c1-2,14.7-2.9,15.9-1C294.9,376.8,289.6,387.8,287.1,389.3L287.1,389.3z"/>
<path id="path4726" inkscape:connector-curvature="0" class="st7" d="M268.2,371.6c-2.5,1.7-14.9,1.8-16,0c-1.2-2,5.6-14.3,7.9-14.3
	c2.3,0,9.6,12,8.5,14C268.5,371.4,268.4,371.5,268.2,371.6L268.2,371.6z"/>
<path id="path4728" inkscape:connector-curvature="0" class="st7" d="M274.9,367.4c-0.2,0.1-0.3,0.2-0.5,0.2
	c-2.3,0.1-10.1-11.5-9.1-13.6c1-2.1,15-3,16.3-1.1C282.8,354.7,277.4,365.9,274.9,367.4z"/>
<path id="path4730" inkscape:connector-curvature="0" class="st7" d="M250.8,360.9c-0.1,0.1-0.3,0.1-0.4,0.1
	c-1.9,0.1-8.5-9.7-7.6-11.4c0.9-1.7,12.7-2.5,13.7-0.9C257.5,350.2,253,359.6,250.8,360.9z"/>
<path id="path4732" inkscape:connector-curvature="0" class="st7" d="M272.5,347.1c-2.1,1.4-12.5,1.5-13.5,0c-1-1.6,4.7-12,6.6-12.1
	c1.9,0,8.1,10.1,7.1,11.8C272.8,346.9,272.7,347,272.5,347.1L272.5,347.1z"/>
<path id="path4734" inkscape:connector-curvature="0" class="st7" d="M251.8,342.7c-1.4,1-8.8,0.4-9.5-0.9c-0.8-1.3,2.5-8.9,3.9-8.9
	c1.4,0.1,6.4,8.3,5.8,9.5C251.9,342.5,251.9,342.6,251.8,342.7L251.8,342.7z"/>
<path id="path4736" inkscape:connector-curvature="0" class="st7" d="M255.5,340.3c-0.1,0.1-0.2,0.1-0.3,0.1c-1.4,0-6.7-8-6.2-9.3
	c0.5-1.3,8.8-1.1,9.7,0.2C259.6,332.5,257,339.4,255.5,340.3z"/>
<path id="path4738" inkscape:connector-curvature="0" class="st7" d="M336.4,465.3c-0.1,0.1-0.2,0.2-0.3,0.2
	c-1.6,0.6-9.8-5.7-9.6-7.4c0.2-1.7,9.9-5.7,11.2-4.6C339,454.5,337.9,463.6,336.4,465.3L336.4,465.3z"/>
<path id="path4740" inkscape:connector-curvature="0" class="st7" d="M361.4,434.3c-1.3,1.8-10,4.8-11.2,3.8
	c-1.3-1.1,0.5-11.4,2.1-11.9s9.6,6.1,9.3,7.8C361.6,434,361.5,434.1,361.4,434.3L361.4,434.3z"/>
<path id="path4742" inkscape:connector-curvature="0" class="st7" d="M327.2,448c-2.1,2.8-16,7.7-17.9,6c-2.1-1.7,0.8-18.1,3.4-19
	c2.5-0.9,15.3,9.8,14.8,12.4C327.4,447.6,327.3,447.8,327.2,448L327.2,448z"/>
<path id="path4744" inkscape:connector-curvature="0" class="st7" d="M342.6,439.7c-0.1,0.1-0.3,0.2-0.4,0.3
	c-2.1,0.9-12.9-7.5-12.6-9.7c0.3-2.2,13-7.4,14.7-6.1C346,425.5,344.5,437.5,342.6,439.7L342.6,439.7z"/>
<path id="path4746" inkscape:connector-curvature="0" class="st7" d="M319,429.1c-1.8,2.4-13.5,6.5-15.1,5.1
	c-1.8-1.5,0.7-15.3,2.9-16.1c2.2-0.8,12.9,8.3,12.5,10.5C319.2,428.8,319.1,429,319,429.1L319,429.1z"/>
<path id="path4748" inkscape:connector-curvature="0" class="st7" d="M333.3,425.5c-0.2,0.2-0.4,0.4-0.6,0.4
	c-3,1.2-18.7-10.8-18.3-14c0.4-3.2,18.7-10.8,21.3-8.8C338.1,404.9,336,422.3,333.3,425.5L333.3,425.5z"/>
<path id="path4750" inkscape:connector-curvature="0" class="st7" d="M299.1,424.5c-0.1,0.1-0.2,0.2-0.3,0.3
	c-1.8,0.7-11.2-6.5-10.9-8.4s11.2-6.4,12.7-5.3C302,412.2,300.7,422.6,299.1,424.5L299.1,424.5z"/>
<path id="path4752" inkscape:connector-curvature="0" class="st7" d="M315.2,404.5c-1.5,2-11.4,5.5-12.8,4.3
	c-1.5-1.2,0.6-12.9,2.4-13.5c1.8-0.7,10.9,7,10.5,8.9C315.4,404.2,315.3,404.3,315.2,404.5L315.2,404.5z"/>
<path id="path4754" inkscape:connector-curvature="0" class="st7" d="M294.2,406.9c-1,1.3-8.2,3.2-9.3,2.2c-1.2-1-0.5-9.3,0.9-9.6
	c1.3-0.3,8.7,5.8,8.6,7.2C294.3,406.7,294.2,406.8,294.2,406.9L294.2,406.9z"/>
<path id="path4756" inkscape:connector-curvature="0" class="st7" d="M297,403.4c-0.1,0.1-0.2,0.1-0.2,0.2c-1.3,0.4-8.9-5.5-8.8-6.8
	c0.1-1.4,8-3.9,9.2-2.9C298.3,394.7,298.1,402.2,297,403.4L297,403.4z"/>
<path id="path4758" inkscape:connector-curvature="0" class="st7" d="M328,399.8c-0.1,0.1-0.2,0.3-0.3,0.3
	c-1.6,1.1-12.3-3.8-12.5-5.7c-0.2-1.9,9.4-8.8,11.2-8C328,387.2,329.1,397.6,328,399.8L328,399.8z"/>
<path id="path4760" inkscape:connector-curvature="0" class="st7" d="M339.1,376.6c-1,2.3-9.8,7.9-11.4,7.1
	c-1.7-0.9-2.4-12.7-0.7-13.7s12.2,4.3,12.3,6.2C339.2,376.3,339.2,376.4,339.1,376.6L339.1,376.6z"/>
<path id="path4762" inkscape:connector-curvature="0" class="st7" d="M319.1,383.8c-0.7,1.5-7.3,4.9-8.6,4.3
	c-1.4-0.7-2.6-8.9-1.4-9.6c1.2-0.6,9.8,3.7,10,5C319.2,383.6,319.2,383.7,319.1,383.8L319.1,383.8z"/>
<path id="path4764" inkscape:connector-curvature="0" class="st7" d="M321.1,379.8c-0.1,0.1-0.1,0.2-0.2,0.2
	c-1.2,0.7-9.9-3.3-10.2-4.6c-0.3-1.3,6.9-5.6,8.3-4.9C320.4,371,321.8,378.3,321.1,379.8L321.1,379.8z"/>
<path id="path4766" inkscape:connector-curvature="0" class="st7" d="M343.7,378.8c1.6-2.5,13.1-7.3,14.8-6.1
	c1.8,1.4,0.2,15.3-1.9,16.2c-2.1,0.9-13.4-7.5-13.1-9.7C343.6,379.2,343.6,379,343.7,378.8L343.7,378.8z"/>
<path id="path4768" inkscape:connector-curvature="0" class="st7" d="M339.2,385.3c0.1-0.2,0.2-0.3,0.4-0.3c2.1-1,13.7,6.9,13.6,9.1
	c-0.2,2.3-12.8,8.4-14.7,7.2C336.6,400.1,337.4,387.7,339.2,385.3L339.2,385.3z"/>
<path id="path4770" inkscape:connector-curvature="0" class="st7" d="M363.9,382.2c0.1-0.1,0.2-0.2,0.3-0.3
	c1.7-0.8,11.5,5.8,11.4,7.7c-0.1,1.9-10.8,7.1-12.4,6C361.7,394.6,362.4,384.2,363.9,382.2L363.9,382.2z"/>
<path id="path4772" inkscape:connector-curvature="0" class="st7" d="M349,403.2c1.4-2.1,11-6.2,12.5-5.1c1.5,1.1,0.2,12.9-1.6,13.7
	c-1.8,0.8-11.3-6.3-11.1-8.2C348.9,403.5,348.9,403.3,349,403.2L349,403.2z"/>
<path id="path4774" inkscape:connector-curvature="0" class="st7" d="M369.9,399.5c0.9-1.4,8-3.7,9.2-2.8c1.3,0.9,1,9.2-0.3,9.7
	c-1.3,0.4-9-5.3-9-6.6C369.8,399.6,369.8,399.5,369.9,399.5L369.9,399.5z"/>
<path id="path4776" inkscape:connector-curvature="0" class="st7" d="M367.3,403.1c0.1-0.1,0.1-0.1,0.2-0.2c1.3-0.5,9.2,4.9,9.2,6.3
	c0,1.4-7.7,4.3-9,3.5C366.5,411.8,366.3,404.4,367.3,403.1L367.3,403.1z"/>
<path id="path4778" inkscape:connector-curvature="0" class="st7" d="M254.1,390.5c-0.2,0.1-0.3,0.1-0.4,0.1
	c-2.1-0.2-7.3-11.8-6.1-13.5c1.2-1.7,13.9-0.5,14.7,1.4C263,380.3,256.6,389.5,254.1,390.5z"/>
<path id="path4780" inkscape:connector-curvature="0" class="st7" d="M298.7,371.3c-2.4,1.1-13.5-0.5-14.3-2.3
	c-0.8-1.9,7.1-11.9,9.1-11.7s6.8,12.1,5.5,13.7C299,371.2,298.9,371.2,298.7,371.3L298.7,371.3z"/>
<path id="rect4941" inkscape:connector-curvature="0" class="st12" d="M342.7,554.8V570c0,0,0,0,0,0h15.9
	c-0.1-5.1-0.2-10.2-0.3-15.2H342.7L342.7,554.8z M389.6,554.8c0.2,5.4,0.5,10.5,0.8,15.2h15.9c0,0,0,0,0,0v-15.2L389.6,554.8
	L389.6,554.8z"/>
<path id="path4948" inkscape:connector-curvature="0" class="st12" d="M245.1,554.8v13.9c0,0,0,0,0,0h15.9
	c-0.1-4.7-0.2-9.3-0.3-13.9H245.1L245.1,554.8z M292.1,554.8c0.2,4.9,0.4,9.6,0.8,13.9h15.9c0,0,0,0,0,0v-13.9H292.1L292.1,554.8z"
	/>
</svg>
