<?xml version="1.0" encoding="utf-8"?>
<!-- Generator: Adobe Illustrator 21.0.0, SVG Export Plug-In . SVG Version: 6.00 Build 0)  -->
<svg version="1.1" id="Layer_1" xmlns="http://www.w3.org/2000/svg" xmlns:xlink="http://www.w3.org/1999/xlink" x="0px" y="0px"
	 viewBox="0 0 595.3 841.9" style="enable-background:new 0 0 595.3 841.9;" xml:space="preserve">
<style type="text/css">
	.st0{fill:#2BB673;}
	.st1{fill:#282312;}
	.st2{fill:#E3DEDB;}
	.st3{fill:#927C70;}
	.st4{fill:#CCCCCC;}
	.st5{fill:#818181;}
	.st6{fill:#F3F3F3;}
	.st7{fill:#1A1A1A;}
	.st8{fill:#333333;}
	.st9{fill:#251F1D;}
	.st10{fill:#FFFFFF;}
	.st11{fill:#010101;}
	.st12{opacity:0.183;fill:#333333;enable-background:new    ;}
</style>
<rect x="45.1" y="161.1" class="st0" width="515.3" height="482.4"/>
<path id="path7402" inkscape:connector-curvature="0" class="st1" d="M189.4,256.2l-10.8,6.3v0c0.4,0.8,0.7,1.6,1.1,2.4
	c39.5,27.3,88,62.5,106.5,77.9c0.2-4.2,2.1-8.2,5.2-11.2c-1.5-1.8-3.1-3.6-4.7-5.4c-2.3,3.2-4.1,5.8-4.7,7c0.4-1.4,1.2-5.5,2.1-10
	c-0.2-0.3-0.5-0.6-0.8-0.9c-1.7,3.9-2.9,7.4-3.6,10.5h0c-1.1-3-0.7-7.4,1.3-13.1c-0.2-0.2-0.4-0.5-0.6-0.7c-1.9,3.4-3.6,6.5-5,9.3
	c0.8-2.5,2.3-5.8,4.4-9.9c-1.6-1.6-3.2-3.2-4.8-4.7c-2.4,4.5-4.3,8.6-4.9,10.2c0.3-1.8,1-7.2,1.9-13.1c0,0,0,0,0,0
	c-1.6,4.8-2.7,9.1-3.3,12.8c-0.8-3.2-0.3-8.2,1.5-14.6c-0.1-0.1-0.2-0.2-0.2-0.2c-1.5,3.9-2.9,7.5-4,10.6c0.6-2.6,1.8-6.4,3.5-11.1
	c-0.4-0.3-0.8-0.7-1.2-1c-2,3.9-3.6,7.2-4.1,8.6c0.3-1.6,0.9-5.9,1.6-10.8c-0.2-0.2-0.4-0.4-0.6-0.6c-1.2,4-2.1,7.7-2.6,10.9h0
	c-0.8-2.9-0.6-7.2,0.7-12.6c-0.2-0.2-0.5-0.4-0.7-0.6c-1.2,3.1-2.2,5.9-3.1,8.5c0.6-2.3,1.5-5.2,2.7-8.9c-1.1-0.9-2.2-1.8-3.3-2.7
	c-2.3,5.6-4,10.5-5,14.5c-1.1-2.7-0.1-8.3,2.8-16.3c-1.6-1.3-3.2-2.6-4.8-3.9c-2.5,4.6-4.5,8.6-5.1,10.2c0.3-1.8,1.1-7,1.9-12.8
	c-0.2-0.2-0.4-0.3-0.6-0.5c-1.6,4.7-2.7,9-3.3,12.8h0c-0.9-3.3-0.6-8.3,1-14.6c-0.2-0.2-0.5-0.3-0.7-0.5c-1.5,3.6-2.8,6.9-3.9,9.9
	c0.7-2.6,1.8-6.1,3.3-10.3c-1.5-1-3-2.1-4.6-3.1c-2.2,3.2-4.1,5.6-5.6,7.3c1.6-2.2,3.3-4.7,5.2-7.6c-0.1-0.1-0.3-0.2-0.4-0.3
	c-3.6,4.1-6.8,6.7-9.6,7.5c2.4-2.2,5-5.1,7.6-8.7c-0.1,0-0.1-0.1-0.2-0.1c-3.9,3.5-7.5,6.6-8.6,7.7c0.9-1.3,3.1-5.3,5.4-9.9
	c-4.7-3.1-9.6-6.1-14.6-8.9c-2.6,4.5-4.7,8.4-5.3,9.9c0.2-1.7,0.7-6.8,1.2-12.4c-0.2-0.1-0.3-0.2-0.5-0.2c-1.6,4.7-2.6,8.9-3,12.5
	c-1.5-3-1.5-7.7,0.1-14c-0.2-0.1-0.4-0.2-0.7-0.3c-1.6,3.8-3,7.3-4.1,10.3c0.6-2.6,1.8-6.2,3.5-10.7c-3.4-1.8-6.8-3.5-10.3-5.1
	c-1.5,4.7-2.5,8.9-3.1,12.3c-1.3-2.3-1.1-6.9,0.5-13.6C194.7,258.7,192.1,257.5,189.4,256.2L189.4,256.2z"/>
<path id="path7404" inkscape:connector-curvature="0" class="st1" d="M459.1,374.9c-2.9,0.5,14.4,67.2,17.8,106.8
	c2.4-2.3,5.4-4.2,8.8-5.4c0.6-0.2,1.2-0.4,1.8-0.6c-2-15-4-27.8-5.8-37.5c2,6.4,4.4,19.4,6.9,37.2c1.5-0.3,2.9-0.6,4.4-0.6
	c-4.1-16.9-8.2-31.3-12-41.9c4,7,9,21.7,14.2,41.9c0.9,0,1.8,0.1,2.7,0.3c1.4-27-24.8-84-38.3-99.9
	C459.4,375,459.2,374.9,459.1,374.9L459.1,374.9z"/>
<path id="path7406" inkscape:connector-curvature="0" sodipodi:nodetypes="sssssssss" class="st2" d="M119.9,228.9l14.2,5.9
	c3.9,1.6,6.8,6.2,6.5,10.4l-0.8,12.8c-0.2,4.2-3.8,6.7-7.4,4.6l-11.5-6.6c-1.8-1.1-5.9-6.2-6.6-9.2c-1.1-4.4-2.1-8.8-1.9-13.2
	C112.9,225.6,111.4,225.4,119.9,228.9z"/>
<path id="path7408" inkscape:connector-curvature="0" sodipodi:nodetypes="ssssscsss" class="st3" d="M122.2,235.8l8.3,3.4
	c2.3,0.9,4,3.6,3.8,6.1l-0.4,7.5c-0.1,2.4-3.2,4.9-4.3,2.7l-2-3.7c11.5-6.3-2.8-6.8-3.3-8.6c-0.7-2.6-6.6-2.2-6.5-4.7
	C118.1,233.8,117.2,233.7,122.2,235.8L122.2,235.8z"/>
<path id="path7410" inkscape:connector-curvature="0" sodipodi:nodetypes="sssssssss" class="st4" d="M119.9,228.9l14.2,5.9
	c3.9,1.6,6.8,6.2,6.5,10.4l-0.8,12.8c-0.2,4.2-3.8,6.7-7.4,4.6l-11.5-6.6c-1.8-1.1-5.9-6.2-6.6-9.2c-1.1-4.4-2.1-8.8-1.9-13.2
	C112.9,225.6,111.4,225.4,119.9,228.9z"/>
<path id="path7412" inkscape:connector-curvature="0" sodipodi:nodetypes="ssssscsss" class="st3" d="M122.2,235.8l8.3,3.4
	c2.3,0.9,4,3.6,3.8,6.1l-0.4,7.5c-0.1,2.4-3.2,4.9-4.3,2.7l-2-3.7c11.5-6.3-2.8-6.8-3.3-8.6c-0.7-2.6-6.6-2.2-6.5-4.7
	C118.1,233.8,117.2,233.7,122.2,235.8L122.2,235.8z"/>
<path id="path7414" inkscape:connector-curvature="0" sodipodi:nodetypes="sssssssss" class="st2" d="M191,228.9l-14.2,5.9
	c-3.9,1.6-6.8,6.2-6.5,10.4l0.8,12.8c0.2,4.2,3.8,6.7,7.4,4.6l11.5-6.6c1.8-1.1,5.9-6.2,6.6-9.2c1.1-4.4,2.1-8.8,1.9-13.2
	C198,225.6,199.5,225.4,191,228.9L191,228.9z"/>
<path id="path7416" inkscape:connector-curvature="0" sodipodi:nodetypes="ssssscsss" class="st3" d="M188.7,235.8l-8.3,3.4
	c-2.3,0.9-4,3.6-3.8,6.1l0.4,7.5c0.1,2.4,3.2,4.9,4.3,2.7l2-3.7c-11.5-6.3,2.8-6.8,3.3-8.6c0.7-2.6,6.6-2.2,6.5-4.7
	C192.8,233.8,193.7,233.7,188.7,235.8z"/>
<path id="path7418" inkscape:connector-curvature="0" sodipodi:nodetypes="sssssssss" class="st4" d="M191,228.9l-14.2,5.9
	c-3.9,1.6-6.8,6.2-6.5,10.4l0.8,12.8c0.2,4.2,3.8,6.7,7.4,4.6l11.5-6.6c1.8-1.1,5.9-6.2,6.6-9.2c1.1-4.4,2.1-8.8,1.9-13.2
	C198,225.6,199.5,225.4,191,228.9L191,228.9z"/>
<path id="path7420" inkscape:connector-curvature="0" sodipodi:nodetypes="ccccc" class="st5" d="M221.3,419.9h21.7
	c8.1,15-8.8,80.8,0,143h-21.7C226.5,511.8,225.3,464.9,221.3,419.9z"/>
<path id="path7422" inkscape:connector-curvature="0" sodipodi:nodetypes="ccccc" class="st5" d="M371.2,421l50.3-1.1
	c-6.9,12-23.5,92.2-8,143h-21.7C386.8,502.5,379.2,460.4,371.2,421L371.2,421z"/>
<path id="path7424" inkscape:connector-curvature="0" class="st6" d="M179.2,264.5c3.4,7.8,5.1,16.8,3.8,25.5
	c-2,13.5-6.7,30.7-13.3,41.6c16.7,33.1,33.2,64.5,41.2,77.2c4.1,18.9,21.2,30.6,41.4,36c2.9,40.6,7.3,81.9,0,118.1h21.7
	c-6.5-35.1,1.8-82,3.6-113.1c49.1,7.1,101.8,2,138-3.8c6.1,32.7,11.8,69,15.7,116.9H453c-13.3-43.7-2.9-109,4.7-134.2
	c1.3-2.4,2.3-5.2,3.2-8.5c0.1-0.1,0.1-0.2,0.2-0.3l-0.1,0c1.4-5.4,2.1-12,2.1-20.1v-10.9c0-20.6-14.8-45.9-45.9-45.9H286.4
	C268,327.6,218.9,292,179.2,264.5L179.2,264.5z"/>
<path id="path7426" inkscape:connector-curvature="0" sodipodi:nodetypes="sssss" class="st6" d="M183.4,291.6
	c-3.3,22.8-13.5,55.4-28.1,55.4c-14.6,0-24.4-34-28.1-56.7c-3.6-22.4,14.8-47.1,29.4-47.1C171.2,243.2,186.8,268.9,183.4,291.6z"/>
<path id="path7428" inkscape:connector-curvature="0" class="st7" d="M149.8,247c-0.6,0-1.2,0.1-1.7,0.5c-3.9,2-11.5,9.3-13.3,15.5
	c-1.6,5.4-4.1,8.5,5.2,24.6c3.8,5,5.7,10.4,6.8,15.1c-1.5-2.1-3.3-4-5.2-5.5c-3.2-2.5-6.7-3.8-9.9-3.8c-1.3,0-2.6,0.2-3.7,0.7
	c0.1,0.6,0.2,1.2,0.3,1.8c5.9-0.2,12.6,4.2,16.8,11c1.8,2.9,3,6.1,3.6,9.2c-1.1-1.3-2.4-2.5-3.8-3.5c-2.5-2-5.4-3.5-8.3-4.4
	c-2-0.6-4-0.9-5.9-0.9c0.3,1.2,0.6,2.4,0.9,3.6c4,0.6,8.1,2.4,11.6,5.2c2.2,1.7,4,3.6,5.6,5.8c-0.2,1.7-0.6,3.3-1.3,4.7
	c-2.2-4.2-6.6-7.9-11.9-10.1c-0.9-0.4-1.8-0.7-2.7-0.9c0.5,1.5,0.9,3,1.4,4.4c0.2,0.1,0.5,0.2,0.7,0.3c7.4,3,12.8,8.9,13.6,14.7
	c0.7-2.5,0.4-5.4-1.1-8.2c1-0.8,1.8-1.8,2.4-3c2,3.5,2.9,7.1,2.5,10.2c2.3-3.7,1.8-9-1.2-14.1c0.1-0.6,0.2-1.3,0.2-2
	c1,1.8,2,3.3,2.7,4c0.2,0.2,0.5,0.3,0.7,0.3c0.2,0,0.5-0.1,0.7-0.3c0.7-0.7,1.7-2.1,2.7-3.9c0,0.6,0.1,1.1,0.2,1.6
	c-3.2,5.2-3.7,10.6-1.4,14.4c-0.4-3.2,0.5-6.9,2.6-10.5c0.6,1.2,1.4,2.2,2.3,3c-1.5,2.8-1.9,5.6-1.3,8.1c-0.1,0.2-0.1,0.4-0.1,0.6
	c2.4-3.6,7.2-6.2,12.9-7.1c0.5-1.2,1-2.4,1.5-3.7c-6.8,0.9-12.2,4.4-13.9,9c1.4-5.4,6.6-10.5,13.4-13.3c0.8-0.3,1.6-0.6,2.4-0.8
	c0.5-1.4,0.9-2.8,1.4-4.3c-1.5,0.3-2.9,0.8-4.3,1.3c-5.2,2.1-9.5,5.7-11.7,9.8c-0.6-1.4-1-2.9-1.2-4.6c1.5-2,3.3-3.9,5.3-5.5
	c4-3.1,8.7-5,13.1-5.3c0.3-1.1,0.6-2.2,0.8-3.3c-0.3,0-0.7-0.1-1.1-0.1c-2,0-4.1,0.3-6.2,0.9c-2.9,0.9-5.7,2.4-8.3,4.4
	c-1.3,1-2.4,2.1-3.5,3.2c0.6-3,1.8-6.1,3.6-8.9c4.5-7.3,11.7-11.7,17.8-10.9c0.1-0.5,0.2-1,0.2-1.4c-1.4-0.7-2.9-1.1-4.6-1.1
	c-3.2,0-6.7,1.3-9.9,3.8c-2.2,1.7-4.2,3.9-5.8,6.4c1-4.9,2.9-10.6,6.9-16c9.3-16.1,6.8-19.3,5.2-24.6c-1.8-6.2-9.5-13.5-13.3-15.5
	c-0.6-0.3-1.2-0.5-1.7-0.5c-0.2,0-0.4,0-0.6,0.1c6.8,3.7,24.4,22.2,7.6,40.5c-3.9,4.7-5.3,9.9-6,14.6c-0.4-1.9-1-4.2-2-7.2
	c-3.4-8-2.7-17.2-3.6-18.9c0-0.1,0-0.2,0.1-0.2c-0.1-0.1-0.2-0.1-0.3,0c-0.1,0-0.2,0-0.3,0c0,0.1,0.1,0.1,0.1,0.2
	c-0.9,1.7-0.1,10.9-3.6,18.9c-1.2,3.8-1.9,6.5-2.2,8.6c-0.5-5.1-1.9-10.8-6.1-16c-16.8-18.4,0.9-36.9,7.6-40.5
	C150.2,247,150,247,149.8,247L149.8,247z M154.9,277.5c0,0.5,0,1,0,1.6C154.9,278.5,154.9,278,154.9,277.5z M154.9,289.4
	c0.2,2.1,0.7,4.2,1.6,6.2c2.8,5.4,3.3,10.7,2.7,15.2c-0.4,1.4-0.7,2.8-0.8,4.1c-1,3.4-2.4,6-3.5,7.1c-1.1-1.1-2.6-3.7-3.5-7.3
	c-0.1-1.2-0.4-2.4-0.7-3.7c-0.6-4.5-0.2-9.9,2.7-15.4C154.2,293.6,154.7,291.5,154.9,289.4L154.9,289.4z M136.2,324.9
	c0.5,1.3,1,2.5,1.5,3.7c4.5,1.2,8.1,3.5,10.1,6.5C147.1,330.4,142.6,326.5,136.2,324.9L136.2,324.9z"/>
<path id="path7430" inkscape:connector-curvature="0" sodipodi:nodetypes="ssssscsss" class="st3" d="M188.7,235.8l-8.3,3.4
	c-2.3,0.9-4,3.6-3.8,6.1l0.4,7.5c0.1,2.4,3.2,4.9,4.3,2.7l2-3.7c-11.5-6.3,2.8-6.8,3.3-8.6c0.7-2.6,6.6-2.2,6.5-4.7
	C192.8,233.8,193.7,233.7,188.7,235.8z"/>
<path id="path7432" inkscape:connector-curvature="0" class="st8" d="M147.9,315.9c-0.4,0-0.6,0.4-0.6,1.5v10.3c-3,2.2-5,5.8-5,9.9
	v5.5c0,6.8,5.5,12.3,12.3,12.3h0.5c6.8,0,12.3-5.5,12.3-12.3v-5.5c0-4.1-2-7.6-5-9.9v-10.3c0-4.2-3.1,1.7-7.3,1.7
	C151.9,319.1,149.1,315.8,147.9,315.9L147.9,315.9z"/>
<path id="path7434" inkscape:connector-curvature="0" class="st9" d="M129.7,280.7c-2.5,0-4.6,1.6-4.6,3.5c0,2,2.1,3.5,4.6,3.5
	c1.6,0,3.2-0.7,4-1.8l0,0l1.3-1.1l-0.8-1.4l0,0C133.7,281.9,131.8,280.7,129.7,280.7L129.7,280.7z"/>
<circle id="circle7436" class="st10" cx="126.9" cy="283.1" r="1"/>
<ellipse id="ellipse7438" transform="matrix(0.7346 -0.6786 0.6786 0.7346 -193.2047 192.624)" class="st11" cx="149.6" cy="343.3" rx="2.2" ry="5"/>
<ellipse id="ellipse7440" transform="matrix(0.6786 -0.7346 0.7346 0.6786 -200.7342 227.7998)" class="st11" cx="159.9" cy="343.3" rx="5" ry="2.2"/>
<path id="path7442" inkscape:connector-curvature="0" class="st11" d="M130.8,279.8c-2.2-0.9-4.6-0.7-6.3,0.5
	c1.7,0.1,3.6,0.6,5.4,1.3c2,0.8,3.8,2,5.1,3.2C134.6,282.7,133,280.8,130.8,279.8z"/>
<path id="path7444" inkscape:connector-curvature="0" class="st11" d="M135,284.9c-1.2,0.7-2.7,1.4-4.2,1.8
	c-1.4,0.4-2.8,0.7-4.1,0.8c1.4,0.5,3,0.5,4.5,0C132.7,287.1,134.1,286.1,135,284.9L135,284.9z"/>
<path id="path7446" inkscape:connector-curvature="0" class="st9" d="M180.8,280.7c2.5,0,4.6,1.6,4.6,3.5c0,2-2.1,3.5-4.6,3.5
	c-1.6,0-3.2-0.7-4-1.8l0,0l-1.3-1.1l0.8-1.4l0,0C176.8,281.9,178.6,280.7,180.8,280.7L180.8,280.7z"/>
<circle id="circle7448" class="st10" cx="183.6" cy="283.1" r="1"/>
<path id="path7450" inkscape:connector-curvature="0" class="st11" d="M179.7,279.8c2.2-0.9,4.6-0.7,6.3,0.5
	c-1.7,0.1-3.6,0.6-5.4,1.3c-2,0.8-3.8,2-5.1,3.2C175.8,282.7,177.5,280.8,179.7,279.8L179.7,279.8z"/>
<path id="path7452" inkscape:connector-curvature="0" class="st11" d="M175.5,284.9c1.2,0.7,2.7,1.4,4.2,1.8
	c1.4,0.4,2.8,0.7,4.1,0.8c-1.4,0.5-3,0.5-4.5,0C177.8,287.1,176.4,286.1,175.5,284.9L175.5,284.9z"/>
<path id="path7454" inkscape:connector-curvature="0" class="st1" d="M390.3,546c0.5,5.5,1,11.1,1.5,16.9h21.7
	c-1.6-5.3-2.9-11-3.8-16.9H390.3L390.3,546z"/>
<path id="path7456" inkscape:connector-curvature="0" class="st1" d="M254.8,546c-0.6,5.7-1.5,11.4-2.6,16.9h21.7
	c-1-5.4-1.7-11-2-16.9H254.8z M429.7,546c0,0.2,0,0.3,0,0.5c0.2,2.6,0.5,5.1,0.7,7.8c0,0,0,0,0,0.1c0.3,2.8,0.5,5.7,0.7,8.6H453
	c-0.4-1.4-0.8-2.7-1.2-4.1c-0.3-1-0.5-2-0.7-3c-0.1-0.4-0.2-0.7-0.3-1.1c-0.6-2.8-1.2-5.7-1.7-8.6H429.7L429.7,546z"/>
<path id="path7458" inkscape:connector-curvature="0" class="st1" d="M222.8,546c-0.4,5.6-0.9,11.2-1.5,16.9h21.7
	c-0.8-5.6-1.4-11.2-1.8-16.9H222.8z"/>
<path id="path7460" inkscape:connector-curvature="0" class="st1" d="M203.3,281.4c-11.8,20.8-21.7,44.8-25.3,66.8
	c0.4,0.8,0.8,1.6,1.2,2.3c5.3-15.8,16.8-40.1,30.8-64.4C207.8,284.6,205.6,283,203.3,281.4L203.3,281.4z"/>
<path id="path7462" inkscape:connector-curvature="0" class="st12" d="M179.8,265.4c3.4,7.8,5.1,16.8,3.8,25.5
	c-2,13.5-6.7,30.7-13.3,41.6c1.9,3.7,3.7,7.3,5.5,10.9c6.7-9.6,9.6-22.3,13.4-33.1c3.4-11.7,4.4-24.8,2-36.9
	C187.3,270.7,183.5,268,179.8,265.4L179.8,265.4z"/>
<path id="path7464" inkscape:connector-curvature="0" class="st1" d="M235.5,304.5c-15.9,21-31.7,50.7-39.1,78.9
	c0.8,1.6,1.7,3.2,2.5,4.7c8.9-21.9,24.9-52.6,42.6-79.2C239.6,307.4,237.5,305.9,235.5,304.5L235.5,304.5z"/>
<path id="path7466" inkscape:connector-curvature="0" class="st1" d="M441.3,349.4c-25.1,29.3-48.5,65.9-65.2,101.6
	c0.5,0,1-0.1,1.5-0.1c16.2-25.6,42.9-60,74.8-91.9C449.3,355.3,445.6,352,441.3,349.4L441.3,349.4z"/>
<path id="path7468" inkscape:connector-curvature="0" class="st1" d="M460.8,374.8c-24.1,16.8-52.1,45.4-67.6,74.3
	c1.4-0.2,2.7-0.4,4.1-0.5c14.9-18.9,39.9-45,65.2-66.1C462.2,379.9,461.6,377.4,460.8,374.8L460.8,374.8z"/>
<path id="path7470" inkscape:connector-curvature="0" class="st1" d="M376.5,343c-12.4,30-21.3,74.9-15.9,109.2
	c0.4,0,0.7-0.1,1.1-0.1c0.6-23.5,9.1-70.2,22.1-109.2L376.5,343L376.5,343z"/>
<path id="path7472" inkscape:connector-curvature="0" class="st1" d="M274.3,333.3c-4.8,33.5-0.7,84.7,16.4,118.1
	c0.2,0,0.3,0,0.5,0.1c-6.4-20.7-12-70.1-10.6-113.1C278.7,336.8,276.6,335.1,274.3,333.3z"/>
<path id="path7474" inkscape:connector-curvature="0" class="st1" d="M292.9,343c-3.1,35.8-1.9,76.6,6.8,107.4
	c-3-19.4-2.8-63.2,1-107.4H292.9z M299.7,450.4c0.1,0.6,0.2,1.2,0.3,1.8c0.1,0,0.2,0,0.3,0C300.1,451.6,299.9,451,299.7,450.4
	L299.7,450.4z"/>
<path id="path7476" inkscape:connector-curvature="0" class="st1" d="M252,316.5c-23.7,30.7-41.2,62-46.4,83.4
	c0.6,1,1.2,2.2,1.8,3.2c9-23.7,27.1-53.7,49.9-82.6C255.5,319.1,253.7,317.8,252,316.5z"/>
<path id="path7478" inkscape:connector-curvature="0" class="st1" d="M263.1,324.8c-16.2,30.5-32.9,56.4-45.7,71
	c10.8-7.1,29.6-33.6,48.7-68.8C265.2,326.4,264.1,325.6,263.1,324.8L263.1,324.8z"/>
<path id="path7480" inkscape:connector-curvature="0" class="st1" d="M262.8,324.5c-3.5,8.9-6.8,18-9.8,27
	c-14.3,42.9-20.2,77.8-14.4,86.1c-0.7-17,6.2-49.1,18.4-85.5c2.8-8.4,5.8-16.8,9-25.2C265,326.2,263.8,325.3,262.8,324.5z"/>
<path id="path7482" inkscape:connector-curvature="0" class="st1" d="M222.5,295.1c-16.5,23.3-30,46.9-37.8,66.2
	c0.8,1.5,1.6,3.1,2.4,4.6c9.4-20.5,23.6-44.2,40.2-67.3C225.8,297.4,224.2,296.3,222.5,295.1L222.5,295.1z"/>
<path id="path7484" inkscape:connector-curvature="0" class="st1" d="M266.4,352.9c-7.5,15.2-7.1,52.5,1,95.8c2,0.3,4.1,0.6,6.1,0.8
	C265.8,411.4,263.2,375.9,266.4,352.9L266.4,352.9z"/>
<path id="path7486" inkscape:connector-curvature="0" class="st1" d="M307.8,343c1,46.6,9,86,20.2,99.9
	c-8.5-22.5-13.7-59.5-14.3-99.9H307.8z"/>
<path id="path7488" inkscape:connector-curvature="0" class="st1" d="M255.5,390.3c-4.8,9.9-6.2,29.2-4.1,54.2
	c1.8,0.5,3.5,0.9,5.3,1.3C254,423.8,253.6,404.6,255.5,390.3L255.5,390.3z"/>
<path id="path7490" inkscape:connector-curvature="0" class="st1" d="M243,376.1c-7.1,7.2-16.7,23.2-27.2,45c0.6,1,1.3,2,2.1,3
	C226.8,404.4,235.4,387.9,243,376.1z"/>
<path id="path7492" inkscape:connector-curvature="0" class="st1" d="M351.3,343c-0.2,42.1-5.5,81.1-14.3,104.6
	c11.6-14.4,19.7-56.1,20.2-104.6H351.3L351.3,343z"/>
<path id="path7494" inkscape:connector-curvature="0" class="st1" d="M407.8,343c-3.4,5.7-6.6,11.5-9.7,17.5
	c-17.8,34.1-29.3,68.1-30.8,91.3c1.4-0.1,2.8-0.2,4.1-0.3c4.7-24.5,16.2-55,32-85.3c4.1-7.9,8.5-15.6,13-23.1H407.8z"/>
<path id="path7496" inkscape:connector-curvature="0" class="st1" d="M324.7,343c-3.7,42.3-2,72.8,4.4,77.8
	c-3.5-14.4-3.7-42.8-0.6-77.8H324.7z"/>
<path id="path7498" inkscape:connector-curvature="0" class="st1" d="M339,343c0.5,38.2-3,73.4-9.5,96c9.1-14.8,14.9-52.2,14.8-96
	H339z"/>
<path id="path7500" inkscape:connector-curvature="0" class="st1" d="M308.4,402.1c-1.6,9.7-0.4,27.7,3.4,50.8c1,0,2.1,0.1,3.1,0.1
	C311.2,433,308.9,415.4,308.4,402.1L308.4,402.1z"/>
<path id="path7502" inkscape:connector-curvature="0" class="st1" d="M463.1,396.7c-28.8,18.3-46.4,33.6-46.7,40.6
	c7.8-9.1,24.3-21.8,46.6-36c0-0.5,0-1,0-1.5V396.7L463.1,396.7z"/>
<path id="path7504" inkscape:connector-curvature="0" class="st1" d="M154,219.5c-3.2,2.9-5,9.6-5.2,19.2
	c-0.4-6.5-0.6-12.3-0.7-17.1c-0.8,6.3-0.5,19.1,0.9,35.9c0.4,0.1,0.8,0.1,1.2,0.1c0,0,0,0,0,0c0.3,0,0.7,0,1,0.1
	c0.3,0,0.6,0,0.9,0.1c5.8,0.3,14.2-0.2,13-0.3c-3-0.3-8.9-32-9-37.3c-0.4,1.9-2,7.8-3.8,14.3C152.4,228.5,153,223.5,154,219.5
	L154,219.5z"/>
<path id="path7506" inkscape:connector-curvature="0" class="st1" d="M159.6,240.8c0.2,1,0.4,2,0.7,3c3.6,1,7.1,3.4,10.3,6.8
	l-0.3-5.4c0-0.1,0-0.1,0-0.2c-1.1-0.5-2.2-1-3.3-1.5C164.5,242.4,162.1,241.5,159.6,240.8L159.6,240.8z"/>
<path id="path7508" inkscape:connector-curvature="0" class="st5" d="M275.1,313.6c-2.4,4.5-4.3,8.6-4.9,10.2c0.2-1.1,0.6-3.7,1-6.9
	c-0.6,1.2-1.3,2.4-1.9,3.6c-0.2,1-0.4,2-0.5,2.9c-0.1-0.5-0.2-0.9-0.2-1.5c-0.9,1.7-1.8,3.4-2.7,5.1c3.1,2.4,6.1,4.6,8.8,6.7
	c1.9-4.5,4-8.9,6.1-13.3c0.1-0.3,0.2-0.5,0.3-0.8c-0.2-0.2-0.4-0.5-0.6-0.7c-1.9,3.4-3.6,6.5-5,9.3c0.8-2.5,2.3-5.8,4.4-9.9
	C278.4,316.7,276.8,315.1,275.1,313.6L275.1,313.6z"/>
<path id="path7510" inkscape:connector-curvature="0" class="st5" d="M265.8,306c-0.5,0.8-1.1,1.5-1.6,2.3c-0.7,2.5-1.2,4.8-1.5,6.9
	h0c-0.3-1.2-0.4-2.6-0.4-4.2c-1.8,2.9-3.7,5.9-5.4,9c2.1,1.5,4,3,5.9,4.4c1.5-3.5,3.1-6.8,4.7-10.2c0.6-1.8,1.3-3.9,2.1-6.3
	c-0.4-0.3-0.8-0.7-1.2-1c-2,3.9-3.6,7.2-4.1,8.6C264.6,314.3,265.2,310.5,265.8,306L265.8,306z M270.1,308.6
	c-0.4,1.1-0.9,2.2-1.3,3.3c0.5-0.9,0.9-1.8,1.4-2.7c0-0.1,0.1-0.2,0.1-0.3C270.2,308.7,270.1,308.7,270.1,308.6L270.1,308.6z"/>
<path id="path7512" inkscape:connector-curvature="0" class="st5" d="M239.9,284.5c-2.2,3.2-4.1,5.6-5.6,7.3
	c1.4-1.9,2.9-4.1,4.5-6.5c-3.8,4.3-7.5,8.8-11.2,13.6c2.6,1.9,5.1,3.7,7.7,5.6c2.2-3.3,4.5-6.5,6.8-9.6c0.6-2,1.4-4.4,2.4-7.1
	C243,286.5,241.5,285.5,239.9,284.5L239.9,284.5z M245.1,287.9c-0.8,2.1-1.6,4-2.4,5.9c0.9-1.2,1.8-2.4,2.7-3.5
	c0.1-0.6,0.3-1.3,0.4-1.9C245.5,288.3,245.3,288.1,245.1,287.9L245.1,287.9z"/>
<path id="path7514" inkscape:connector-curvature="0" class="st5" d="M252.7,294c-1.3,1.6-2.6,3.3-3.8,4.9c-1,2-1.8,3.7-2.2,4.6
	c0.1-0.4,0.2-1.5,0.4-2.3c-0.2,0.3-0.4,0.6-0.7,0.8c-1.7,2.3-3.3,4.5-4.8,6.8c3.6,2.7,7.1,5.2,10.5,7.7c3.1-4.8,6.4-9.6,9.9-14.3
	c0.1-0.2,0.1-0.4,0.2-0.7c-1.1-0.9-2.2-1.8-3.3-2.7c-2.3,5.6-4,10.5-5,14.5c-1.1-2.7-0.1-8.3,2.8-16.3
	C255.4,296.1,254.1,295.1,252.7,294L252.7,294z"/>
<path id="path7516" inkscape:connector-curvature="0" class="st5" d="M286.7,326.2c-1.8,2.5-3.3,4.6-4.1,6c-0.6,2.1-1.1,4.2-1.7,6.4
	c1.9,1.5,3.7,3,5.2,4.2c0.2-4.2,2.1-8.2,5.2-11.2C289.9,329.8,288.3,327.9,286.7,326.2L286.7,326.2z"/>
<path id="path7518" inkscape:connector-curvature="0" class="st5" d="M221.1,272.6c-3.7,4.5-7.4,9.1-11,13.7c4.2,3,8.3,5.9,12.4,8.9
	c3.5-5,7-10.1,10.6-15.1C229.2,277.4,225.2,275,221.1,272.6z"/>
<path id="path7520" inkscape:connector-curvature="0" class="st5" d="M189.6,256.3c-2.1,3.7-4.1,7.5-6.1,11.3
	c6.5,4.5,13.1,9.1,19.8,13.9c1.9-3.9,3.9-7.9,5.8-11.8c0.3-1,0.7-2,1.1-3.1c-3.4-1.8-6.8-3.5-10.3-5.1c-1.5,4.7-2.5,8.9-3.1,12.3
	c-1.3-2.3-1.1-6.9,0.5-13.6C194.8,258.8,192.2,257.5,189.6,256.3L189.6,256.3z"/>
<path id="path7522" inkscape:connector-curvature="0" class="st1" d="M255.9,453.3c3.9,2.7,11.4,4.6,21,5.4c0.1-0.7,0.1-1.4,0.2-2.2
	C268.7,456.2,261.4,455.1,255.9,453.3z M258.5,461.7c3.4,2.3,9.6,4.1,17.7,5.1c0.1-0.7,0.1-1.4,0.2-2
	C269.3,464.2,263.2,463.2,258.5,461.7z M254,469.5c0,0.2,0,0.5,0.1,0.7c4.7,2.2,12.3,3.7,21.3,4.2c0.1-0.8,0.1-1.5,0.2-2.2
	C267.3,471.9,259.9,471,254,469.5L254,469.5z M257.7,476.2c3.3,2.3,9.3,4,17.1,5c0.1-0.7,0.1-1.3,0.2-2
	C268.2,478.7,262.3,477.7,257.7,476.2L257.7,476.2z"/>
<path id="path7524" inkscape:connector-curvature="0" class="st1" d="M388.2,466.1c3.9,2.3,11.6,4.1,21.6,5.1
	c0.1-0.6,0.1-1.1,0.2-1.7C401.3,468.9,393.8,467.7,388.2,466.1z M390.5,472.8c3.5,2,10,3.7,18.5,4.8c0.1-0.5,0.1-1.1,0.2-1.6
	C401.9,475.3,395.4,474.2,390.5,472.8z M383.3,478.1c4.4,2.6,13.5,4.6,25.2,5.4c0.1-0.6,0.1-1.2,0.2-1.8
	C398.5,481.2,389.6,479.9,383.3,478.1z M389.3,484.2c3.5,2.1,10.1,3.8,18.7,4.8c0-0.5,0.1-1.1,0.1-1.6
	C400.7,486.7,394.2,485.6,389.3,484.2z"/>
<path id="path7526" inkscape:connector-curvature="0" class="st1" d="M426.2,449.6c4.7,3,13.8,5.2,25.5,6.1c0.1-0.8,0.3-1.6,0.4-2.3
	C441.8,452.9,432.8,451.6,426.2,449.6z M429.3,458.7c4,2.6,11.4,4.6,21,5.6c0.1-0.7,0.2-1.5,0.3-2.2
	C442.2,461.5,434.9,460.4,429.3,458.7L429.3,458.7z M421.2,466.3c5,3.2,15.1,5.5,28,6.2c0.1-0.8,0.2-1.6,0.3-2.4
	C438.2,469.8,428.3,468.4,421.2,466.3z M428.4,474.4c3.9,2.5,10.8,4.4,19.9,5.5c0.1-0.7,0.2-1.4,0.2-2.2
	C440.7,477.2,433.8,476,428.4,474.4L428.4,474.4z"/>
<path id="path7528" inkscape:connector-curvature="0" class="st1" d="M228.6,445.3c3.3,2.1,8.8,3.8,16,5c0-0.6,0.1-1.3,0.1-2
	C238.6,447.6,233.1,446.6,228.6,445.3L228.6,445.3z M231.7,454.4c2.7,1.7,6.9,3.2,12.3,4.3c0-0.6,0.1-1.2,0.1-1.8
	C239.5,456.3,235.3,455.4,231.7,454.4L231.7,454.4z M224.1,462.1c0,0,0,0.1,0,0.1c3.9,2.4,10.6,4.2,19.2,5.2
	c0.1-0.7,0.1-1.4,0.2-2.2C235.9,464.7,229.3,463.6,224.1,462.1L224.1,462.1z M230.9,470.1c2.6,1.7,6.7,3.1,11.9,4.2
	c0-0.6,0.1-1.1,0.1-1.7C238.4,472,234.3,471.1,230.9,470.1z"/>
</svg>
